%TF.GenerationSoftware,KiCad,Pcbnew,10.0.3-10.0.3~ubuntu24.04.1*%
%TF.CreationDate,2026-06-19T13:07:11+02:00*%
%TF.ProjectId,ringotchi,72696e67-6f74-4636-9869-2e6b69636164,rev?*%
%TF.SameCoordinates,Original*%
%TF.FileFunction,Profile,NP*%
%FSLAX46Y46*%
G04 Gerber Fmt 4.6, Leading zero omitted, Abs format (unit mm)*
G04 Created by KiCad (PCBNEW 10.0.3-10.0.3~ubuntu24.04.1) date 2026-06-19 13:07:11*
%MOMM*%
%LPD*%
G01*
G04 APERTURE LIST*
%TA.AperFunction,Profile*%
%ADD10C,0.100000*%
%TD*%
G04 APERTURE END LIST*
D10*
X90078851Y-74234155D02*
G75*
G02*
X90961266Y-67995335I42102549J-2773145D01*
G01*
X90239252Y-81789483D02*
G75*
G02*
X90078851Y-74234155I43231748J4697183D01*
G01*
X90961260Y-67995334D02*
G75*
G02*
X92753355Y-62101561I37680040J-8237866D01*
G01*
X91673137Y-90550839D02*
G75*
G02*
X90239250Y-81789483I80337863J17646139D01*
G01*
X92753361Y-62101563D02*
G75*
G02*
X95380203Y-56774141I33342639J-13129237D01*
G01*
X94055646Y-99157311D02*
G75*
G02*
X91673140Y-90550838I78646554J26404511D01*
G01*
X95380199Y-56774139D02*
G75*
G02*
X98747109Y-52220632I25420501J-15274661D01*
G01*
X97110849Y-106248652D02*
G75*
G02*
X94055646Y-99157311I41149651J21932552D01*
G01*
X98747109Y-52220632D02*
G75*
G02*
X101538650Y-49725026I12798391J-11506968D01*
G01*
X101357698Y-112939307D02*
G75*
G02*
X97110850Y-106248651I41875602J31273407D01*
G01*
X101538650Y-49725026D02*
G75*
G02*
X105304501Y-47395207I19389850J-27132774D01*
G01*
X105304498Y-47395201D02*
G75*
G02*
X109423250Y-45546703I16098102J-30356299D01*
G01*
X107249421Y-120089500D02*
G75*
G02*
X101357699Y-112939306I71881079J65232100D01*
G01*
X109423252Y-45546707D02*
G75*
G02*
X113295682Y-44505465I7491348J-20139193D01*
G01*
X113295684Y-44505474D02*
G75*
G02*
X116765396Y-44153578I4312616J-25240926D01*
G01*
X113353486Y-126222983D02*
G75*
G02*
X107249423Y-120089499I63493314J69292883D01*
G01*
X116765396Y-44153585D02*
G75*
G02*
X120054577Y-44311342I671104J-20375715D01*
G01*
X117987319Y-129253042D02*
G75*
G02*
X113353486Y-126222983I6916081J15634942D01*
G01*
X119425946Y-129767796D02*
G75*
G02*
X117987316Y-129253049I2807454J10114096D01*
G01*
X119425946Y-129767796D02*
X121287986Y-130210141D01*
X120054578Y-44311335D02*
G75*
G02*
X123838417Y-45050237I-3867078J-29860665D01*
G01*
X121287986Y-130210141D02*
X123390431Y-130551206D01*
X123390431Y-130551206D02*
X125577049Y-130757634D01*
X125577049Y-130757634D02*
X128544621Y-130869578D01*
X128967150Y-46534954D02*
X123838418Y-45050233D01*
X130387420Y-130720287D02*
G75*
G02*
X128544621Y-130869571I-1713420J9702287D01*
G01*
X132165570Y-130229704D02*
G75*
G02*
X130387421Y-130720292I-3480170J9146204D01*
G01*
X132165570Y-130229704D02*
X134895599Y-129112016D01*
X134842995Y-48144046D02*
X128967150Y-46534954D01*
X134895599Y-129112016D02*
X139338075Y-127162199D01*
X138938784Y-48584963D02*
G75*
G02*
X134842997Y-48144036I-230084J17106163D01*
G01*
X139338075Y-127162199D02*
X143136382Y-129035216D01*
X143024247Y-48034312D02*
G75*
G02*
X138938784Y-48584974I-4316047J16590812D01*
G01*
X143136382Y-129035216D02*
X144823671Y-129788525D01*
X144823671Y-129788525D02*
X146516082Y-130387138D01*
X148050523Y-130784789D02*
G75*
G02*
X146516083Y-130387136I3678577J17353989D01*
G01*
X148866945Y-46267284D02*
X143024247Y-48034312D01*
X149228466Y-130908258D02*
G75*
G02*
X148050523Y-130784789I34J5681058D01*
G01*
X151987717Y-45253690D02*
X148866945Y-46267284D01*
X152369266Y-130595394D02*
G75*
G02*
X149228466Y-130908255I-3140666J15607394D01*
G01*
X152369266Y-130595394D02*
X156621103Y-129567763D01*
X154752835Y-44497236D02*
X151987717Y-45253690D01*
X156621103Y-129567763D02*
X160841813Y-128194230D01*
X157065499Y-44011836D02*
X154752835Y-44497236D01*
X157065499Y-44011836D02*
G75*
G02*
X158727557Y-43866109I1662101J-9405764D01*
G01*
X158727557Y-43866110D02*
G75*
G02*
X161947316Y-44166147I-57J-17426590D01*
G01*
X163931798Y-126748493D02*
G75*
G02*
X160841816Y-128194237I-10120998J17606593D01*
G01*
X166058327Y-45122099D02*
X161947316Y-44166147D01*
X168756186Y-123104247D02*
G75*
G02*
X163931802Y-126748501I-16887486J17340747D01*
G01*
X170310030Y-46498343D02*
X166058327Y-45122099D01*
X170310030Y-46498343D02*
G75*
G02*
X174022610Y-48117402I-12521530J-33778557D01*
G01*
X173935670Y-117397824D02*
G75*
G02*
X168756189Y-123104250I-48842470J39128424D01*
G01*
X174022610Y-48117401D02*
G75*
G02*
X180537725Y-52787222I-11743510J-23263699D01*
G01*
X178863629Y-110459625D02*
G75*
G02*
X173935668Y-117397822I-62376829J39084925D01*
G01*
X180537731Y-52787216D02*
G75*
G02*
X184807168Y-58942215I-14038031J-14295784D01*
G01*
X182961269Y-102994747D02*
G75*
G02*
X178863632Y-110459627I-66631369J31718347D01*
G01*
X184807175Y-58942212D02*
G75*
G02*
X187157206Y-67415307I-27267675J-12125188D01*
G01*
X185423156Y-97165533D02*
G75*
G02*
X182961268Y-102994747I-66430056J24621333D01*
G01*
X186888765Y-92064198D02*
G75*
G02*
X185423150Y-97165531I-34598965J7179098D01*
G01*
X187157212Y-67415306D02*
G75*
G02*
X187881209Y-79283251I-95595312J-11787794D01*
G01*
X187640711Y-86530310D02*
G75*
G02*
X186888762Y-92064197I-40101611J2631010D01*
G01*
X187640711Y-86530310D02*
X187881209Y-79283251D01*
M02*
