%TF.GenerationSoftware,KiCad,Pcbnew,10.0.3-10.0.3~ubuntu24.04.1*%
%TF.CreationDate,2026-06-19T13:07:10+02:00*%
%TF.ProjectId,ringotchi,72696e67-6f74-4636-9869-2e6b69636164,rev?*%
%TF.SameCoordinates,Original*%
%TF.FileFunction,Legend,Bot*%
%TF.FilePolarity,Positive*%
%FSLAX46Y46*%
G04 Gerber Fmt 4.6, Leading zero omitted, Abs format (unit mm)*
G04 Created by KiCad (PCBNEW 10.0.3-10.0.3~ubuntu24.04.1) date 2026-06-19 13:07:10*
%MOMM*%
%LPD*%
G01*
G04 APERTURE LIST*
%ADD10C,0.101600*%
%ADD11C,0.127000*%
%ADD12C,0.100000*%
%ADD13C,0.504000*%
G04 APERTURE END LIST*
D10*
X148676520Y-59394809D02*
X148162473Y-59394809D01*
X148162473Y-59394809D02*
X148101997Y-59364571D01*
X148101997Y-59364571D02*
X148071759Y-59334333D01*
X148071759Y-59334333D02*
X148041520Y-59273857D01*
X148041520Y-59273857D02*
X148041520Y-59152904D01*
X148041520Y-59152904D02*
X148071759Y-59092428D01*
X148071759Y-59092428D02*
X148101997Y-59062190D01*
X148101997Y-59062190D02*
X148162473Y-59031952D01*
X148162473Y-59031952D02*
X148676520Y-59031952D01*
X148041520Y-58396952D02*
X148041520Y-58759809D01*
X148041520Y-58578381D02*
X148676520Y-58578381D01*
X148676520Y-58578381D02*
X148585806Y-58638857D01*
X148585806Y-58638857D02*
X148525330Y-58699333D01*
X148525330Y-58699333D02*
X148495092Y-58759809D01*
%TO.C,U1*%
D11*
X129165000Y-67145000D02*
X129165000Y-50000000D01*
D12*
X131070000Y-48095000D02*
X145040000Y-48095000D01*
X131070000Y-48095000D02*
X145040000Y-48095000D01*
D11*
X131070000Y-48095000D02*
X145040000Y-48095000D01*
X133551000Y-47085000D02*
X133551000Y-48095000D01*
X142046272Y-46585000D02*
X134051000Y-46585000D01*
X142550000Y-48095000D02*
X142546272Y-47084728D01*
X145040000Y-69050000D02*
X131070000Y-69050000D01*
X146945000Y-67145000D02*
X146945000Y-50000000D01*
X129165000Y-50000000D02*
G75*
G02*
X131070000Y-48095000I1905000J0D01*
G01*
X131070000Y-69050000D02*
G75*
G02*
X129165000Y-67145000I1J1905001D01*
G01*
X133551000Y-47085000D02*
G75*
G02*
X134051000Y-46585000I500000J0D01*
G01*
X142046272Y-46585000D02*
G75*
G02*
X142546300Y-47084728I28J-500000D01*
G01*
X145040000Y-48095000D02*
G75*
G02*
X146945000Y-50000000I0J-1905000D01*
G01*
X146945000Y-67145000D02*
G75*
G02*
X145040000Y-69050000I-1905001J1D01*
G01*
D13*
X146164000Y-49266000D02*
G75*
G02*
X145660000Y-49266000I-252000J0D01*
G01*
X145660000Y-49266000D02*
G75*
G02*
X146164000Y-49266000I252000J0D01*
G01*
X147307000Y-48386000D02*
G75*
G02*
X146803000Y-48386000I-252000J0D01*
G01*
X146803000Y-48386000D02*
G75*
G02*
X147307000Y-48386000I252000J0D01*
G01*
%TD*%
M02*
