%TF.GenerationSoftware,KiCad,Pcbnew,10.0.3-10.0.3~ubuntu24.04.1*%
%TF.CreationDate,2026-06-19T13:07:09+02:00*%
%TF.ProjectId,ringotchi,72696e67-6f74-4636-9869-2e6b69636164,rev?*%
%TF.SameCoordinates,Original*%
%TF.FileFunction,Copper,L1,Top*%
%TF.FilePolarity,Positive*%
%FSLAX46Y46*%
G04 Gerber Fmt 4.6, Leading zero omitted, Abs format (unit mm)*
G04 Created by KiCad (PCBNEW 10.0.3-10.0.3~ubuntu24.04.1) date 2026-06-19 13:07:09*
%MOMM*%
%LPD*%
G01*
G04 APERTURE LIST*
G04 Aperture macros list*
%AMRoundRect*
0 Rectangle with rounded corners*
0 $1 Rounding radius*
0 $2 $3 $4 $5 $6 $7 $8 $9 X,Y pos of 4 corners*
0 Add a 4 corners polygon primitive as box body*
4,1,4,$2,$3,$4,$5,$6,$7,$8,$9,$2,$3,0*
0 Add four circle primitives for the rounded corners*
1,1,$1+$1,$2,$3*
1,1,$1+$1,$4,$5*
1,1,$1+$1,$6,$7*
1,1,$1+$1,$8,$9*
0 Add four rect primitives between the rounded corners*
20,1,$1+$1,$2,$3,$4,$5,0*
20,1,$1+$1,$4,$5,$6,$7,0*
20,1,$1+$1,$6,$7,$8,$9,0*
20,1,$1+$1,$8,$9,$2,$3,0*%
G04 Aperture macros list end*
%TA.AperFunction,ComponentPad*%
%ADD10C,1.524000*%
%TD*%
%TA.AperFunction,ComponentPad*%
%ADD11RoundRect,0.275000X-0.975000X-0.275000X0.975000X-0.275000X0.975000X0.275000X-0.975000X0.275000X0*%
%TD*%
%TA.AperFunction,ComponentPad*%
%ADD12C,2.000000*%
%TD*%
%TA.AperFunction,ComponentPad*%
%ADD13R,1.800000X1.800000*%
%TD*%
%TA.AperFunction,ComponentPad*%
%ADD14C,1.800000*%
%TD*%
%TA.AperFunction,ComponentPad*%
%ADD15R,2.000000X2.000000*%
%TD*%
%TA.AperFunction,ComponentPad*%
%ADD16C,3.200000*%
%TD*%
%TA.AperFunction,ComponentPad*%
%ADD17R,1.508000X1.508000*%
%TD*%
%TA.AperFunction,ComponentPad*%
%ADD18C,1.508000*%
%TD*%
%TA.AperFunction,ComponentPad*%
%ADD19C,3.000000*%
%TD*%
%TA.AperFunction,ComponentPad*%
%ADD20R,1.700000X1.700000*%
%TD*%
%TA.AperFunction,ComponentPad*%
%ADD21O,1.700000X1.700000*%
%TD*%
%TA.AperFunction,ComponentPad*%
%ADD22C,1.600000*%
%TD*%
%TA.AperFunction,ComponentPad*%
%ADD23O,1.600000X1.600000*%
%TD*%
%TA.AperFunction,ViaPad*%
%ADD24C,0.600000*%
%TD*%
%TA.AperFunction,Conductor*%
%ADD25C,0.200000*%
%TD*%
G04 APERTURE END LIST*
D10*
%TO.P,U1,1,GPIO2_A0_D0_1*%
%TO.N,Net-(U1-GPIO2_A0_D0)*%
X145675000Y-51016000D03*
%TO.P,U1,2,GPIO3_A1_D1_2*%
%TO.N,Net-(U1-GPIO3_A1_D1)*%
X145675000Y-53556000D03*
%TO.P,U1,3,GPIO4_A2_D2_3*%
%TO.N,Net-(U1-GPIO4_A2_D2)*%
X145675000Y-56096000D03*
%TO.P,U1,4,GPIO5_A3_D3_4*%
%TO.N,unconnected-(U1-GPIO5_A3_D3-Pad4)_1*%
X145675000Y-58636000D03*
%TO.P,U1,5,GPIO6_D4_SDA_5*%
%TO.N,Net-(U1-GPIO6_D4_SDA)*%
X145675000Y-61176000D03*
%TO.P,U1,6,GPIO7_D5_SCL_6*%
%TO.N,Net-(U1-GPIO7_D5_SCL)*%
X145675000Y-63716000D03*
%TO.P,U1,7,GPIO21_D6_TX_7*%
%TO.N,Net-(U1-GPIO21_D6_TX)*%
X145675000Y-66256000D03*
%TO.P,U1,8,GPIO20_D7_RX_8*%
%TO.N,Net-(U1-GPIO20_D7_RX)*%
X130435000Y-66256000D03*
%TO.P,U1,9,GPIO8_D8_SCK_9*%
%TO.N,Net-(U1-GPIO8_D8_SCK)*%
X130435000Y-63716000D03*
%TO.P,U1,10,GPIO9_D9_MISO_10*%
%TO.N,Net-(D2-A)*%
X130435000Y-61176000D03*
%TO.P,U1,11,GPIO10_D10_MOSI_11*%
%TO.N,Net-(D1-A)*%
X130435000Y-58636000D03*
%TO.P,U1,12,3V3_12*%
%TO.N,+3V3*%
X130435000Y-56096000D03*
%TO.P,U1,13,GND_13*%
%TO.N,GND*%
X130435000Y-53556000D03*
%TO.P,U1,14,VBUS_14*%
%TO.N,+5V*%
X130435000Y-51016000D03*
D11*
%TO.P,U1,15*%
%TO.N,N/C*%
X142500000Y-58250000D03*
%TO.P,U1,16*%
X142500000Y-56345000D03*
%TD*%
D12*
%TO.P,SW4,1,1_1*%
%TO.N,GND*%
X106750000Y-63000000D03*
X113250000Y-63000000D03*
%TO.P,SW4,2,2_2*%
%TO.N,Net-(U1-GPIO4_A2_D2)*%
X106750000Y-67500000D03*
X113250000Y-67500000D03*
%TD*%
D13*
%TO.P,D1,1,K_1*%
%TO.N,Net-(D1-K)*%
X124500000Y-81500000D03*
D14*
%TO.P,D1,2,A_2*%
%TO.N,Net-(D1-A)*%
X127040000Y-81500000D03*
%TD*%
D15*
%TO.P,SW1,A,A_A*%
%TO.N,Net-(U1-GPIO8_D8_SCK)*%
X160500000Y-62000000D03*
D12*
%TO.P,SW1,B,B_B*%
%TO.N,Net-(U1-GPIO20_D7_RX)*%
X160500000Y-67000000D03*
%TO.P,SW1,C,GND_C*%
%TO.N,GND*%
X160500000Y-64500000D03*
D16*
%TO.P,SW1,MP,MP_MP*%
%TO.N,unconnected-(SW1-PadMP)*%
X168000000Y-58900000D03*
%TO.N,unconnected-(SW1-PadMP)_1*%
X168000000Y-70100000D03*
D12*
%TO.P,SW1,S1,S1_S1*%
%TO.N,Net-(U1-GPIO21_D6_TX)*%
X175000000Y-67000000D03*
%TO.P,SW1,S2,GND_S2*%
%TO.N,GND*%
X175000000Y-62000000D03*
%TD*%
D13*
%TO.P,D2,1,K_1*%
%TO.N,Net-(D1-K)*%
X150460000Y-81500000D03*
D14*
%TO.P,D2,2,A_2*%
%TO.N,Net-(D2-A)*%
X153000000Y-81500000D03*
%TD*%
D17*
%TO.P,U2,1,GND_1*%
%TO.N,GND*%
X134690000Y-94500000D03*
D18*
%TO.P,U2,2,VCC_IN_2*%
%TO.N,+3V3*%
X137230000Y-94500000D03*
%TO.P,U2,3,SCL_3*%
%TO.N,Net-(U1-GPIO7_D5_SCL)*%
X139770000Y-94500000D03*
%TO.P,U2,4,SDA_4*%
%TO.N,Net-(U1-GPIO6_D4_SDA)*%
X142310000Y-94500000D03*
D19*
%TO.P,U2,S1*%
%TO.N,N/C*%
X127500000Y-95000000D03*
%TO.P,U2,S2*%
X149500000Y-95000000D03*
%TO.P,U2,S3*%
X149500000Y-117000000D03*
%TO.P,U2,S4*%
X127500000Y-117000000D03*
%TD*%
D20*
%TO.P,BT1,1,+_1*%
%TO.N,+BATT*%
X166500000Y-92000000D03*
D21*
%TO.P,BT1,2,-_2*%
%TO.N,GND*%
X169040000Y-92000000D03*
%TD*%
D12*
%TO.P,SW3,1,1_1*%
%TO.N,GND*%
X106500000Y-82000000D03*
X113000000Y-82000000D03*
%TO.P,SW3,2,2_2*%
%TO.N,Net-(U1-GPIO3_A1_D1)*%
X106500000Y-86500000D03*
X113000000Y-86500000D03*
%TD*%
%TO.P,SW2,1,1_1*%
%TO.N,GND*%
X106500000Y-99750000D03*
X113000000Y-99750000D03*
%TO.P,SW2,2,2_2*%
%TO.N,Net-(U1-GPIO2_A0_D0)*%
X106500000Y-104250000D03*
X113000000Y-104250000D03*
%TD*%
D22*
%TO.P,R1,1*%
%TO.N,Net-(D1-K)*%
X165190000Y-83000000D03*
D23*
%TO.P,R1,2*%
%TO.N,GND*%
X172810000Y-83000000D03*
%TD*%
D24*
%TO.N,GND*%
X116075735Y-84000000D03*
%TO.N,Net-(U1-GPIO8_D8_SCK)*%
X136000000Y-66568000D03*
%TO.N,Net-(U1-GPIO7_D5_SCL)*%
X144500000Y-71500000D03*
%TO.N,Net-(U1-GPIO6_D4_SDA)*%
X150000000Y-76500000D03*
X150000000Y-63500000D03*
%TD*%
%TO.N,GND*%
D25*
X130435000Y-53556000D02*
X132120500Y-53556000D01*
X132120500Y-53556000D02*
X141064500Y-62500000D01*
X141064500Y-62500000D02*
X158500000Y-62500000D01*
X158500000Y-62500000D02*
X160500000Y-64500000D01*
%TO.N,Net-(U1-GPIO7_D5_SCL)*%
X145675000Y-63716000D02*
X144284000Y-63716000D01*
X144284000Y-63716000D02*
X143000000Y-65000000D01*
%TO.N,GND*%
X114550000Y-64500000D02*
X114550000Y-64450000D01*
X114550000Y-64450000D02*
X125444000Y-53556000D01*
X125444000Y-53556000D02*
X130435000Y-53556000D01*
%TO.N,Net-(D1-A)*%
X127000000Y-60000000D02*
X127000000Y-61241000D01*
X127000000Y-61241000D02*
X127040000Y-61281000D01*
X128364000Y-58636000D02*
X127000000Y-60000000D01*
X130435000Y-58636000D02*
X128364000Y-58636000D01*
%TO.N,Net-(D2-A)*%
X130435000Y-61176000D02*
X132676000Y-61176000D01*
X132676000Y-61176000D02*
X153000000Y-81500000D01*
%TO.N,Net-(U1-GPIO8_D8_SCK)*%
X130435000Y-63716000D02*
X133219000Y-66500000D01*
X133219000Y-66500000D02*
X135932000Y-66500000D01*
X135932000Y-66500000D02*
X136000000Y-66568000D01*
%TO.N,GND*%
X114550000Y-64300000D02*
X114550000Y-64500000D01*
X106500000Y-82000000D02*
X113000000Y-82000000D01*
X175000000Y-83000000D02*
X172810000Y-83000000D01*
X129440000Y-99750000D02*
X113000000Y-99750000D01*
X175000000Y-62000000D02*
X178500000Y-65500000D01*
X116075735Y-84000000D02*
X116075735Y-96674265D01*
X116075735Y-96674265D02*
X113000000Y-99750000D01*
X114550000Y-98200000D02*
X113000000Y-99750000D01*
X178500000Y-65500000D02*
X178500000Y-79500000D01*
X178500000Y-79500000D02*
X175000000Y-83000000D01*
X106500000Y-99750000D02*
X113000000Y-99750000D01*
X163000000Y-62000000D02*
X175000000Y-62000000D01*
X134690000Y-94500000D02*
X129440000Y-99750000D01*
X172810000Y-88230000D02*
X169040000Y-92000000D01*
X172810000Y-83000000D02*
X172810000Y-88230000D01*
X106750000Y-63000000D02*
X113250000Y-63000000D01*
X114550000Y-64500000D02*
X114550000Y-98200000D01*
X113250000Y-63000000D02*
X114550000Y-64300000D01*
X160500000Y-64500000D02*
X163000000Y-62000000D01*
%TO.N,Net-(U1-GPIO4_A2_D2)*%
X106750000Y-67500000D02*
X113250000Y-67500000D01*
%TO.N,Net-(D1-K)*%
X124500000Y-81500000D02*
X125700000Y-82700000D01*
X151960000Y-83000000D02*
X150460000Y-81500000D01*
X149260000Y-82700000D02*
X150460000Y-81500000D01*
X165190000Y-83000000D02*
X151960000Y-83000000D01*
X125700000Y-82700000D02*
X149260000Y-82700000D01*
%TO.N,Net-(D1-A)*%
X127040000Y-81500000D02*
X127040000Y-61281000D01*
%TO.N,Net-(U1-GPIO3_A1_D1)*%
X106500000Y-86500000D02*
X113000000Y-86500000D01*
%TO.N,Net-(U1-GPIO2_A0_D0)*%
X106500000Y-104250000D02*
X113000000Y-104250000D01*
%TO.N,Net-(U1-GPIO7_D5_SCL)*%
X143000000Y-69000000D02*
X143000000Y-65000000D01*
X144500000Y-70500000D02*
X143000000Y-69000000D01*
X144500000Y-71500000D02*
X144500000Y-70500000D01*
%TO.N,Net-(U1-GPIO6_D4_SDA)*%
X150000000Y-76500000D02*
X150000000Y-63500000D01*
%TD*%
%TA.AperFunction,NonConductor*%
G36*
X144406784Y-56464228D02*
G01*
X144422770Y-56466063D01*
X144437910Y-56478443D01*
X144455703Y-56486569D01*
X144465004Y-56500598D01*
X144476859Y-56510292D01*
X144492431Y-56541965D01*
X144504992Y-56580626D01*
X144504994Y-56580632D01*
X144547245Y-56663552D01*
X144595213Y-56757694D01*
X144712019Y-56918464D01*
X144852536Y-57058981D01*
X145013306Y-57175787D01*
X145119993Y-57230147D01*
X145169780Y-57255515D01*
X145220576Y-57303490D01*
X145237371Y-57371311D01*
X145214833Y-57437446D01*
X145169780Y-57476485D01*
X145013305Y-57556213D01*
X144852533Y-57673021D01*
X144712021Y-57813533D01*
X144595213Y-57974305D01*
X144504994Y-58151367D01*
X144504993Y-58151370D01*
X144492431Y-58190035D01*
X144452994Y-58247711D01*
X144388635Y-58274909D01*
X144319789Y-58262994D01*
X144268313Y-58215750D01*
X144250500Y-58151717D01*
X144250500Y-57931445D01*
X144250499Y-57931441D01*
X144235842Y-57801351D01*
X144235841Y-57801349D01*
X144235841Y-57801343D01*
X144178122Y-57636394D01*
X144085147Y-57488424D01*
X143981904Y-57385181D01*
X143948419Y-57323858D01*
X143953403Y-57254166D01*
X143981904Y-57209819D01*
X144015937Y-57175786D01*
X144085147Y-57106576D01*
X144178122Y-56958606D01*
X144235841Y-56793657D01*
X144250500Y-56663552D01*
X144250500Y-56580282D01*
X144255033Y-56564842D01*
X144254574Y-56548758D01*
X144264675Y-56532007D01*
X144270185Y-56513243D01*
X144282343Y-56502707D01*
X144290655Y-56488925D01*
X144308210Y-56480294D01*
X144322989Y-56467488D01*
X144338914Y-56465198D01*
X144353356Y-56458098D01*
X144372787Y-56460327D01*
X144392147Y-56457544D01*
X144406784Y-56464228D01*
G37*
%TD.AperFunction*%
%TA.AperFunction,NonConductor*%
G36*
X144431788Y-50279545D02*
G01*
X144498690Y-50299675D01*
X144544092Y-50352783D01*
X144553574Y-50422006D01*
X144541442Y-50459836D01*
X144504995Y-50531367D01*
X144504993Y-50531370D01*
X144443587Y-50720362D01*
X144443587Y-50720364D01*
X144412500Y-50916639D01*
X144412500Y-51115361D01*
X144428043Y-51213498D01*
X144443587Y-51311637D01*
X144504993Y-51500629D01*
X144504994Y-51500632D01*
X144579429Y-51646716D01*
X144595213Y-51677694D01*
X144712019Y-51838464D01*
X144852536Y-51978981D01*
X145013306Y-52095787D01*
X145042761Y-52110795D01*
X145169780Y-52175515D01*
X145220576Y-52223490D01*
X145237371Y-52291311D01*
X145214833Y-52357446D01*
X145169780Y-52396485D01*
X145013305Y-52476213D01*
X144852533Y-52593021D01*
X144712021Y-52733533D01*
X144595213Y-52894305D01*
X144504994Y-53071367D01*
X144504993Y-53071370D01*
X144443587Y-53260362D01*
X144443587Y-53260364D01*
X144412500Y-53456639D01*
X144412500Y-53655361D01*
X144428043Y-53753498D01*
X144443587Y-53851637D01*
X144504993Y-54040629D01*
X144504994Y-54040632D01*
X144564033Y-54156500D01*
X144595213Y-54217694D01*
X144712019Y-54378464D01*
X144852536Y-54518981D01*
X145013306Y-54635787D01*
X145131832Y-54696179D01*
X145169780Y-54715515D01*
X145220576Y-54763490D01*
X145237371Y-54831311D01*
X145214833Y-54897446D01*
X145169780Y-54936485D01*
X145013305Y-55016213D01*
X144852533Y-55133021D01*
X144712021Y-55273533D01*
X144595213Y-55434305D01*
X144504994Y-55611367D01*
X144504993Y-55611370D01*
X144442081Y-55804998D01*
X144440879Y-55804607D01*
X144408981Y-55860144D01*
X144346950Y-55892299D01*
X144277382Y-55885814D01*
X144222364Y-55842746D01*
X144206171Y-55811553D01*
X144178122Y-55731394D01*
X144085147Y-55583424D01*
X143961576Y-55459853D01*
X143813606Y-55366878D01*
X143813605Y-55366877D01*
X143813604Y-55366877D01*
X143648658Y-55309159D01*
X143648648Y-55309157D01*
X143518558Y-55294500D01*
X143518552Y-55294500D01*
X141481448Y-55294500D01*
X141481441Y-55294500D01*
X141351351Y-55309157D01*
X141351341Y-55309159D01*
X141186395Y-55366877D01*
X141038423Y-55459853D01*
X140914853Y-55583423D01*
X140821877Y-55731395D01*
X140764159Y-55896341D01*
X140764157Y-55896351D01*
X140749500Y-56026441D01*
X140749500Y-56663558D01*
X140764157Y-56793648D01*
X140764159Y-56793658D01*
X140821877Y-56958604D01*
X140821878Y-56958606D01*
X140884947Y-57058981D01*
X140914853Y-57106576D01*
X141018096Y-57209819D01*
X141051581Y-57271142D01*
X141046597Y-57340834D01*
X141018096Y-57385181D01*
X140914853Y-57488423D01*
X140821877Y-57636395D01*
X140764159Y-57801341D01*
X140764157Y-57801351D01*
X140749500Y-57931441D01*
X140749500Y-58568558D01*
X140764157Y-58698648D01*
X140764159Y-58698658D01*
X140816623Y-58848588D01*
X140821878Y-58863606D01*
X140914853Y-59011576D01*
X141038424Y-59135147D01*
X141186394Y-59228122D01*
X141351343Y-59285841D01*
X141351349Y-59285841D01*
X141351351Y-59285842D01*
X141392750Y-59290506D01*
X141481442Y-59300499D01*
X141481445Y-59300500D01*
X141481448Y-59300500D01*
X143518555Y-59300500D01*
X143518556Y-59300499D01*
X143648657Y-59285841D01*
X143813606Y-59228122D01*
X143961576Y-59135147D01*
X144085147Y-59011576D01*
X144178122Y-58863606D01*
X144190920Y-58827030D01*
X144231639Y-58770258D01*
X144296591Y-58744509D01*
X144365153Y-58757964D01*
X144415556Y-58806351D01*
X144430433Y-58848588D01*
X144443587Y-58931637D01*
X144504993Y-59120629D01*
X144504994Y-59120632D01*
X144559764Y-59228122D01*
X144595213Y-59297694D01*
X144712019Y-59458464D01*
X144852536Y-59598981D01*
X145013306Y-59715787D01*
X145116199Y-59768214D01*
X145169780Y-59795515D01*
X145220576Y-59843490D01*
X145237371Y-59911311D01*
X145214833Y-59977446D01*
X145169780Y-60016485D01*
X145013305Y-60096213D01*
X144852533Y-60213021D01*
X144712021Y-60353533D01*
X144595213Y-60514305D01*
X144504994Y-60691367D01*
X144504993Y-60691370D01*
X144443587Y-60880362D01*
X144412500Y-61076639D01*
X144412500Y-61275360D01*
X144443587Y-61471637D01*
X144504993Y-61660629D01*
X144504996Y-61660636D01*
X144534839Y-61719204D01*
X144547736Y-61787873D01*
X144521460Y-61852614D01*
X144464354Y-61892871D01*
X144424355Y-61899500D01*
X141364597Y-61899500D01*
X141297558Y-61879815D01*
X141276916Y-61863181D01*
X132608090Y-53194355D01*
X132608088Y-53194352D01*
X132489217Y-53075481D01*
X132489216Y-53075480D01*
X132402404Y-53025360D01*
X132402404Y-53025359D01*
X132402400Y-53025358D01*
X132352285Y-52996423D01*
X132199557Y-52955499D01*
X132041443Y-52955499D01*
X132033847Y-52955499D01*
X132033831Y-52955500D01*
X131621730Y-52955500D01*
X131554691Y-52935815D01*
X131517808Y-52898133D01*
X131517651Y-52898248D01*
X131516872Y-52897176D01*
X131516000Y-52896285D01*
X131514789Y-52894309D01*
X131514786Y-52894305D01*
X131397981Y-52733536D01*
X131257464Y-52593019D01*
X131096694Y-52476213D01*
X130940218Y-52396484D01*
X130889423Y-52348510D01*
X130872628Y-52280689D01*
X130895165Y-52214554D01*
X130940218Y-52175515D01*
X131096694Y-52095787D01*
X131257464Y-51978981D01*
X131397981Y-51838464D01*
X131514787Y-51677694D01*
X131605005Y-51500632D01*
X131666413Y-51311636D01*
X131697500Y-51115361D01*
X131697500Y-50916639D01*
X131666413Y-50720364D01*
X131605005Y-50531368D01*
X131605000Y-50531357D01*
X131525094Y-50374534D01*
X131512197Y-50305865D01*
X131538473Y-50241125D01*
X131595579Y-50200867D01*
X131636400Y-50194242D01*
X144431788Y-50279545D01*
G37*
%TD.AperFunction*%
%TA.AperFunction,NonConductor*%
G36*
X132442942Y-61796185D02*
G01*
X132463584Y-61812819D01*
X136213498Y-65562733D01*
X136246983Y-65624056D01*
X136241999Y-65693748D01*
X136200127Y-65749681D01*
X136134663Y-65774098D01*
X136101627Y-65772032D01*
X136078842Y-65767500D01*
X135921158Y-65767500D01*
X135921155Y-65767500D01*
X135766510Y-65798261D01*
X135766498Y-65798264D01*
X135620827Y-65858602D01*
X135620814Y-65858609D01*
X135590894Y-65878602D01*
X135524217Y-65899480D01*
X135522003Y-65899500D01*
X133519098Y-65899500D01*
X133452059Y-65879815D01*
X133431417Y-65863181D01*
X132583375Y-65015139D01*
X131698761Y-64130526D01*
X131665277Y-64069204D01*
X131665843Y-64016478D01*
X131665651Y-64016448D01*
X131665857Y-64015143D01*
X131665871Y-64013891D01*
X131666409Y-64011646D01*
X131666413Y-64011636D01*
X131697500Y-63815361D01*
X131697500Y-63616639D01*
X131666413Y-63420364D01*
X131614442Y-63260411D01*
X131605006Y-63231370D01*
X131605005Y-63231367D01*
X131538324Y-63100500D01*
X131514787Y-63054306D01*
X131397981Y-62893536D01*
X131257464Y-62753019D01*
X131096694Y-62636213D01*
X130940218Y-62556484D01*
X130889423Y-62508510D01*
X130872628Y-62440689D01*
X130895165Y-62374554D01*
X130940218Y-62335515D01*
X131096694Y-62255787D01*
X131257464Y-62138981D01*
X131397981Y-61998464D01*
X131514787Y-61837694D01*
X131514789Y-61837689D01*
X131516000Y-61835715D01*
X131516656Y-61835121D01*
X131517651Y-61833752D01*
X131517938Y-61833960D01*
X131567810Y-61788837D01*
X131621730Y-61776500D01*
X132375903Y-61776500D01*
X132442942Y-61796185D01*
G37*
%TD.AperFunction*%
%TA.AperFunction,NonConductor*%
G36*
X131887442Y-54176185D02*
G01*
X131908084Y-54192819D01*
X140579639Y-62864374D01*
X140579649Y-62864385D01*
X140583979Y-62868715D01*
X140583980Y-62868716D01*
X140695784Y-62980520D01*
X140782595Y-63030639D01*
X140782597Y-63030641D01*
X140820651Y-63052611D01*
X140832715Y-63059577D01*
X140985443Y-63100500D01*
X143750902Y-63100500D01*
X143817941Y-63120185D01*
X143863696Y-63172989D01*
X143873640Y-63242147D01*
X143844615Y-63305703D01*
X143838583Y-63312181D01*
X142519481Y-64631282D01*
X142519479Y-64631285D01*
X142490325Y-64681783D01*
X142490324Y-64681785D01*
X142440423Y-64768214D01*
X142440423Y-64768215D01*
X142399499Y-64920943D01*
X142399499Y-64920945D01*
X142399499Y-65089046D01*
X142399500Y-65089059D01*
X142399500Y-68913330D01*
X142399499Y-68913348D01*
X142399499Y-69079054D01*
X142399498Y-69079054D01*
X142440423Y-69231785D01*
X142469358Y-69281900D01*
X142469359Y-69281904D01*
X142469360Y-69281904D01*
X142519479Y-69368714D01*
X142519481Y-69368717D01*
X142638349Y-69487585D01*
X142638355Y-69487590D01*
X143863181Y-70712416D01*
X143877884Y-70739343D01*
X143894477Y-70765162D01*
X143895368Y-70771362D01*
X143896666Y-70773739D01*
X143899500Y-70800097D01*
X143899500Y-70920234D01*
X143879815Y-70987273D01*
X143878602Y-70989125D01*
X143790609Y-71120814D01*
X143790601Y-71120829D01*
X143767735Y-71176032D01*
X143723893Y-71230435D01*
X143657599Y-71252499D01*
X143589900Y-71235219D01*
X143565494Y-71216259D01*
X133163590Y-60814355D01*
X133163588Y-60814352D01*
X133044717Y-60695481D01*
X133044716Y-60695480D01*
X132957904Y-60645360D01*
X132957904Y-60645359D01*
X132957900Y-60645358D01*
X132907785Y-60616423D01*
X132755057Y-60575499D01*
X132596943Y-60575499D01*
X132589347Y-60575499D01*
X132589331Y-60575500D01*
X131621730Y-60575500D01*
X131554691Y-60555815D01*
X131517808Y-60518133D01*
X131517651Y-60518248D01*
X131516872Y-60517176D01*
X131516000Y-60516285D01*
X131514789Y-60514309D01*
X131508686Y-60505909D01*
X131397981Y-60353536D01*
X131257464Y-60213019D01*
X131096694Y-60096213D01*
X130940218Y-60016484D01*
X130889423Y-59968510D01*
X130872628Y-59900689D01*
X130895165Y-59834554D01*
X130940218Y-59795515D01*
X131096694Y-59715787D01*
X131257464Y-59598981D01*
X131397981Y-59458464D01*
X131514787Y-59297694D01*
X131605005Y-59120632D01*
X131666413Y-58931636D01*
X131697500Y-58735361D01*
X131697500Y-58536639D01*
X131666413Y-58340364D01*
X131617569Y-58190035D01*
X131605006Y-58151370D01*
X131605005Y-58151367D01*
X131539681Y-58023163D01*
X131514787Y-57974306D01*
X131397981Y-57813536D01*
X131257464Y-57673019D01*
X131096694Y-57556213D01*
X130940218Y-57476484D01*
X130889423Y-57428510D01*
X130872628Y-57360689D01*
X130895165Y-57294554D01*
X130940218Y-57255515D01*
X131096694Y-57175787D01*
X131257464Y-57058981D01*
X131397981Y-56918464D01*
X131514787Y-56757694D01*
X131605005Y-56580632D01*
X131666413Y-56391636D01*
X131697500Y-56195361D01*
X131697500Y-55996639D01*
X131666413Y-55800364D01*
X131605005Y-55611368D01*
X131605005Y-55611367D01*
X131514786Y-55434305D01*
X131397981Y-55273536D01*
X131257464Y-55133019D01*
X131096694Y-55016213D01*
X130940218Y-54936484D01*
X130889423Y-54888510D01*
X130872628Y-54820689D01*
X130895165Y-54754554D01*
X130940218Y-54715515D01*
X131096694Y-54635787D01*
X131257464Y-54518981D01*
X131397981Y-54378464D01*
X131514787Y-54217694D01*
X131514789Y-54217689D01*
X131516000Y-54215715D01*
X131516656Y-54215121D01*
X131517651Y-54213752D01*
X131517938Y-54213960D01*
X131523701Y-54208746D01*
X131528017Y-54199297D01*
X131549168Y-54185703D01*
X131567810Y-54168837D01*
X131579618Y-54166135D01*
X131586795Y-54161523D01*
X131621730Y-54156500D01*
X131820403Y-54156500D01*
X131887442Y-54176185D01*
G37*
%TD.AperFunction*%
%TA.AperFunction,NonConductor*%
G36*
X149144985Y-63109761D02*
G01*
X149176856Y-63117940D01*
X149178362Y-63119561D01*
X149180484Y-63120185D01*
X149202008Y-63145025D01*
X149224401Y-63169139D01*
X149224791Y-63171318D01*
X149226239Y-63172989D01*
X149230919Y-63205537D01*
X149236717Y-63237915D01*
X149235984Y-63240768D01*
X149236183Y-63242147D01*
X149231159Y-63260411D01*
X149232031Y-63260676D01*
X149230261Y-63266510D01*
X149199500Y-63421153D01*
X149199500Y-63578846D01*
X149230261Y-63733489D01*
X149230264Y-63733501D01*
X149290602Y-63879172D01*
X149290609Y-63879185D01*
X149378602Y-64010874D01*
X149399480Y-64077551D01*
X149399500Y-64079765D01*
X149399500Y-75920234D01*
X149379815Y-75987273D01*
X149378602Y-75989125D01*
X149290609Y-76120814D01*
X149290602Y-76120827D01*
X149230264Y-76266498D01*
X149230261Y-76266510D01*
X149199500Y-76421153D01*
X149199500Y-76550903D01*
X149179815Y-76617942D01*
X149127011Y-76663697D01*
X149057853Y-76673641D01*
X148994297Y-76644616D01*
X148987819Y-76638584D01*
X144783740Y-72434505D01*
X144750255Y-72373182D01*
X144755239Y-72303490D01*
X144797111Y-72247557D01*
X144823969Y-72232263D01*
X144879172Y-72209397D01*
X144879172Y-72209396D01*
X144879179Y-72209394D01*
X145010289Y-72121789D01*
X145121789Y-72010289D01*
X145209394Y-71879179D01*
X145269737Y-71733497D01*
X145300500Y-71578842D01*
X145300500Y-71421158D01*
X145300500Y-71421155D01*
X145300499Y-71421153D01*
X145288738Y-71362026D01*
X145269737Y-71266503D01*
X145269735Y-71266498D01*
X145209397Y-71120827D01*
X145209390Y-71120814D01*
X145121398Y-70989125D01*
X145100520Y-70922447D01*
X145100500Y-70920234D01*
X145100500Y-70420945D01*
X145100500Y-70420943D01*
X145059577Y-70268216D01*
X144986611Y-70141834D01*
X144980524Y-70131290D01*
X144980521Y-70131286D01*
X144980520Y-70131284D01*
X144868716Y-70019480D01*
X144868715Y-70019479D01*
X144864385Y-70015149D01*
X144864374Y-70015139D01*
X143636819Y-68787584D01*
X143603334Y-68726261D01*
X143600500Y-68699903D01*
X143600500Y-65300097D01*
X143620185Y-65233058D01*
X143636819Y-65212416D01*
X143997867Y-64851368D01*
X144440511Y-64408723D01*
X144501832Y-64375240D01*
X144571523Y-64380224D01*
X144627457Y-64422096D01*
X144628508Y-64423521D01*
X144693094Y-64512416D01*
X144712019Y-64538464D01*
X144852536Y-64678981D01*
X145013306Y-64795787D01*
X145122389Y-64851368D01*
X145169780Y-64875515D01*
X145220576Y-64923490D01*
X145237371Y-64991311D01*
X145214833Y-65057446D01*
X145169780Y-65096485D01*
X145013305Y-65176213D01*
X144852533Y-65293021D01*
X144712021Y-65433533D01*
X144595213Y-65594305D01*
X144504994Y-65771367D01*
X144504993Y-65771370D01*
X144443587Y-65960362D01*
X144430035Y-66045929D01*
X144412500Y-66156639D01*
X144412500Y-66355361D01*
X144419061Y-66396783D01*
X144443587Y-66551637D01*
X144504993Y-66740629D01*
X144504994Y-66740632D01*
X144576976Y-66881902D01*
X144595213Y-66917694D01*
X144712019Y-67078464D01*
X144852536Y-67218981D01*
X145013306Y-67335787D01*
X145049157Y-67354054D01*
X145190367Y-67426005D01*
X145190370Y-67426006D01*
X145284866Y-67456709D01*
X145379364Y-67487413D01*
X145575639Y-67518500D01*
X145575640Y-67518500D01*
X145774360Y-67518500D01*
X145774361Y-67518500D01*
X145970636Y-67487413D01*
X146159632Y-67426005D01*
X146336694Y-67335787D01*
X146497464Y-67218981D01*
X146637981Y-67078464D01*
X146754787Y-66917694D01*
X146845005Y-66740632D01*
X146906413Y-66551636D01*
X146937500Y-66355361D01*
X146937500Y-66156639D01*
X146906413Y-65960364D01*
X146845892Y-65774098D01*
X146845006Y-65771370D01*
X146845005Y-65771367D01*
X146783004Y-65649685D01*
X146754787Y-65594306D01*
X146637981Y-65433536D01*
X146497464Y-65293019D01*
X146336694Y-65176213D01*
X146180218Y-65096484D01*
X146129423Y-65048510D01*
X146112628Y-64980689D01*
X146135165Y-64914554D01*
X146180218Y-64875515D01*
X146336694Y-64795787D01*
X146497464Y-64678981D01*
X146637981Y-64538464D01*
X146754787Y-64377694D01*
X146845005Y-64200632D01*
X146906413Y-64011636D01*
X146937500Y-63815361D01*
X146937500Y-63616639D01*
X146906413Y-63420364D01*
X146861893Y-63283343D01*
X146855224Y-63262818D01*
X146853229Y-63192977D01*
X146889310Y-63133144D01*
X146952011Y-63102316D01*
X146973155Y-63100500D01*
X149113445Y-63100500D01*
X149144985Y-63109761D01*
G37*
%TD.AperFunction*%
%TA.AperFunction,NonConductor*%
G36*
X129315309Y-59256185D02*
G01*
X129352191Y-59293866D01*
X129352349Y-59293752D01*
X129353127Y-59294823D01*
X129354000Y-59295715D01*
X129355210Y-59297690D01*
X129355213Y-59297694D01*
X129472019Y-59458464D01*
X129612536Y-59598981D01*
X129773306Y-59715787D01*
X129876199Y-59768214D01*
X129929780Y-59795515D01*
X129980576Y-59843490D01*
X129997371Y-59911311D01*
X129974833Y-59977446D01*
X129929780Y-60016485D01*
X129773305Y-60096213D01*
X129612533Y-60213021D01*
X129472021Y-60353533D01*
X129355213Y-60514305D01*
X129264994Y-60691367D01*
X129264993Y-60691370D01*
X129203587Y-60880362D01*
X129172500Y-61076639D01*
X129172500Y-61275360D01*
X129203587Y-61471637D01*
X129264993Y-61660629D01*
X129264994Y-61660632D01*
X129324033Y-61776500D01*
X129355213Y-61837694D01*
X129472019Y-61998464D01*
X129612536Y-62138981D01*
X129773306Y-62255787D01*
X129830520Y-62284939D01*
X129929780Y-62335515D01*
X129980576Y-62383490D01*
X129997371Y-62451311D01*
X129974833Y-62517446D01*
X129929780Y-62556485D01*
X129773305Y-62636213D01*
X129612533Y-62753021D01*
X129472021Y-62893533D01*
X129355213Y-63054305D01*
X129264994Y-63231367D01*
X129264993Y-63231370D01*
X129203587Y-63420362D01*
X129172500Y-63616639D01*
X129172500Y-63815360D01*
X129203587Y-64011637D01*
X129264993Y-64200629D01*
X129264994Y-64200632D01*
X129324033Y-64316500D01*
X129355213Y-64377694D01*
X129472019Y-64538464D01*
X129612536Y-64678981D01*
X129773306Y-64795787D01*
X129882389Y-64851368D01*
X129929780Y-64875515D01*
X129980576Y-64923490D01*
X129997371Y-64991311D01*
X129974833Y-65057446D01*
X129929780Y-65096485D01*
X129773305Y-65176213D01*
X129612533Y-65293021D01*
X129472021Y-65433533D01*
X129355213Y-65594305D01*
X129264994Y-65771367D01*
X129264993Y-65771370D01*
X129203587Y-65960362D01*
X129190035Y-66045929D01*
X129172500Y-66156639D01*
X129172500Y-66355361D01*
X129179061Y-66396783D01*
X129203587Y-66551637D01*
X129264993Y-66740629D01*
X129264994Y-66740632D01*
X129336976Y-66881902D01*
X129355213Y-66917694D01*
X129472019Y-67078464D01*
X129612536Y-67218981D01*
X129773306Y-67335787D01*
X129809157Y-67354054D01*
X129950367Y-67426005D01*
X129950370Y-67426006D01*
X130044866Y-67456709D01*
X130139364Y-67487413D01*
X130335639Y-67518500D01*
X130335640Y-67518500D01*
X130534360Y-67518500D01*
X130534361Y-67518500D01*
X130730636Y-67487413D01*
X130919632Y-67426005D01*
X131096694Y-67335787D01*
X131257464Y-67218981D01*
X131397981Y-67078464D01*
X131514787Y-66917694D01*
X131605005Y-66740632D01*
X131666413Y-66551636D01*
X131697500Y-66355361D01*
X131697500Y-66156639D01*
X131695303Y-66142770D01*
X131704256Y-66073482D01*
X131749251Y-66020028D01*
X131816002Y-65999387D01*
X131883316Y-66018110D01*
X131905457Y-66035693D01*
X132850284Y-66980520D01*
X132850286Y-66980521D01*
X132850290Y-66980524D01*
X132987209Y-67059573D01*
X132987216Y-67059577D01*
X133139943Y-67100501D01*
X133139945Y-67100501D01*
X133305654Y-67100501D01*
X133305670Y-67100500D01*
X135349060Y-67100500D01*
X135416099Y-67120185D01*
X135436742Y-67136820D01*
X135489707Y-67189786D01*
X135489711Y-67189789D01*
X135620814Y-67277390D01*
X135620827Y-67277397D01*
X135761793Y-67335786D01*
X135766503Y-67337737D01*
X135848534Y-67354054D01*
X135921153Y-67368499D01*
X135921156Y-67368500D01*
X135921158Y-67368500D01*
X136078844Y-67368500D01*
X136078845Y-67368499D01*
X136233497Y-67337737D01*
X136379179Y-67277394D01*
X136510289Y-67189789D01*
X136621789Y-67078289D01*
X136709394Y-66947179D01*
X136769737Y-66801497D01*
X136800500Y-66646842D01*
X136800500Y-66489158D01*
X136795968Y-66466374D01*
X136802194Y-66396783D01*
X136845057Y-66341605D01*
X136910946Y-66318360D01*
X136978943Y-66334427D01*
X137005266Y-66354501D01*
X150538584Y-79887819D01*
X150572069Y-79949142D01*
X150567085Y-80018834D01*
X150525213Y-80074767D01*
X150459749Y-80099184D01*
X150450903Y-80099500D01*
X149512129Y-80099500D01*
X149512123Y-80099501D01*
X149452516Y-80105908D01*
X149317671Y-80156202D01*
X149317664Y-80156206D01*
X149202455Y-80242452D01*
X149202452Y-80242455D01*
X149116206Y-80357664D01*
X149116202Y-80357671D01*
X149065908Y-80492517D01*
X149059501Y-80552116D01*
X149059500Y-80552135D01*
X149059500Y-81975500D01*
X149039815Y-82042539D01*
X148987011Y-82088294D01*
X148935500Y-82099500D01*
X128488456Y-82099500D01*
X128421417Y-82079815D01*
X128375662Y-82027011D01*
X128365718Y-81957853D01*
X128370525Y-81937183D01*
X128406014Y-81827954D01*
X128406013Y-81827954D01*
X128406015Y-81827951D01*
X128440500Y-81610222D01*
X128440500Y-81389778D01*
X128406015Y-81172049D01*
X128357421Y-81022490D01*
X128337896Y-80962396D01*
X128337895Y-80962393D01*
X128303237Y-80894375D01*
X128237815Y-80765978D01*
X128204506Y-80720132D01*
X128108247Y-80587641D01*
X128108243Y-80587636D01*
X127952363Y-80431756D01*
X127952358Y-80431752D01*
X127774023Y-80302185D01*
X127708204Y-80268648D01*
X127657409Y-80220674D01*
X127640500Y-80158164D01*
X127640500Y-61370060D01*
X127640501Y-61370047D01*
X127640501Y-61201944D01*
X127604725Y-61068427D01*
X127600500Y-61036333D01*
X127600500Y-60300097D01*
X127620185Y-60233058D01*
X127636819Y-60212416D01*
X128576416Y-59272819D01*
X128637739Y-59239334D01*
X128664097Y-59236500D01*
X129248270Y-59236500D01*
X129315309Y-59256185D01*
G37*
%TD.AperFunction*%
%TA.AperFunction,NonConductor*%
G36*
X115355703Y-84371211D02*
G01*
X115377602Y-84396033D01*
X115454337Y-84510874D01*
X115475215Y-84577551D01*
X115475235Y-84579765D01*
X115475235Y-96374168D01*
X115466590Y-96403608D01*
X115460067Y-96433595D01*
X115456312Y-96438610D01*
X115455550Y-96441207D01*
X115438916Y-96461849D01*
X115362181Y-96538584D01*
X115300858Y-96572069D01*
X115231166Y-96567085D01*
X115175233Y-96525213D01*
X115150816Y-96459749D01*
X115150500Y-96450903D01*
X115150500Y-84464924D01*
X115170185Y-84397885D01*
X115222989Y-84352130D01*
X115292147Y-84342186D01*
X115355703Y-84371211D01*
G37*
%TD.AperFunction*%
%TA.AperFunction,NonConductor*%
G36*
X129243379Y-50178289D02*
G01*
X129310282Y-50198419D01*
X129355684Y-50251527D01*
X129365166Y-50320750D01*
X129353034Y-50358579D01*
X129264997Y-50531362D01*
X129264993Y-50531370D01*
X129203587Y-50720362D01*
X129203587Y-50720364D01*
X129172500Y-50916639D01*
X129172500Y-51115361D01*
X129188043Y-51213498D01*
X129203587Y-51311637D01*
X129264993Y-51500629D01*
X129264994Y-51500632D01*
X129339429Y-51646716D01*
X129355213Y-51677694D01*
X129472019Y-51838464D01*
X129612536Y-51978981D01*
X129773306Y-52095787D01*
X129802761Y-52110795D01*
X129929780Y-52175515D01*
X129980576Y-52223490D01*
X129997371Y-52291311D01*
X129974833Y-52357446D01*
X129929780Y-52396485D01*
X129773305Y-52476213D01*
X129612533Y-52593021D01*
X129472021Y-52733533D01*
X129355210Y-52894309D01*
X129354000Y-52896285D01*
X129353343Y-52896878D01*
X129352349Y-52898248D01*
X129352061Y-52898039D01*
X129302190Y-52943163D01*
X129248270Y-52955500D01*
X125530670Y-52955500D01*
X125530654Y-52955499D01*
X125523058Y-52955499D01*
X125364943Y-52955499D01*
X125288579Y-52975961D01*
X125212214Y-52996423D01*
X125212209Y-52996426D01*
X125075290Y-53075475D01*
X125075282Y-53075481D01*
X114962181Y-63188583D01*
X114900858Y-63222068D01*
X114831166Y-63217084D01*
X114775233Y-63175212D01*
X114750816Y-63109748D01*
X114750500Y-63100902D01*
X114750500Y-62881902D01*
X114713553Y-62648631D01*
X114657969Y-62477563D01*
X114640568Y-62424008D01*
X114640566Y-62424005D01*
X114640566Y-62424003D01*
X114554855Y-62255787D01*
X114533343Y-62213567D01*
X114394517Y-62022490D01*
X114227510Y-61855483D01*
X114036433Y-61716657D01*
X113825996Y-61609433D01*
X113601368Y-61536446D01*
X113368097Y-61499500D01*
X113368092Y-61499500D01*
X113131908Y-61499500D01*
X113131903Y-61499500D01*
X112898631Y-61536446D01*
X112674003Y-61609433D01*
X112463566Y-61716657D01*
X112381200Y-61776500D01*
X112272490Y-61855483D01*
X112272488Y-61855485D01*
X112272487Y-61855485D01*
X112105485Y-62022487D01*
X112105485Y-62022488D01*
X112105483Y-62022490D01*
X112045862Y-62104550D01*
X111966657Y-62213566D01*
X111906417Y-62331795D01*
X111858442Y-62382591D01*
X111795932Y-62399500D01*
X108204068Y-62399500D01*
X108137029Y-62379815D01*
X108093583Y-62331795D01*
X108054855Y-62255787D01*
X108033343Y-62213567D01*
X107894517Y-62022490D01*
X107727510Y-61855483D01*
X107536433Y-61716657D01*
X107325996Y-61609433D01*
X107101368Y-61536446D01*
X106868097Y-61499500D01*
X106868092Y-61499500D01*
X106631908Y-61499500D01*
X106631903Y-61499500D01*
X106398631Y-61536446D01*
X106174003Y-61609433D01*
X105963566Y-61716657D01*
X105881200Y-61776500D01*
X105772490Y-61855483D01*
X105772488Y-61855485D01*
X105772487Y-61855485D01*
X105605485Y-62022487D01*
X105605485Y-62022488D01*
X105605483Y-62022490D01*
X105545862Y-62104550D01*
X105466657Y-62213566D01*
X105359433Y-62424003D01*
X105286446Y-62648631D01*
X105249500Y-62881902D01*
X105249500Y-63118097D01*
X105286446Y-63351368D01*
X105359433Y-63575996D01*
X105439685Y-63733497D01*
X105466657Y-63786433D01*
X105605483Y-63977510D01*
X105772490Y-64144517D01*
X105963567Y-64283343D01*
X106062991Y-64334002D01*
X106174003Y-64390566D01*
X106174005Y-64390566D01*
X106174008Y-64390568D01*
X106271041Y-64422096D01*
X106398631Y-64463553D01*
X106631903Y-64500500D01*
X106631908Y-64500500D01*
X106868097Y-64500500D01*
X107101368Y-64463553D01*
X107134468Y-64452798D01*
X107325992Y-64390568D01*
X107536433Y-64283343D01*
X107727510Y-64144517D01*
X107894517Y-63977510D01*
X108033343Y-63786433D01*
X108093583Y-63668204D01*
X108141558Y-63617409D01*
X108204068Y-63600500D01*
X111795932Y-63600500D01*
X111862971Y-63620185D01*
X111906416Y-63668203D01*
X111966657Y-63786433D01*
X112105483Y-63977510D01*
X112272490Y-64144517D01*
X112463567Y-64283343D01*
X112562991Y-64334002D01*
X112674003Y-64390566D01*
X112674005Y-64390566D01*
X112674008Y-64390568D01*
X112771041Y-64422096D01*
X112898631Y-64463553D01*
X113131903Y-64500500D01*
X113131908Y-64500500D01*
X113368097Y-64500500D01*
X113474126Y-64483705D01*
X113601368Y-64463553D01*
X113727566Y-64422547D01*
X113742776Y-64422113D01*
X113757036Y-64416795D01*
X113776991Y-64421136D01*
X113797404Y-64420553D01*
X113811490Y-64428640D01*
X113825309Y-64431647D01*
X113853563Y-64452798D01*
X113913181Y-64512416D01*
X113946666Y-64573739D01*
X113949500Y-64600097D01*
X113949500Y-65978890D01*
X113929815Y-66045929D01*
X113877011Y-66091684D01*
X113807853Y-66101628D01*
X113787182Y-66096821D01*
X113601370Y-66036447D01*
X113368097Y-65999500D01*
X113368092Y-65999500D01*
X113131908Y-65999500D01*
X113131903Y-65999500D01*
X112898631Y-66036446D01*
X112674003Y-66109433D01*
X112463566Y-66216657D01*
X112354550Y-66295862D01*
X112272490Y-66355483D01*
X112272488Y-66355485D01*
X112272487Y-66355485D01*
X112105485Y-66522487D01*
X112105485Y-66522488D01*
X112105483Y-66522490D01*
X112045862Y-66604550D01*
X111966657Y-66713566D01*
X111934060Y-66777540D01*
X111921859Y-66801489D01*
X111906417Y-66831795D01*
X111858442Y-66882591D01*
X111795932Y-66899500D01*
X108204068Y-66899500D01*
X108137029Y-66879815D01*
X108093583Y-66831795D01*
X108033343Y-66713567D01*
X107894517Y-66522490D01*
X107727510Y-66355483D01*
X107536433Y-66216657D01*
X107481802Y-66188821D01*
X107325996Y-66109433D01*
X107101368Y-66036446D01*
X106868097Y-65999500D01*
X106868092Y-65999500D01*
X106631908Y-65999500D01*
X106631903Y-65999500D01*
X106398631Y-66036446D01*
X106174003Y-66109433D01*
X105963566Y-66216657D01*
X105854550Y-66295862D01*
X105772490Y-66355483D01*
X105772488Y-66355485D01*
X105772487Y-66355485D01*
X105605485Y-66522487D01*
X105605485Y-66522488D01*
X105605483Y-66522490D01*
X105545862Y-66604550D01*
X105466657Y-66713566D01*
X105359433Y-66924003D01*
X105286446Y-67148631D01*
X105249500Y-67381902D01*
X105249500Y-67618097D01*
X105286446Y-67851368D01*
X105359433Y-68075996D01*
X105428772Y-68212080D01*
X105466657Y-68286433D01*
X105605483Y-68477510D01*
X105772490Y-68644517D01*
X105963567Y-68783343D01*
X106050499Y-68827637D01*
X106174003Y-68890566D01*
X106174005Y-68890566D01*
X106174008Y-68890568D01*
X106294412Y-68929689D01*
X106398631Y-68963553D01*
X106631903Y-69000500D01*
X106631908Y-69000500D01*
X106868097Y-69000500D01*
X107101368Y-68963553D01*
X107325992Y-68890568D01*
X107536433Y-68783343D01*
X107727510Y-68644517D01*
X107894517Y-68477510D01*
X108033343Y-68286433D01*
X108093583Y-68168204D01*
X108141558Y-68117409D01*
X108204068Y-68100500D01*
X111795932Y-68100500D01*
X111862971Y-68120185D01*
X111906416Y-68168203D01*
X111966657Y-68286433D01*
X112105483Y-68477510D01*
X112272490Y-68644517D01*
X112463567Y-68783343D01*
X112550499Y-68827637D01*
X112674003Y-68890566D01*
X112674005Y-68890566D01*
X112674008Y-68890568D01*
X112794412Y-68929689D01*
X112898631Y-68963553D01*
X113131903Y-69000500D01*
X113131908Y-69000500D01*
X113368097Y-69000500D01*
X113601368Y-68963553D01*
X113787182Y-68903177D01*
X113857022Y-68901183D01*
X113916855Y-68937263D01*
X113947684Y-68999964D01*
X113949500Y-69021109D01*
X113949500Y-80597394D01*
X113929815Y-80664433D01*
X113877011Y-80710188D01*
X113807853Y-80720132D01*
X113769205Y-80707879D01*
X113575996Y-80609433D01*
X113351368Y-80536446D01*
X113118097Y-80499500D01*
X113118092Y-80499500D01*
X112881908Y-80499500D01*
X112881903Y-80499500D01*
X112648631Y-80536446D01*
X112424003Y-80609433D01*
X112213566Y-80716657D01*
X112104550Y-80795862D01*
X112022490Y-80855483D01*
X112022488Y-80855485D01*
X112022487Y-80855485D01*
X111855485Y-81022487D01*
X111855485Y-81022488D01*
X111855483Y-81022490D01*
X111795862Y-81104550D01*
X111716657Y-81213566D01*
X111656417Y-81331795D01*
X111608442Y-81382591D01*
X111545932Y-81399500D01*
X107954068Y-81399500D01*
X107887029Y-81379815D01*
X107843583Y-81331795D01*
X107783343Y-81213567D01*
X107644517Y-81022490D01*
X107477510Y-80855483D01*
X107286433Y-80716657D01*
X107225706Y-80685715D01*
X107075996Y-80609433D01*
X106851368Y-80536446D01*
X106618097Y-80499500D01*
X106618092Y-80499500D01*
X106381908Y-80499500D01*
X106381903Y-80499500D01*
X106148631Y-80536446D01*
X105924003Y-80609433D01*
X105713566Y-80716657D01*
X105604550Y-80795862D01*
X105522490Y-80855483D01*
X105522488Y-80855485D01*
X105522487Y-80855485D01*
X105355485Y-81022487D01*
X105355485Y-81022488D01*
X105355483Y-81022490D01*
X105295862Y-81104550D01*
X105216657Y-81213566D01*
X105109433Y-81424003D01*
X105036446Y-81648631D01*
X104999500Y-81881902D01*
X104999500Y-82118097D01*
X105036446Y-82351368D01*
X105109433Y-82575996D01*
X105170307Y-82695466D01*
X105216657Y-82786433D01*
X105355483Y-82977510D01*
X105522490Y-83144517D01*
X105713567Y-83283343D01*
X105755157Y-83304534D01*
X105924003Y-83390566D01*
X105924005Y-83390566D01*
X105924008Y-83390568D01*
X106044412Y-83429689D01*
X106148631Y-83463553D01*
X106381903Y-83500500D01*
X106381908Y-83500500D01*
X106618097Y-83500500D01*
X106851368Y-83463553D01*
X107075992Y-83390568D01*
X107286433Y-83283343D01*
X107477510Y-83144517D01*
X107644517Y-82977510D01*
X107783343Y-82786433D01*
X107843583Y-82668204D01*
X107891558Y-82617409D01*
X107954068Y-82600500D01*
X111545932Y-82600500D01*
X111612971Y-82620185D01*
X111656416Y-82668203D01*
X111716657Y-82786433D01*
X111855483Y-82977510D01*
X112022490Y-83144517D01*
X112213567Y-83283343D01*
X112255157Y-83304534D01*
X112424003Y-83390566D01*
X112424005Y-83390566D01*
X112424008Y-83390568D01*
X112544412Y-83429689D01*
X112648631Y-83463553D01*
X112881903Y-83500500D01*
X112881908Y-83500500D01*
X113118097Y-83500500D01*
X113351368Y-83463553D01*
X113575992Y-83390568D01*
X113769208Y-83292119D01*
X113837874Y-83279224D01*
X113902614Y-83305500D01*
X113942872Y-83362606D01*
X113949500Y-83402605D01*
X113949500Y-85097394D01*
X113929815Y-85164433D01*
X113877011Y-85210188D01*
X113807853Y-85220132D01*
X113769205Y-85207879D01*
X113575996Y-85109433D01*
X113351368Y-85036446D01*
X113118097Y-84999500D01*
X113118092Y-84999500D01*
X112881908Y-84999500D01*
X112881903Y-84999500D01*
X112648631Y-85036446D01*
X112424003Y-85109433D01*
X112213566Y-85216657D01*
X112104550Y-85295862D01*
X112022490Y-85355483D01*
X112022488Y-85355485D01*
X112022487Y-85355485D01*
X111855485Y-85522487D01*
X111855485Y-85522488D01*
X111855483Y-85522490D01*
X111795862Y-85604550D01*
X111716657Y-85713566D01*
X111656417Y-85831795D01*
X111608442Y-85882591D01*
X111545932Y-85899500D01*
X107954068Y-85899500D01*
X107887029Y-85879815D01*
X107843583Y-85831795D01*
X107783343Y-85713567D01*
X107644517Y-85522490D01*
X107477510Y-85355483D01*
X107286433Y-85216657D01*
X107269205Y-85207879D01*
X107075996Y-85109433D01*
X106851368Y-85036446D01*
X106618097Y-84999500D01*
X106618092Y-84999500D01*
X106381908Y-84999500D01*
X106381903Y-84999500D01*
X106148631Y-85036446D01*
X105924003Y-85109433D01*
X105713566Y-85216657D01*
X105604550Y-85295862D01*
X105522490Y-85355483D01*
X105522488Y-85355485D01*
X105522487Y-85355485D01*
X105355485Y-85522487D01*
X105355485Y-85522488D01*
X105355483Y-85522490D01*
X105295862Y-85604550D01*
X105216657Y-85713566D01*
X105109433Y-85924003D01*
X105036446Y-86148631D01*
X104999500Y-86381902D01*
X104999500Y-86618097D01*
X105036446Y-86851368D01*
X105109433Y-87075996D01*
X105216657Y-87286433D01*
X105355483Y-87477510D01*
X105522490Y-87644517D01*
X105713567Y-87783343D01*
X105812991Y-87834002D01*
X105924003Y-87890566D01*
X105924005Y-87890566D01*
X105924008Y-87890568D01*
X106044412Y-87929689D01*
X106148631Y-87963553D01*
X106381903Y-88000500D01*
X106381908Y-88000500D01*
X106618097Y-88000500D01*
X106851368Y-87963553D01*
X107075992Y-87890568D01*
X107286433Y-87783343D01*
X107477510Y-87644517D01*
X107644517Y-87477510D01*
X107783343Y-87286433D01*
X107843583Y-87168204D01*
X107891558Y-87117409D01*
X107954068Y-87100500D01*
X111545932Y-87100500D01*
X111612971Y-87120185D01*
X111656416Y-87168203D01*
X111716657Y-87286433D01*
X111855483Y-87477510D01*
X112022490Y-87644517D01*
X112213567Y-87783343D01*
X112312991Y-87834002D01*
X112424003Y-87890566D01*
X112424005Y-87890566D01*
X112424008Y-87890568D01*
X112544412Y-87929689D01*
X112648631Y-87963553D01*
X112881903Y-88000500D01*
X112881908Y-88000500D01*
X113118097Y-88000500D01*
X113351368Y-87963553D01*
X113575992Y-87890568D01*
X113769208Y-87792119D01*
X113837874Y-87779224D01*
X113902614Y-87805500D01*
X113942872Y-87862606D01*
X113949500Y-87902605D01*
X113949500Y-97899902D01*
X113929815Y-97966941D01*
X113913181Y-97987583D01*
X113603563Y-98297200D01*
X113542240Y-98330685D01*
X113477564Y-98327450D01*
X113351370Y-98286447D01*
X113118097Y-98249500D01*
X113118092Y-98249500D01*
X112881908Y-98249500D01*
X112881903Y-98249500D01*
X112648631Y-98286446D01*
X112424003Y-98359433D01*
X112213566Y-98466657D01*
X112104550Y-98545862D01*
X112022490Y-98605483D01*
X112022488Y-98605485D01*
X112022487Y-98605485D01*
X111855485Y-98772487D01*
X111855485Y-98772488D01*
X111855483Y-98772490D01*
X111795862Y-98854550D01*
X111716657Y-98963566D01*
X111699106Y-98998013D01*
X111658855Y-99077011D01*
X111656417Y-99081795D01*
X111608442Y-99132591D01*
X111545932Y-99149500D01*
X107954068Y-99149500D01*
X107887029Y-99129815D01*
X107843583Y-99081795D01*
X107783343Y-98963567D01*
X107644517Y-98772490D01*
X107477510Y-98605483D01*
X107286433Y-98466657D01*
X107075996Y-98359433D01*
X106851368Y-98286446D01*
X106618097Y-98249500D01*
X106618092Y-98249500D01*
X106381908Y-98249500D01*
X106381903Y-98249500D01*
X106148631Y-98286446D01*
X105924003Y-98359433D01*
X105713566Y-98466657D01*
X105604550Y-98545862D01*
X105522490Y-98605483D01*
X105522488Y-98605485D01*
X105522487Y-98605485D01*
X105355485Y-98772487D01*
X105355485Y-98772488D01*
X105355483Y-98772490D01*
X105295862Y-98854550D01*
X105216657Y-98963566D01*
X105109433Y-99174003D01*
X105036446Y-99398631D01*
X104999500Y-99631902D01*
X104999500Y-99868097D01*
X105036446Y-100101368D01*
X105109433Y-100325996D01*
X105193411Y-100490811D01*
X105216657Y-100536433D01*
X105355483Y-100727510D01*
X105522490Y-100894517D01*
X105713567Y-101033343D01*
X105812991Y-101084002D01*
X105924003Y-101140566D01*
X105924005Y-101140566D01*
X105924008Y-101140568D01*
X106044412Y-101179689D01*
X106148631Y-101213553D01*
X106381903Y-101250500D01*
X106381908Y-101250500D01*
X106618097Y-101250500D01*
X106851368Y-101213553D01*
X107075992Y-101140568D01*
X107286433Y-101033343D01*
X107477510Y-100894517D01*
X107644517Y-100727510D01*
X107783343Y-100536433D01*
X107843583Y-100418204D01*
X107891558Y-100367409D01*
X107954068Y-100350500D01*
X111545932Y-100350500D01*
X111612971Y-100370185D01*
X111656416Y-100418203D01*
X111716657Y-100536433D01*
X111855483Y-100727510D01*
X112022490Y-100894517D01*
X112213567Y-101033343D01*
X112312991Y-101084002D01*
X112424003Y-101140566D01*
X112424005Y-101140566D01*
X112424008Y-101140568D01*
X112544412Y-101179689D01*
X112648631Y-101213553D01*
X112881903Y-101250500D01*
X112881908Y-101250500D01*
X113118097Y-101250500D01*
X113351368Y-101213553D01*
X113575992Y-101140568D01*
X113786433Y-101033343D01*
X113977510Y-100894517D01*
X114144517Y-100727510D01*
X114283343Y-100536433D01*
X114343583Y-100418204D01*
X114391558Y-100367409D01*
X114454068Y-100350500D01*
X129353331Y-100350500D01*
X129353347Y-100350501D01*
X129360943Y-100350501D01*
X129519054Y-100350501D01*
X129519057Y-100350501D01*
X129671785Y-100309577D01*
X129721904Y-100280639D01*
X129808716Y-100230520D01*
X129920520Y-100118716D01*
X129920520Y-100118714D01*
X129930728Y-100108507D01*
X129930730Y-100108504D01*
X134248416Y-95790818D01*
X134309739Y-95757333D01*
X134336097Y-95754499D01*
X135491871Y-95754499D01*
X135491872Y-95754499D01*
X135551483Y-95748091D01*
X135686331Y-95697796D01*
X135801546Y-95611546D01*
X135887796Y-95496331D01*
X135938091Y-95361483D01*
X135944500Y-95301873D01*
X135944499Y-95246574D01*
X135964182Y-95179538D01*
X136016986Y-95133783D01*
X136086144Y-95123838D01*
X136149700Y-95152862D01*
X136168817Y-95173691D01*
X136273115Y-95317245D01*
X136273119Y-95317250D01*
X136412753Y-95456884D01*
X136562234Y-95565486D01*
X136572499Y-95572944D01*
X136748439Y-95662591D01*
X136873637Y-95703270D01*
X136936236Y-95723610D01*
X137131264Y-95754500D01*
X137131269Y-95754500D01*
X137328736Y-95754500D01*
X137523763Y-95723610D01*
X137711561Y-95662591D01*
X137887501Y-95572944D01*
X137992955Y-95496328D01*
X138047246Y-95456884D01*
X138047248Y-95456881D01*
X138047252Y-95456879D01*
X138186879Y-95317252D01*
X138186881Y-95317248D01*
X138186884Y-95317246D01*
X138302941Y-95157505D01*
X138302942Y-95157504D01*
X138302944Y-95157501D01*
X138389517Y-94987593D01*
X138437490Y-94936800D01*
X138505311Y-94920005D01*
X138571446Y-94942542D01*
X138610482Y-94987593D01*
X138683614Y-95131120D01*
X138697058Y-95157505D01*
X138813115Y-95317246D01*
X138952753Y-95456884D01*
X139102234Y-95565486D01*
X139112499Y-95572944D01*
X139288439Y-95662591D01*
X139413637Y-95703270D01*
X139476236Y-95723610D01*
X139671264Y-95754500D01*
X139671269Y-95754500D01*
X139868736Y-95754500D01*
X140063763Y-95723610D01*
X140251561Y-95662591D01*
X140427501Y-95572944D01*
X140532955Y-95496328D01*
X140587246Y-95456884D01*
X140587248Y-95456881D01*
X140587252Y-95456879D01*
X140726879Y-95317252D01*
X140726881Y-95317248D01*
X140726884Y-95317246D01*
X140842941Y-95157505D01*
X140842942Y-95157504D01*
X140842944Y-95157501D01*
X140929517Y-94987593D01*
X140977490Y-94936800D01*
X141045311Y-94920005D01*
X141111446Y-94942542D01*
X141150482Y-94987593D01*
X141223614Y-95131120D01*
X141237058Y-95157505D01*
X141353115Y-95317246D01*
X141492753Y-95456884D01*
X141642234Y-95565486D01*
X141652499Y-95572944D01*
X141828439Y-95662591D01*
X141953637Y-95703270D01*
X142016236Y-95723610D01*
X142211264Y-95754500D01*
X142211269Y-95754500D01*
X142408736Y-95754500D01*
X142603763Y-95723610D01*
X142791561Y-95662591D01*
X142967501Y-95572944D01*
X143072955Y-95496328D01*
X143127246Y-95456884D01*
X143127248Y-95456881D01*
X143127252Y-95456879D01*
X143266879Y-95317252D01*
X143266881Y-95317248D01*
X143266884Y-95317246D01*
X143371181Y-95173691D01*
X143382944Y-95157501D01*
X143472591Y-94981561D01*
X143509206Y-94868872D01*
X147499500Y-94868872D01*
X147499500Y-95131127D01*
X147521982Y-95301883D01*
X147533730Y-95391116D01*
X147592794Y-95611546D01*
X147601602Y-95644418D01*
X147601605Y-95644428D01*
X147701953Y-95886690D01*
X147701958Y-95886700D01*
X147833075Y-96113803D01*
X147992718Y-96321851D01*
X147992726Y-96321860D01*
X148178140Y-96507274D01*
X148178148Y-96507281D01*
X148386196Y-96666924D01*
X148613299Y-96798041D01*
X148613309Y-96798046D01*
X148855571Y-96898394D01*
X148855581Y-96898398D01*
X149108884Y-96966270D01*
X149368880Y-97000500D01*
X149368887Y-97000500D01*
X149631113Y-97000500D01*
X149631120Y-97000500D01*
X149891116Y-96966270D01*
X150144419Y-96898398D01*
X150386697Y-96798043D01*
X150613803Y-96666924D01*
X150821851Y-96507282D01*
X150821855Y-96507277D01*
X150821860Y-96507274D01*
X151007274Y-96321860D01*
X151007277Y-96321855D01*
X151007282Y-96321851D01*
X151166924Y-96113803D01*
X151298043Y-95886697D01*
X151398398Y-95644419D01*
X151466270Y-95391116D01*
X151500500Y-95131120D01*
X151500500Y-94868880D01*
X151466270Y-94608884D01*
X151398398Y-94355581D01*
X151336538Y-94206237D01*
X151298046Y-94113309D01*
X151298041Y-94113299D01*
X151166924Y-93886196D01*
X151022613Y-93698129D01*
X151007282Y-93678149D01*
X151007281Y-93678148D01*
X151007274Y-93678140D01*
X150821860Y-93492726D01*
X150821851Y-93492718D01*
X150613803Y-93333075D01*
X150386700Y-93201958D01*
X150386690Y-93201953D01*
X150144428Y-93101605D01*
X150144421Y-93101603D01*
X150144419Y-93101602D01*
X149891116Y-93033730D01*
X149833339Y-93026123D01*
X149631127Y-92999500D01*
X149631120Y-92999500D01*
X149368880Y-92999500D01*
X149368872Y-92999500D01*
X149137772Y-93029926D01*
X149108884Y-93033730D01*
X148890192Y-93092328D01*
X148855581Y-93101602D01*
X148855571Y-93101605D01*
X148613309Y-93201953D01*
X148613299Y-93201958D01*
X148386196Y-93333075D01*
X148178148Y-93492718D01*
X147992718Y-93678148D01*
X147833075Y-93886196D01*
X147701958Y-94113299D01*
X147701953Y-94113309D01*
X147601605Y-94355571D01*
X147601602Y-94355581D01*
X147536451Y-94598731D01*
X147533730Y-94608885D01*
X147499500Y-94868872D01*
X143509206Y-94868872D01*
X143533610Y-94793763D01*
X143542435Y-94738039D01*
X143564500Y-94598736D01*
X143564500Y-94401263D01*
X143533610Y-94206236D01*
X143485268Y-94057456D01*
X143472591Y-94018439D01*
X143382944Y-93842499D01*
X143338634Y-93781511D01*
X143266884Y-93682753D01*
X143127246Y-93543115D01*
X142967504Y-93427058D01*
X142967503Y-93427057D01*
X142967501Y-93427056D01*
X142791561Y-93337409D01*
X142791558Y-93337408D01*
X142603763Y-93276389D01*
X142408736Y-93245500D01*
X142408731Y-93245500D01*
X142211269Y-93245500D01*
X142211264Y-93245500D01*
X142016236Y-93276389D01*
X141828441Y-93337408D01*
X141652495Y-93427058D01*
X141492753Y-93543115D01*
X141353115Y-93682753D01*
X141237058Y-93842495D01*
X141237056Y-93842499D01*
X141156922Y-93999770D01*
X141150485Y-94012403D01*
X141102510Y-94063199D01*
X141034689Y-94079994D01*
X140968554Y-94057456D01*
X140929515Y-94012403D01*
X140842944Y-93842499D01*
X140798634Y-93781511D01*
X140726884Y-93682753D01*
X140587246Y-93543115D01*
X140427504Y-93427058D01*
X140427503Y-93427057D01*
X140427501Y-93427056D01*
X140251561Y-93337409D01*
X140251558Y-93337408D01*
X140063763Y-93276389D01*
X139868736Y-93245500D01*
X139868731Y-93245500D01*
X139671269Y-93245500D01*
X139671264Y-93245500D01*
X139476236Y-93276389D01*
X139288441Y-93337408D01*
X139112495Y-93427058D01*
X138952753Y-93543115D01*
X138813115Y-93682753D01*
X138697058Y-93842495D01*
X138697056Y-93842499D01*
X138616922Y-93999770D01*
X138610485Y-94012403D01*
X138562510Y-94063199D01*
X138494689Y-94079994D01*
X138428554Y-94057456D01*
X138389515Y-94012403D01*
X138302944Y-93842499D01*
X138258634Y-93781511D01*
X138186884Y-93682753D01*
X138047246Y-93543115D01*
X137887504Y-93427058D01*
X137887503Y-93427057D01*
X137887501Y-93427056D01*
X137711561Y-93337409D01*
X137711558Y-93337408D01*
X137523763Y-93276389D01*
X137328736Y-93245500D01*
X137328731Y-93245500D01*
X137131269Y-93245500D01*
X137131264Y-93245500D01*
X136936236Y-93276389D01*
X136748441Y-93337408D01*
X136572495Y-93427058D01*
X136412753Y-93543115D01*
X136273119Y-93682749D01*
X136273115Y-93682754D01*
X136168817Y-93826310D01*
X136113488Y-93868976D01*
X136043874Y-93874955D01*
X135982079Y-93842350D01*
X135947722Y-93781511D01*
X135944499Y-93753425D01*
X135944499Y-93698129D01*
X135944498Y-93698123D01*
X135944497Y-93698116D01*
X135938091Y-93638517D01*
X135902508Y-93543115D01*
X135887797Y-93503671D01*
X135887793Y-93503664D01*
X135801547Y-93388455D01*
X135801544Y-93388452D01*
X135686335Y-93302206D01*
X135686328Y-93302202D01*
X135551482Y-93251908D01*
X135551483Y-93251908D01*
X135491883Y-93245501D01*
X135491881Y-93245500D01*
X135491873Y-93245500D01*
X135491864Y-93245500D01*
X133888129Y-93245500D01*
X133888123Y-93245501D01*
X133828516Y-93251908D01*
X133693671Y-93302202D01*
X133693664Y-93302206D01*
X133578455Y-93388452D01*
X133578452Y-93388455D01*
X133492206Y-93503664D01*
X133492202Y-93503671D01*
X133441908Y-93638517D01*
X133435501Y-93698116D01*
X133435501Y-93698123D01*
X133435500Y-93698135D01*
X133435500Y-94853902D01*
X133415815Y-94920941D01*
X133399181Y-94941583D01*
X129227584Y-99113181D01*
X129166261Y-99146666D01*
X129139903Y-99149500D01*
X114749097Y-99149500D01*
X114682058Y-99129815D01*
X114636303Y-99077011D01*
X114626359Y-99007853D01*
X114655384Y-98944297D01*
X114661407Y-98937826D01*
X114918713Y-98680521D01*
X114918716Y-98680520D01*
X115030520Y-98568716D01*
X115030521Y-98568713D01*
X116434241Y-97164993D01*
X116434246Y-97164989D01*
X116444449Y-97154785D01*
X116444451Y-97154785D01*
X116556255Y-97042981D01*
X116621595Y-96929808D01*
X116635312Y-96906050D01*
X116676235Y-96753322D01*
X116676235Y-96595208D01*
X116676235Y-94868872D01*
X125499500Y-94868872D01*
X125499500Y-95131127D01*
X125521982Y-95301883D01*
X125533730Y-95391116D01*
X125592794Y-95611546D01*
X125601602Y-95644418D01*
X125601605Y-95644428D01*
X125701953Y-95886690D01*
X125701958Y-95886700D01*
X125833075Y-96113803D01*
X125992718Y-96321851D01*
X125992726Y-96321860D01*
X126178140Y-96507274D01*
X126178148Y-96507281D01*
X126386196Y-96666924D01*
X126613299Y-96798041D01*
X126613309Y-96798046D01*
X126855571Y-96898394D01*
X126855581Y-96898398D01*
X127108884Y-96966270D01*
X127368880Y-97000500D01*
X127368887Y-97000500D01*
X127631113Y-97000500D01*
X127631120Y-97000500D01*
X127891116Y-96966270D01*
X128144419Y-96898398D01*
X128386697Y-96798043D01*
X128613803Y-96666924D01*
X128821851Y-96507282D01*
X128821855Y-96507277D01*
X128821860Y-96507274D01*
X129007274Y-96321860D01*
X129007277Y-96321855D01*
X129007282Y-96321851D01*
X129166924Y-96113803D01*
X129298043Y-95886697D01*
X129398398Y-95644419D01*
X129466270Y-95391116D01*
X129500500Y-95131120D01*
X129500500Y-94868880D01*
X129466270Y-94608884D01*
X129398398Y-94355581D01*
X129336538Y-94206237D01*
X129298046Y-94113309D01*
X129298041Y-94113299D01*
X129166924Y-93886196D01*
X129022613Y-93698129D01*
X129007282Y-93678149D01*
X129007281Y-93678148D01*
X129007274Y-93678140D01*
X128821860Y-93492726D01*
X128821851Y-93492718D01*
X128613803Y-93333075D01*
X128386700Y-93201958D01*
X128386690Y-93201953D01*
X128144428Y-93101605D01*
X128144421Y-93101603D01*
X128144419Y-93101602D01*
X127891116Y-93033730D01*
X127833339Y-93026123D01*
X127631127Y-92999500D01*
X127631120Y-92999500D01*
X127368880Y-92999500D01*
X127368872Y-92999500D01*
X127137772Y-93029926D01*
X127108884Y-93033730D01*
X126890192Y-93092328D01*
X126855581Y-93101602D01*
X126855571Y-93101605D01*
X126613309Y-93201953D01*
X126613299Y-93201958D01*
X126386196Y-93333075D01*
X126178148Y-93492718D01*
X125992718Y-93678148D01*
X125833075Y-93886196D01*
X125701958Y-94113299D01*
X125701953Y-94113309D01*
X125601605Y-94355571D01*
X125601602Y-94355581D01*
X125536451Y-94598731D01*
X125533730Y-94608885D01*
X125499500Y-94868872D01*
X116676235Y-94868872D01*
X116676235Y-84579765D01*
X116695920Y-84512726D01*
X116697133Y-84510874D01*
X116773868Y-84396033D01*
X116785129Y-84379179D01*
X116788430Y-84371211D01*
X116845470Y-84233501D01*
X116845472Y-84233497D01*
X116876235Y-84078842D01*
X116876235Y-83921158D01*
X116876235Y-83921155D01*
X116876234Y-83921153D01*
X116845472Y-83766503D01*
X116810310Y-83681613D01*
X116785132Y-83620827D01*
X116785125Y-83620814D01*
X116697524Y-83489711D01*
X116697521Y-83489707D01*
X116586027Y-83378213D01*
X116586023Y-83378210D01*
X116454920Y-83290609D01*
X116454907Y-83290602D01*
X116309236Y-83230264D01*
X116309224Y-83230261D01*
X116154580Y-83199500D01*
X116154577Y-83199500D01*
X115996893Y-83199500D01*
X115996890Y-83199500D01*
X115842245Y-83230261D01*
X115842233Y-83230264D01*
X115696562Y-83290602D01*
X115696549Y-83290609D01*
X115565446Y-83378210D01*
X115565442Y-83378213D01*
X115453948Y-83489707D01*
X115453945Y-83489711D01*
X115377602Y-83603966D01*
X115323989Y-83648771D01*
X115254664Y-83657478D01*
X115191637Y-83627323D01*
X115154918Y-83567880D01*
X115150500Y-83535075D01*
X115150500Y-64750097D01*
X115170185Y-64683058D01*
X115186819Y-64662416D01*
X125656417Y-54192819D01*
X125717740Y-54159334D01*
X125744098Y-54156500D01*
X129248270Y-54156500D01*
X129315309Y-54176185D01*
X129352191Y-54213866D01*
X129352349Y-54213752D01*
X129353127Y-54214823D01*
X129354000Y-54215715D01*
X129355210Y-54217690D01*
X129355213Y-54217694D01*
X129472019Y-54378464D01*
X129612536Y-54518981D01*
X129773306Y-54635787D01*
X129891832Y-54696179D01*
X129929780Y-54715515D01*
X129980576Y-54763490D01*
X129997371Y-54831311D01*
X129974833Y-54897446D01*
X129929780Y-54936485D01*
X129773305Y-55016213D01*
X129612533Y-55133021D01*
X129472021Y-55273533D01*
X129355213Y-55434305D01*
X129264994Y-55611367D01*
X129264993Y-55611370D01*
X129203587Y-55800362D01*
X129172500Y-55996639D01*
X129172500Y-56195360D01*
X129203587Y-56391637D01*
X129264993Y-56580629D01*
X129264994Y-56580632D01*
X129307245Y-56663552D01*
X129355213Y-56757694D01*
X129472019Y-56918464D01*
X129612536Y-57058981D01*
X129773306Y-57175787D01*
X129879993Y-57230147D01*
X129929780Y-57255515D01*
X129980576Y-57303490D01*
X129997371Y-57371311D01*
X129974833Y-57437446D01*
X129929780Y-57476485D01*
X129773305Y-57556213D01*
X129612533Y-57673021D01*
X129472021Y-57813533D01*
X129355210Y-57974309D01*
X129354000Y-57976285D01*
X129353343Y-57976878D01*
X129352349Y-57978248D01*
X129352061Y-57978039D01*
X129302190Y-58023163D01*
X129248270Y-58035500D01*
X128284942Y-58035500D01*
X128132214Y-58076423D01*
X128088000Y-58101951D01*
X128087999Y-58101951D01*
X127995287Y-58155477D01*
X127995282Y-58155481D01*
X126519481Y-59631282D01*
X126519479Y-59631285D01*
X126480935Y-59698047D01*
X126480934Y-59698049D01*
X126440423Y-59768214D01*
X126440423Y-59768215D01*
X126399499Y-59920943D01*
X126399499Y-59920945D01*
X126399499Y-60089046D01*
X126399500Y-60089059D01*
X126399500Y-61154330D01*
X126399499Y-61154348D01*
X126399499Y-61161943D01*
X126399499Y-61320057D01*
X126420786Y-61399499D01*
X126435275Y-61453572D01*
X126439500Y-61485666D01*
X126439500Y-80158164D01*
X126419815Y-80225203D01*
X126371796Y-80268648D01*
X126305976Y-80302185D01*
X126127641Y-80431752D01*
X126127636Y-80431756D01*
X126077463Y-80481929D01*
X126016140Y-80515413D01*
X125946448Y-80510428D01*
X125890515Y-80468557D01*
X125873601Y-80437580D01*
X125843797Y-80357671D01*
X125843793Y-80357664D01*
X125757547Y-80242455D01*
X125757544Y-80242452D01*
X125642335Y-80156206D01*
X125642328Y-80156202D01*
X125507482Y-80105908D01*
X125507483Y-80105908D01*
X125447883Y-80099501D01*
X125447881Y-80099500D01*
X125447873Y-80099500D01*
X125447864Y-80099500D01*
X123552129Y-80099500D01*
X123552123Y-80099501D01*
X123492516Y-80105908D01*
X123357671Y-80156202D01*
X123357664Y-80156206D01*
X123242455Y-80242452D01*
X123242452Y-80242455D01*
X123156206Y-80357664D01*
X123156202Y-80357671D01*
X123105908Y-80492517D01*
X123099501Y-80552116D01*
X123099500Y-80552135D01*
X123099500Y-82447870D01*
X123099501Y-82447876D01*
X123105908Y-82507483D01*
X123156202Y-82642328D01*
X123156206Y-82642335D01*
X123242452Y-82757544D01*
X123242455Y-82757547D01*
X123357664Y-82843793D01*
X123357671Y-82843797D01*
X123492517Y-82894091D01*
X123492516Y-82894091D01*
X123499444Y-82894835D01*
X123552127Y-82900500D01*
X124999902Y-82900499D01*
X125029342Y-82909143D01*
X125059329Y-82915667D01*
X125064344Y-82919421D01*
X125066941Y-82920184D01*
X125087582Y-82936817D01*
X125215139Y-83064374D01*
X125215149Y-83064385D01*
X125219479Y-83068715D01*
X125219480Y-83068716D01*
X125331284Y-83180520D01*
X125417442Y-83230263D01*
X125468215Y-83259577D01*
X125620942Y-83300500D01*
X125620943Y-83300500D01*
X149173331Y-83300500D01*
X149173347Y-83300501D01*
X149180943Y-83300501D01*
X149339054Y-83300501D01*
X149339057Y-83300501D01*
X149491785Y-83259577D01*
X149542558Y-83230263D01*
X149628716Y-83180520D01*
X149740520Y-83068716D01*
X149740520Y-83068714D01*
X149750720Y-83058515D01*
X149750724Y-83058510D01*
X149872418Y-82936815D01*
X149933739Y-82903333D01*
X149960097Y-82900499D01*
X150959902Y-82900499D01*
X151026941Y-82920184D01*
X151047583Y-82936818D01*
X151475139Y-83364374D01*
X151475149Y-83364385D01*
X151479479Y-83368715D01*
X151479480Y-83368716D01*
X151591284Y-83480520D01*
X151591286Y-83480521D01*
X151591290Y-83480524D01*
X151685777Y-83535075D01*
X151728216Y-83559577D01*
X151840019Y-83589534D01*
X151880942Y-83600500D01*
X151880943Y-83600500D01*
X163960398Y-83600500D01*
X164027437Y-83620185D01*
X164070883Y-83668205D01*
X164077715Y-83681614D01*
X164198028Y-83847213D01*
X164342786Y-83991971D01*
X164462359Y-84078844D01*
X164508390Y-84112287D01*
X164589499Y-84153614D01*
X164690776Y-84205218D01*
X164690778Y-84205218D01*
X164690781Y-84205220D01*
X164765818Y-84229601D01*
X164885465Y-84268477D01*
X164986557Y-84284488D01*
X165087648Y-84300500D01*
X165087649Y-84300500D01*
X165292351Y-84300500D01*
X165292352Y-84300500D01*
X165494534Y-84268477D01*
X165689219Y-84205220D01*
X165871610Y-84112287D01*
X165964590Y-84044732D01*
X166037213Y-83991971D01*
X166037215Y-83991968D01*
X166037219Y-83991966D01*
X166181966Y-83847219D01*
X166181968Y-83847215D01*
X166181971Y-83847213D01*
X166240613Y-83766498D01*
X166302287Y-83681610D01*
X166395220Y-83499219D01*
X166458477Y-83304534D01*
X166490500Y-83102352D01*
X166490500Y-82897648D01*
X166458477Y-82695466D01*
X166449619Y-82668205D01*
X166419659Y-82575996D01*
X166395220Y-82500781D01*
X166395218Y-82500778D01*
X166395218Y-82500776D01*
X166361503Y-82434607D01*
X166302287Y-82318390D01*
X166240991Y-82234022D01*
X166181971Y-82152786D01*
X166037213Y-82008028D01*
X165871613Y-81887715D01*
X165871612Y-81887714D01*
X165871610Y-81887713D01*
X165784928Y-81843546D01*
X165689223Y-81794781D01*
X165494534Y-81731522D01*
X165319995Y-81703878D01*
X165292352Y-81699500D01*
X165087648Y-81699500D01*
X165063329Y-81703351D01*
X164885465Y-81731522D01*
X164690776Y-81794781D01*
X164508386Y-81887715D01*
X164342786Y-82008028D01*
X164198028Y-82152786D01*
X164077715Y-82318385D01*
X164070883Y-82331795D01*
X164022909Y-82382591D01*
X163960398Y-82399500D01*
X154315850Y-82399500D01*
X154248811Y-82379815D01*
X154203056Y-82327011D01*
X154193112Y-82257853D01*
X154205365Y-82219205D01*
X154297895Y-82037606D01*
X154297896Y-82037603D01*
X154330524Y-81937183D01*
X154366015Y-81827951D01*
X154400500Y-81610222D01*
X154400500Y-81389778D01*
X154366015Y-81172049D01*
X154317421Y-81022490D01*
X154297896Y-80962396D01*
X154297895Y-80962393D01*
X154263237Y-80894375D01*
X154197815Y-80765978D01*
X154164506Y-80720132D01*
X154068247Y-80587641D01*
X154068243Y-80587636D01*
X153912363Y-80431756D01*
X153912358Y-80431752D01*
X153734025Y-80302187D01*
X153734024Y-80302186D01*
X153734022Y-80302185D01*
X153616791Y-80242452D01*
X153537606Y-80202104D01*
X153537603Y-80202103D01*
X153327952Y-80133985D01*
X153219086Y-80116742D01*
X153110222Y-80099500D01*
X152889778Y-80099500D01*
X152849320Y-80105908D01*
X152672045Y-80133985D01*
X152601794Y-80156811D01*
X152531953Y-80158806D01*
X152475796Y-80126561D01*
X149861416Y-77512181D01*
X149827931Y-77450858D01*
X149832915Y-77381166D01*
X149874787Y-77325233D01*
X149940251Y-77300816D01*
X149949097Y-77300500D01*
X150078844Y-77300500D01*
X150078845Y-77300499D01*
X150233497Y-77269737D01*
X150379179Y-77209394D01*
X150510289Y-77121789D01*
X150621789Y-77010289D01*
X150709394Y-76879179D01*
X150769737Y-76733497D01*
X150800500Y-76578842D01*
X150800500Y-76421158D01*
X150800500Y-76421155D01*
X150800499Y-76421153D01*
X150769738Y-76266510D01*
X150769737Y-76266503D01*
X150769735Y-76266498D01*
X150709397Y-76120827D01*
X150709390Y-76120814D01*
X150621398Y-75989125D01*
X150600520Y-75922447D01*
X150600500Y-75920234D01*
X150600500Y-69962332D01*
X165899500Y-69962332D01*
X165899500Y-70237667D01*
X165899501Y-70237684D01*
X165935438Y-70510655D01*
X165935439Y-70510660D01*
X165935440Y-70510666D01*
X165935441Y-70510668D01*
X166006704Y-70776630D01*
X166112075Y-71031017D01*
X166112080Y-71031028D01*
X166191359Y-71168342D01*
X166249751Y-71269479D01*
X166249753Y-71269482D01*
X166249754Y-71269483D01*
X166417370Y-71487926D01*
X166417376Y-71487933D01*
X166612066Y-71682623D01*
X166612072Y-71682628D01*
X166830521Y-71850249D01*
X166983778Y-71938732D01*
X167068971Y-71987919D01*
X167068976Y-71987921D01*
X167068979Y-71987923D01*
X167323368Y-72093295D01*
X167589334Y-72164560D01*
X167862326Y-72200500D01*
X167862333Y-72200500D01*
X168137667Y-72200500D01*
X168137674Y-72200500D01*
X168410666Y-72164560D01*
X168676632Y-72093295D01*
X168931021Y-71987923D01*
X169169479Y-71850249D01*
X169387928Y-71682628D01*
X169582628Y-71487928D01*
X169750249Y-71269479D01*
X169887923Y-71031021D01*
X169993295Y-70776632D01*
X170064560Y-70510666D01*
X170100500Y-70237674D01*
X170100500Y-69962326D01*
X170064560Y-69689334D01*
X169993295Y-69423368D01*
X169887923Y-69168979D01*
X169887921Y-69168976D01*
X169887919Y-69168971D01*
X169790651Y-69000500D01*
X169750249Y-68930521D01*
X169582628Y-68712072D01*
X169582623Y-68712066D01*
X169387933Y-68517376D01*
X169387926Y-68517370D01*
X169169483Y-68349754D01*
X169169482Y-68349753D01*
X169169479Y-68349751D01*
X169054457Y-68283343D01*
X168931028Y-68212080D01*
X168931017Y-68212075D01*
X168676630Y-68106704D01*
X168543649Y-68071072D01*
X168410666Y-68035440D01*
X168410660Y-68035439D01*
X168410655Y-68035438D01*
X168137684Y-67999501D01*
X168137679Y-67999500D01*
X168137674Y-67999500D01*
X167862326Y-67999500D01*
X167862320Y-67999500D01*
X167862315Y-67999501D01*
X167589344Y-68035438D01*
X167589337Y-68035439D01*
X167589334Y-68035440D01*
X167533125Y-68050500D01*
X167323369Y-68106704D01*
X167068982Y-68212075D01*
X167068971Y-68212080D01*
X166830516Y-68349754D01*
X166612073Y-68517370D01*
X166612066Y-68517376D01*
X166417376Y-68712066D01*
X166417370Y-68712073D01*
X166249754Y-68930516D01*
X166249751Y-68930520D01*
X166249751Y-68930521D01*
X166240752Y-68946106D01*
X166112080Y-69168971D01*
X166112075Y-69168982D01*
X166006704Y-69423369D01*
X165935441Y-69689331D01*
X165935438Y-69689344D01*
X165899501Y-69962315D01*
X165899500Y-69962332D01*
X150600500Y-69962332D01*
X150600500Y-64079765D01*
X150620185Y-64012726D01*
X150621398Y-64010874D01*
X150709390Y-63879185D01*
X150709390Y-63879184D01*
X150709394Y-63879179D01*
X150769737Y-63733497D01*
X150800500Y-63578842D01*
X150800500Y-63421158D01*
X150800500Y-63421155D01*
X150800499Y-63421153D01*
X150777534Y-63305703D01*
X150769737Y-63266503D01*
X150769732Y-63266492D01*
X150767969Y-63260676D01*
X150770720Y-63259841D01*
X150764497Y-63202641D01*
X150795691Y-63140122D01*
X150855734Y-63104392D01*
X150886555Y-63100500D01*
X158199903Y-63100500D01*
X158266942Y-63120185D01*
X158287584Y-63136819D01*
X159047200Y-63896435D01*
X159080685Y-63957758D01*
X159077450Y-64022433D01*
X159036447Y-64148628D01*
X158999500Y-64381902D01*
X158999500Y-64618097D01*
X159036446Y-64851368D01*
X159109433Y-65075996D01*
X159151327Y-65158216D01*
X159216657Y-65286433D01*
X159355483Y-65477510D01*
X159355485Y-65477512D01*
X159522490Y-65644517D01*
X159529603Y-65649685D01*
X159572266Y-65705017D01*
X159578242Y-65774630D01*
X159545634Y-65836424D01*
X159529603Y-65850315D01*
X159522490Y-65855482D01*
X159355485Y-66022487D01*
X159355485Y-66022488D01*
X159355483Y-66022490D01*
X159301478Y-66096821D01*
X159216657Y-66213566D01*
X159109433Y-66424003D01*
X159036446Y-66648631D01*
X158999500Y-66881902D01*
X158999500Y-67118097D01*
X159036446Y-67351368D01*
X159109433Y-67575996D01*
X159216657Y-67786433D01*
X159355483Y-67977510D01*
X159522490Y-68144517D01*
X159713567Y-68283343D01*
X159812991Y-68334002D01*
X159924003Y-68390566D01*
X159924005Y-68390566D01*
X159924008Y-68390568D01*
X160044412Y-68429689D01*
X160148631Y-68463553D01*
X160381903Y-68500500D01*
X160381908Y-68500500D01*
X160618097Y-68500500D01*
X160851368Y-68463553D01*
X161075992Y-68390568D01*
X161286433Y-68283343D01*
X161477510Y-68144517D01*
X161644517Y-67977510D01*
X161783343Y-67786433D01*
X161890568Y-67575992D01*
X161963553Y-67351368D01*
X161984521Y-67218981D01*
X162000500Y-67118097D01*
X162000500Y-66881902D01*
X173499500Y-66881902D01*
X173499500Y-67118097D01*
X173536446Y-67351368D01*
X173609433Y-67575996D01*
X173716657Y-67786433D01*
X173855483Y-67977510D01*
X174022490Y-68144517D01*
X174213567Y-68283343D01*
X174312991Y-68334002D01*
X174424003Y-68390566D01*
X174424005Y-68390566D01*
X174424008Y-68390568D01*
X174544412Y-68429689D01*
X174648631Y-68463553D01*
X174881903Y-68500500D01*
X174881908Y-68500500D01*
X175118097Y-68500500D01*
X175351368Y-68463553D01*
X175575992Y-68390568D01*
X175786433Y-68283343D01*
X175977510Y-68144517D01*
X176144517Y-67977510D01*
X176283343Y-67786433D01*
X176390568Y-67575992D01*
X176463553Y-67351368D01*
X176484521Y-67218981D01*
X176500500Y-67118097D01*
X176500500Y-66881902D01*
X176463553Y-66648631D01*
X176422342Y-66521798D01*
X176390568Y-66424008D01*
X176390566Y-66424005D01*
X176390566Y-66424003D01*
X176283342Y-66213566D01*
X176144517Y-66022490D01*
X175977510Y-65855483D01*
X175786433Y-65716657D01*
X175763588Y-65705017D01*
X175575996Y-65609433D01*
X175351368Y-65536446D01*
X175118097Y-65499500D01*
X175118092Y-65499500D01*
X174881908Y-65499500D01*
X174881903Y-65499500D01*
X174648631Y-65536446D01*
X174424003Y-65609433D01*
X174213566Y-65716657D01*
X174134506Y-65774098D01*
X174022490Y-65855483D01*
X174022488Y-65855485D01*
X174022487Y-65855485D01*
X173855485Y-66022487D01*
X173855485Y-66022488D01*
X173855483Y-66022490D01*
X173801478Y-66096821D01*
X173716657Y-66213566D01*
X173609433Y-66424003D01*
X173536446Y-66648631D01*
X173499500Y-66881902D01*
X162000500Y-66881902D01*
X161963553Y-66648631D01*
X161922342Y-66521798D01*
X161890568Y-66424008D01*
X161890566Y-66424005D01*
X161890566Y-66424003D01*
X161783342Y-66213566D01*
X161644517Y-66022490D01*
X161477510Y-65855483D01*
X161470401Y-65850318D01*
X161427735Y-65794988D01*
X161421756Y-65725375D01*
X161454362Y-65663580D01*
X161470401Y-65649682D01*
X161470500Y-65649609D01*
X161477510Y-65644517D01*
X161644517Y-65477510D01*
X161783343Y-65286433D01*
X161890568Y-65075992D01*
X161963553Y-64851368D01*
X161987728Y-64698735D01*
X162000500Y-64618097D01*
X162000500Y-64381902D01*
X161963553Y-64148635D01*
X161963553Y-64148632D01*
X161922547Y-64022433D01*
X161920553Y-63952593D01*
X161952796Y-63896437D01*
X163212416Y-62636819D01*
X163273739Y-62603334D01*
X163300097Y-62600500D01*
X173545932Y-62600500D01*
X173612971Y-62620185D01*
X173656416Y-62668203D01*
X173716657Y-62786433D01*
X173855483Y-62977510D01*
X174022490Y-63144517D01*
X174213567Y-63283343D01*
X174270165Y-63312181D01*
X174424003Y-63390566D01*
X174424005Y-63390566D01*
X174424008Y-63390568D01*
X174516292Y-63420553D01*
X174648631Y-63463553D01*
X174881903Y-63500500D01*
X174881908Y-63500500D01*
X175118097Y-63500500D01*
X175224126Y-63483705D01*
X175351368Y-63463553D01*
X175477566Y-63422547D01*
X175547404Y-63420553D01*
X175603563Y-63452798D01*
X177863181Y-65712416D01*
X177896666Y-65773739D01*
X177899500Y-65800097D01*
X177899500Y-79199903D01*
X177879815Y-79266942D01*
X177863181Y-79287584D01*
X174787584Y-82363181D01*
X174726261Y-82396666D01*
X174699903Y-82399500D01*
X174039602Y-82399500D01*
X173972563Y-82379815D01*
X173929117Y-82331795D01*
X173922287Y-82318390D01*
X173922285Y-82318387D01*
X173922284Y-82318385D01*
X173801971Y-82152786D01*
X173657213Y-82008028D01*
X173491613Y-81887715D01*
X173491612Y-81887714D01*
X173491610Y-81887713D01*
X173404928Y-81843546D01*
X173309223Y-81794781D01*
X173114534Y-81731522D01*
X172939995Y-81703878D01*
X172912352Y-81699500D01*
X172707648Y-81699500D01*
X172683329Y-81703351D01*
X172505465Y-81731522D01*
X172310776Y-81794781D01*
X172128386Y-81887715D01*
X171962786Y-82008028D01*
X171818028Y-82152786D01*
X171697715Y-82318386D01*
X171604781Y-82500776D01*
X171541522Y-82695465D01*
X171509500Y-82897648D01*
X171509500Y-83102351D01*
X171541522Y-83304534D01*
X171604781Y-83499223D01*
X171697715Y-83681613D01*
X171818028Y-83847213D01*
X171818034Y-83847219D01*
X171962781Y-83991966D01*
X172128390Y-84112287D01*
X172141793Y-84119116D01*
X172192589Y-84167088D01*
X172209500Y-84229601D01*
X172209500Y-87929902D01*
X172189815Y-87996941D01*
X172173181Y-88017583D01*
X169524522Y-90666241D01*
X169463199Y-90699726D01*
X169398523Y-90696491D01*
X169356245Y-90682754D01*
X169216272Y-90660584D01*
X169146287Y-90649500D01*
X168933713Y-90649500D01*
X168885042Y-90657208D01*
X168723760Y-90682753D01*
X168521585Y-90748444D01*
X168332179Y-90844951D01*
X168160215Y-90969889D01*
X168046673Y-91083431D01*
X167985350Y-91116915D01*
X167915658Y-91111931D01*
X167859725Y-91070059D01*
X167842810Y-91039082D01*
X167793797Y-90907671D01*
X167793793Y-90907664D01*
X167707547Y-90792455D01*
X167707544Y-90792452D01*
X167592335Y-90706206D01*
X167592328Y-90706202D01*
X167457482Y-90655908D01*
X167457483Y-90655908D01*
X167397883Y-90649501D01*
X167397881Y-90649500D01*
X167397873Y-90649500D01*
X167397864Y-90649500D01*
X165602129Y-90649500D01*
X165602123Y-90649501D01*
X165542516Y-90655908D01*
X165407671Y-90706202D01*
X165407664Y-90706206D01*
X165292455Y-90792452D01*
X165292452Y-90792455D01*
X165206206Y-90907664D01*
X165206202Y-90907671D01*
X165155908Y-91042517D01*
X165149501Y-91102116D01*
X165149500Y-91102135D01*
X165149500Y-92897870D01*
X165149501Y-92897876D01*
X165155908Y-92957483D01*
X165206202Y-93092328D01*
X165206206Y-93092335D01*
X165292452Y-93207544D01*
X165292455Y-93207547D01*
X165407664Y-93293793D01*
X165407671Y-93293797D01*
X165542517Y-93344091D01*
X165542516Y-93344091D01*
X165549444Y-93344835D01*
X165602127Y-93350500D01*
X167397872Y-93350499D01*
X167457483Y-93344091D01*
X167592331Y-93293796D01*
X167707546Y-93207546D01*
X167793796Y-93092331D01*
X167842810Y-92960916D01*
X167884681Y-92904984D01*
X167950145Y-92880566D01*
X168018418Y-92895417D01*
X168046673Y-92916569D01*
X168160213Y-93030109D01*
X168332179Y-93155048D01*
X168332181Y-93155049D01*
X168332184Y-93155051D01*
X168521588Y-93251557D01*
X168723757Y-93317246D01*
X168933713Y-93350500D01*
X168933714Y-93350500D01*
X169146286Y-93350500D01*
X169146287Y-93350500D01*
X169356243Y-93317246D01*
X169558412Y-93251557D01*
X169747816Y-93155051D01*
X169834138Y-93092335D01*
X169919786Y-93030109D01*
X169919788Y-93030106D01*
X169919792Y-93030104D01*
X170070104Y-92879792D01*
X170070106Y-92879788D01*
X170070109Y-92879786D01*
X170195048Y-92707820D01*
X170195047Y-92707820D01*
X170195051Y-92707816D01*
X170291557Y-92518412D01*
X170357246Y-92316243D01*
X170390500Y-92106287D01*
X170390500Y-91893713D01*
X170357246Y-91683757D01*
X170343506Y-91641473D01*
X170341512Y-91571635D01*
X170373755Y-91515478D01*
X173178713Y-88710521D01*
X173178716Y-88710520D01*
X173290520Y-88598716D01*
X173340639Y-88511904D01*
X173369577Y-88461785D01*
X173410500Y-88309057D01*
X173410500Y-88150943D01*
X173410500Y-86878711D01*
X177649500Y-86878711D01*
X177649500Y-87121288D01*
X177681161Y-87361785D01*
X177743947Y-87596104D01*
X177772430Y-87664867D01*
X177836776Y-87820212D01*
X177958064Y-88030289D01*
X177958066Y-88030292D01*
X177958067Y-88030293D01*
X178105733Y-88222736D01*
X178105739Y-88222743D01*
X178277256Y-88394260D01*
X178277262Y-88394265D01*
X178469711Y-88541936D01*
X178679788Y-88663224D01*
X178903900Y-88756054D01*
X179138211Y-88818838D01*
X179318586Y-88842584D01*
X179378711Y-88850500D01*
X179378712Y-88850500D01*
X179621289Y-88850500D01*
X179669388Y-88844167D01*
X179861789Y-88818838D01*
X180096100Y-88756054D01*
X180320212Y-88663224D01*
X180530289Y-88541936D01*
X180722738Y-88394265D01*
X180894265Y-88222738D01*
X181041936Y-88030289D01*
X181163224Y-87820212D01*
X181256054Y-87596100D01*
X181318838Y-87361789D01*
X181350500Y-87121288D01*
X181350500Y-86878712D01*
X181318838Y-86638211D01*
X181256054Y-86403900D01*
X181163224Y-86179788D01*
X181041936Y-85969711D01*
X180894265Y-85777262D01*
X180894260Y-85777256D01*
X180722743Y-85605739D01*
X180722736Y-85605733D01*
X180530293Y-85458067D01*
X180530292Y-85458066D01*
X180530289Y-85458064D01*
X180352617Y-85355485D01*
X180320214Y-85336777D01*
X180320205Y-85336773D01*
X180096104Y-85243947D01*
X179861785Y-85181161D01*
X179621289Y-85149500D01*
X179621288Y-85149500D01*
X179378712Y-85149500D01*
X179378711Y-85149500D01*
X179138214Y-85181161D01*
X178903895Y-85243947D01*
X178679794Y-85336773D01*
X178679785Y-85336777D01*
X178469706Y-85458067D01*
X178277263Y-85605733D01*
X178277256Y-85605739D01*
X178105739Y-85777256D01*
X178105733Y-85777263D01*
X177958067Y-85969706D01*
X177836777Y-86179785D01*
X177836773Y-86179794D01*
X177743947Y-86403895D01*
X177681161Y-86638214D01*
X177649500Y-86878711D01*
X173410500Y-86878711D01*
X173410500Y-84229601D01*
X173430185Y-84162562D01*
X173478206Y-84119116D01*
X173491610Y-84112287D01*
X173657219Y-83991966D01*
X173801966Y-83847219D01*
X173801968Y-83847215D01*
X173801971Y-83847213D01*
X173922284Y-83681614D01*
X173922285Y-83681613D01*
X173922287Y-83681610D01*
X173929117Y-83668204D01*
X173977091Y-83617409D01*
X174039602Y-83600500D01*
X174913331Y-83600500D01*
X174913347Y-83600501D01*
X174920943Y-83600501D01*
X175079054Y-83600501D01*
X175079057Y-83600501D01*
X175231785Y-83559577D01*
X175281904Y-83530639D01*
X175368716Y-83480520D01*
X175480520Y-83368716D01*
X175480520Y-83368714D01*
X175490728Y-83358507D01*
X175490730Y-83358504D01*
X178858506Y-79990728D01*
X178858511Y-79990724D01*
X178868714Y-79980520D01*
X178868716Y-79980520D01*
X178980520Y-79868716D01*
X179059577Y-79731784D01*
X179100500Y-79579057D01*
X179100500Y-65420943D01*
X179100499Y-65420941D01*
X179100499Y-65420937D01*
X179099858Y-65418546D01*
X179099855Y-65418536D01*
X179080772Y-65347317D01*
X179080772Y-65347316D01*
X179059577Y-65268216D01*
X178996069Y-65158216D01*
X178980524Y-65131290D01*
X178980521Y-65131286D01*
X178980520Y-65131284D01*
X178868716Y-65019480D01*
X178868715Y-65019479D01*
X178864385Y-65015149D01*
X178864374Y-65015139D01*
X176452798Y-62603563D01*
X176419313Y-62542240D01*
X176422547Y-62477566D01*
X176463553Y-62351368D01*
X176485379Y-62213566D01*
X176500500Y-62118097D01*
X176500500Y-61881902D01*
X176463553Y-61648631D01*
X176421589Y-61519480D01*
X176390568Y-61424008D01*
X176390566Y-61424005D01*
X176390566Y-61424003D01*
X176334002Y-61312991D01*
X176283343Y-61213567D01*
X176144517Y-61022490D01*
X175977510Y-60855483D01*
X175786433Y-60716657D01*
X175744869Y-60695479D01*
X175575996Y-60609433D01*
X175351368Y-60536446D01*
X175118097Y-60499500D01*
X175118092Y-60499500D01*
X174881908Y-60499500D01*
X174881903Y-60499500D01*
X174648631Y-60536446D01*
X174424003Y-60609433D01*
X174213566Y-60716657D01*
X174115478Y-60787923D01*
X174022490Y-60855483D01*
X174022488Y-60855485D01*
X174022487Y-60855485D01*
X173855485Y-61022487D01*
X173855485Y-61022488D01*
X173855483Y-61022490D01*
X173795862Y-61104550D01*
X173716657Y-61213566D01*
X173685172Y-61275360D01*
X173662398Y-61320057D01*
X173656417Y-61331795D01*
X173608442Y-61382591D01*
X173545932Y-61399500D01*
X163086669Y-61399500D01*
X163086653Y-61399499D01*
X163079057Y-61399499D01*
X162920943Y-61399499D01*
X162829476Y-61424008D01*
X162768210Y-61440424D01*
X162768209Y-61440425D01*
X162718096Y-61469359D01*
X162718095Y-61469360D01*
X162689852Y-61485666D01*
X162631285Y-61519479D01*
X162631282Y-61519481D01*
X162212180Y-61938584D01*
X162150857Y-61972069D01*
X162081165Y-61967085D01*
X162025232Y-61925213D01*
X162000815Y-61859749D01*
X162000499Y-61850903D01*
X162000499Y-60952129D01*
X162000498Y-60952123D01*
X162000497Y-60952116D01*
X161994091Y-60892517D01*
X161989558Y-60880364D01*
X161943797Y-60757671D01*
X161943793Y-60757664D01*
X161857547Y-60642455D01*
X161857544Y-60642452D01*
X161742335Y-60556206D01*
X161742328Y-60556202D01*
X161607482Y-60505908D01*
X161607483Y-60505908D01*
X161547883Y-60499501D01*
X161547881Y-60499500D01*
X161547873Y-60499500D01*
X161547864Y-60499500D01*
X159452129Y-60499500D01*
X159452123Y-60499501D01*
X159392516Y-60505908D01*
X159257671Y-60556202D01*
X159257664Y-60556206D01*
X159142455Y-60642452D01*
X159142452Y-60642455D01*
X159056206Y-60757664D01*
X159056202Y-60757671D01*
X159005908Y-60892517D01*
X159001671Y-60931933D01*
X158999501Y-60952123D01*
X158999500Y-60952135D01*
X158999500Y-61880214D01*
X158979815Y-61947253D01*
X158927011Y-61993008D01*
X158857853Y-62002952D01*
X158813501Y-61987602D01*
X158799468Y-61979500D01*
X158769777Y-61962358D01*
X158731785Y-61940423D01*
X158579057Y-61899499D01*
X158420943Y-61899499D01*
X158413347Y-61899499D01*
X158413331Y-61899500D01*
X146925645Y-61899500D01*
X146858606Y-61879815D01*
X146812851Y-61827011D01*
X146802907Y-61757853D01*
X146815161Y-61719204D01*
X146845003Y-61660636D01*
X146845006Y-61660629D01*
X146861641Y-61609432D01*
X146906413Y-61471636D01*
X146937500Y-61275361D01*
X146937500Y-61076639D01*
X146906413Y-60880364D01*
X146853222Y-60716657D01*
X146845006Y-60691370D01*
X146845005Y-60691367D01*
X146785967Y-60575500D01*
X146754787Y-60514306D01*
X146637981Y-60353536D01*
X146497464Y-60213019D01*
X146336694Y-60096213D01*
X146180218Y-60016484D01*
X146129423Y-59968510D01*
X146112628Y-59900689D01*
X146135165Y-59834554D01*
X146180218Y-59795515D01*
X146336694Y-59715787D01*
X146497464Y-59598981D01*
X146637981Y-59458464D01*
X146754787Y-59297694D01*
X146845005Y-59120632D01*
X146906413Y-58931636D01*
X146933228Y-58762332D01*
X165899500Y-58762332D01*
X165899500Y-59037667D01*
X165899501Y-59037684D01*
X165935438Y-59310655D01*
X165935439Y-59310660D01*
X165935440Y-59310666D01*
X165935441Y-59310668D01*
X166006704Y-59576630D01*
X166112075Y-59831017D01*
X166112080Y-59831028D01*
X166177644Y-59944587D01*
X166249751Y-60069479D01*
X166249753Y-60069482D01*
X166249754Y-60069483D01*
X166417370Y-60287926D01*
X166417376Y-60287933D01*
X166612066Y-60482623D01*
X166612073Y-60482629D01*
X166707961Y-60556206D01*
X166830521Y-60650249D01*
X166945543Y-60716657D01*
X167068971Y-60787919D01*
X167068976Y-60787921D01*
X167068979Y-60787923D01*
X167323368Y-60893295D01*
X167589334Y-60964560D01*
X167862326Y-61000500D01*
X167862333Y-61000500D01*
X168137667Y-61000500D01*
X168137674Y-61000500D01*
X168410666Y-60964560D01*
X168676632Y-60893295D01*
X168931021Y-60787923D01*
X169169479Y-60650249D01*
X169387928Y-60482628D01*
X169582628Y-60287928D01*
X169750249Y-60069479D01*
X169887923Y-59831021D01*
X169993295Y-59576632D01*
X170064560Y-59310666D01*
X170100500Y-59037674D01*
X170100500Y-58762326D01*
X170064560Y-58489334D01*
X169993295Y-58223368D01*
X169887923Y-57968979D01*
X169887921Y-57968976D01*
X169887919Y-57968971D01*
X169834501Y-57876450D01*
X169750249Y-57730521D01*
X169678023Y-57636394D01*
X169582629Y-57512073D01*
X169582623Y-57512066D01*
X169387933Y-57317376D01*
X169387926Y-57317370D01*
X169169483Y-57149754D01*
X169169482Y-57149753D01*
X169169479Y-57149751D01*
X169074407Y-57094861D01*
X168931028Y-57012080D01*
X168931017Y-57012075D01*
X168676630Y-56906704D01*
X168543649Y-56871072D01*
X168410666Y-56835440D01*
X168410660Y-56835439D01*
X168410655Y-56835438D01*
X168137684Y-56799501D01*
X168137679Y-56799500D01*
X168137674Y-56799500D01*
X167862326Y-56799500D01*
X167862320Y-56799500D01*
X167862315Y-56799501D01*
X167589344Y-56835438D01*
X167589337Y-56835439D01*
X167589334Y-56835440D01*
X167533125Y-56850500D01*
X167323369Y-56906704D01*
X167068982Y-57012075D01*
X167068971Y-57012080D01*
X166830516Y-57149754D01*
X166612073Y-57317370D01*
X166612066Y-57317376D01*
X166417376Y-57512066D01*
X166417370Y-57512073D01*
X166249754Y-57730516D01*
X166112080Y-57968971D01*
X166112075Y-57968982D01*
X166006704Y-58223369D01*
X165935441Y-58489331D01*
X165935438Y-58489344D01*
X165899501Y-58762315D01*
X165899500Y-58762332D01*
X146933228Y-58762332D01*
X146937500Y-58735361D01*
X146937500Y-58536639D01*
X146906413Y-58340364D01*
X146857569Y-58190035D01*
X146845006Y-58151370D01*
X146845005Y-58151367D01*
X146779681Y-58023163D01*
X146754787Y-57974306D01*
X146637981Y-57813536D01*
X146497464Y-57673019D01*
X146336694Y-57556213D01*
X146180218Y-57476484D01*
X146129423Y-57428510D01*
X146112628Y-57360689D01*
X146135165Y-57294554D01*
X146180218Y-57255515D01*
X146336694Y-57175787D01*
X146497464Y-57058981D01*
X146637981Y-56918464D01*
X146754787Y-56757694D01*
X146845005Y-56580632D01*
X146906413Y-56391636D01*
X146937500Y-56195361D01*
X146937500Y-55996639D01*
X146906413Y-55800364D01*
X146845005Y-55611368D01*
X146845005Y-55611367D01*
X146754786Y-55434305D01*
X146637981Y-55273536D01*
X146497464Y-55133019D01*
X146336694Y-55016213D01*
X146180218Y-54936484D01*
X146129423Y-54888510D01*
X146112628Y-54820689D01*
X146135165Y-54754554D01*
X146180218Y-54715515D01*
X146336694Y-54635787D01*
X146497464Y-54518981D01*
X146637981Y-54378464D01*
X146754787Y-54217694D01*
X146845005Y-54040632D01*
X146906413Y-53851636D01*
X146937500Y-53655361D01*
X146937500Y-53456639D01*
X146906413Y-53260364D01*
X146868711Y-53144328D01*
X146845006Y-53071370D01*
X146845005Y-53071367D01*
X146785967Y-52955500D01*
X146754787Y-52894306D01*
X146637981Y-52733536D01*
X146497464Y-52593019D01*
X146336694Y-52476213D01*
X146180218Y-52396484D01*
X146129423Y-52348510D01*
X146112628Y-52280689D01*
X146135165Y-52214554D01*
X146180218Y-52175515D01*
X146336694Y-52095787D01*
X146497464Y-51978981D01*
X146637981Y-51838464D01*
X146754787Y-51677694D01*
X146845005Y-51500632D01*
X146906413Y-51311636D01*
X146937500Y-51115361D01*
X146937500Y-50916639D01*
X146906413Y-50720364D01*
X146845005Y-50531368D01*
X146845005Y-50531367D01*
X146817038Y-50476480D01*
X146804142Y-50407811D01*
X146830418Y-50343071D01*
X146887524Y-50302813D01*
X146928344Y-50296188D01*
X176969374Y-50496462D01*
X177036279Y-50516593D01*
X177040785Y-50519674D01*
X177316565Y-50717343D01*
X177521720Y-50864391D01*
X177525102Y-50866904D01*
X177680386Y-50986479D01*
X177719537Y-51037867D01*
X187251105Y-74390209D01*
X187260184Y-74431703D01*
X187305204Y-75471191D01*
X187296866Y-75521558D01*
X169228016Y-121914550D01*
X169199890Y-121957490D01*
X168693722Y-122460655D01*
X168632299Y-122493957D01*
X168605269Y-122496709D01*
X109789428Y-122006577D01*
X109722555Y-121986334D01*
X109700973Y-121968417D01*
X109584373Y-121846857D01*
X108789796Y-121018477D01*
X108788246Y-121016832D01*
X108707654Y-120929652D01*
X108498862Y-120703793D01*
X108474537Y-120665043D01*
X106980299Y-116868872D01*
X125499500Y-116868872D01*
X125499500Y-117131127D01*
X125526123Y-117333339D01*
X125533730Y-117391116D01*
X125601602Y-117644418D01*
X125601605Y-117644428D01*
X125701953Y-117886690D01*
X125701958Y-117886700D01*
X125833075Y-118113803D01*
X125992718Y-118321851D01*
X125992726Y-118321860D01*
X126178140Y-118507274D01*
X126178148Y-118507281D01*
X126386196Y-118666924D01*
X126613299Y-118798041D01*
X126613309Y-118798046D01*
X126855571Y-118898394D01*
X126855581Y-118898398D01*
X127108884Y-118966270D01*
X127368880Y-119000500D01*
X127368887Y-119000500D01*
X127631113Y-119000500D01*
X127631120Y-119000500D01*
X127891116Y-118966270D01*
X128144419Y-118898398D01*
X128386697Y-118798043D01*
X128613803Y-118666924D01*
X128821851Y-118507282D01*
X128821855Y-118507277D01*
X128821860Y-118507274D01*
X129007274Y-118321860D01*
X129007277Y-118321855D01*
X129007282Y-118321851D01*
X129166924Y-118113803D01*
X129298043Y-117886697D01*
X129398398Y-117644419D01*
X129466270Y-117391116D01*
X129500500Y-117131120D01*
X129500500Y-116868880D01*
X129500499Y-116868872D01*
X147499500Y-116868872D01*
X147499500Y-117131127D01*
X147526123Y-117333339D01*
X147533730Y-117391116D01*
X147601602Y-117644418D01*
X147601605Y-117644428D01*
X147701953Y-117886690D01*
X147701958Y-117886700D01*
X147833075Y-118113803D01*
X147992718Y-118321851D01*
X147992726Y-118321860D01*
X148178140Y-118507274D01*
X148178148Y-118507281D01*
X148386196Y-118666924D01*
X148613299Y-118798041D01*
X148613309Y-118798046D01*
X148855571Y-118898394D01*
X148855581Y-118898398D01*
X149108884Y-118966270D01*
X149368880Y-119000500D01*
X149368887Y-119000500D01*
X149631113Y-119000500D01*
X149631120Y-119000500D01*
X149891116Y-118966270D01*
X150144419Y-118898398D01*
X150386697Y-118798043D01*
X150613803Y-118666924D01*
X150821851Y-118507282D01*
X150821855Y-118507277D01*
X150821860Y-118507274D01*
X151007274Y-118321860D01*
X151007277Y-118321855D01*
X151007282Y-118321851D01*
X151166924Y-118113803D01*
X151298043Y-117886697D01*
X151398398Y-117644419D01*
X151466270Y-117391116D01*
X151500500Y-117131120D01*
X151500500Y-116868880D01*
X151466270Y-116608884D01*
X151398398Y-116355581D01*
X151376971Y-116303852D01*
X151298046Y-116113309D01*
X151298041Y-116113299D01*
X151166924Y-115886196D01*
X151007281Y-115678148D01*
X151007274Y-115678140D01*
X150821860Y-115492726D01*
X150821851Y-115492718D01*
X150613803Y-115333075D01*
X150386700Y-115201958D01*
X150386690Y-115201953D01*
X150144428Y-115101605D01*
X150144421Y-115101603D01*
X150144419Y-115101602D01*
X149891116Y-115033730D01*
X149833339Y-115026123D01*
X149631127Y-114999500D01*
X149631120Y-114999500D01*
X149368880Y-114999500D01*
X149368872Y-114999500D01*
X149137772Y-115029926D01*
X149108884Y-115033730D01*
X148963341Y-115072728D01*
X148855581Y-115101602D01*
X148855571Y-115101605D01*
X148613309Y-115201953D01*
X148613299Y-115201958D01*
X148386196Y-115333075D01*
X148178148Y-115492718D01*
X147992718Y-115678148D01*
X147833075Y-115886196D01*
X147701958Y-116113299D01*
X147701953Y-116113309D01*
X147601605Y-116355571D01*
X147601602Y-116355581D01*
X147533730Y-116608885D01*
X147499500Y-116868872D01*
X129500499Y-116868872D01*
X129466270Y-116608884D01*
X129398398Y-116355581D01*
X129376971Y-116303852D01*
X129298046Y-116113309D01*
X129298041Y-116113299D01*
X129166924Y-115886196D01*
X129007281Y-115678148D01*
X129007274Y-115678140D01*
X128821860Y-115492726D01*
X128821851Y-115492718D01*
X128613803Y-115333075D01*
X128386700Y-115201958D01*
X128386690Y-115201953D01*
X128144428Y-115101605D01*
X128144421Y-115101603D01*
X128144419Y-115101602D01*
X127891116Y-115033730D01*
X127833339Y-115026123D01*
X127631127Y-114999500D01*
X127631120Y-114999500D01*
X127368880Y-114999500D01*
X127368872Y-114999500D01*
X127137772Y-115029926D01*
X127108884Y-115033730D01*
X126963341Y-115072728D01*
X126855581Y-115101602D01*
X126855571Y-115101605D01*
X126613309Y-115201953D01*
X126613299Y-115201958D01*
X126386196Y-115333075D01*
X126178148Y-115492718D01*
X125992718Y-115678148D01*
X125833075Y-115886196D01*
X125701958Y-116113299D01*
X125701953Y-116113309D01*
X125601605Y-116355571D01*
X125601602Y-116355581D01*
X125533730Y-116608885D01*
X125499500Y-116868872D01*
X106980299Y-116868872D01*
X101966811Y-104131902D01*
X104999500Y-104131902D01*
X104999500Y-104368097D01*
X105036446Y-104601368D01*
X105109433Y-104825996D01*
X105195203Y-104994328D01*
X105216657Y-105036433D01*
X105355483Y-105227510D01*
X105522490Y-105394517D01*
X105713567Y-105533343D01*
X105812991Y-105584002D01*
X105924003Y-105640566D01*
X105924005Y-105640566D01*
X105924008Y-105640568D01*
X106044412Y-105679689D01*
X106148631Y-105713553D01*
X106381903Y-105750500D01*
X106381908Y-105750500D01*
X106618097Y-105750500D01*
X106851368Y-105713553D01*
X107075992Y-105640568D01*
X107286433Y-105533343D01*
X107477510Y-105394517D01*
X107644517Y-105227510D01*
X107783343Y-105036433D01*
X107843583Y-104918204D01*
X107891558Y-104867409D01*
X107954068Y-104850500D01*
X111545932Y-104850500D01*
X111612971Y-104870185D01*
X111656416Y-104918203D01*
X111716657Y-105036433D01*
X111855483Y-105227510D01*
X112022490Y-105394517D01*
X112213567Y-105533343D01*
X112312991Y-105584002D01*
X112424003Y-105640566D01*
X112424005Y-105640566D01*
X112424008Y-105640568D01*
X112544412Y-105679689D01*
X112648631Y-105713553D01*
X112881903Y-105750500D01*
X112881908Y-105750500D01*
X113118097Y-105750500D01*
X113351368Y-105713553D01*
X113575992Y-105640568D01*
X113786433Y-105533343D01*
X113977510Y-105394517D01*
X114144517Y-105227510D01*
X114283343Y-105036433D01*
X114390568Y-104825992D01*
X114463553Y-104601368D01*
X114500500Y-104368097D01*
X114500500Y-104131902D01*
X114463553Y-103898631D01*
X114390566Y-103674003D01*
X114283342Y-103463566D01*
X114144517Y-103272490D01*
X113977510Y-103105483D01*
X113786433Y-102966657D01*
X113784508Y-102965676D01*
X113575996Y-102859433D01*
X113351368Y-102786446D01*
X113118097Y-102749500D01*
X113118092Y-102749500D01*
X112881908Y-102749500D01*
X112881903Y-102749500D01*
X112648631Y-102786446D01*
X112424003Y-102859433D01*
X112213566Y-102966657D01*
X112104550Y-103045862D01*
X112022490Y-103105483D01*
X112022488Y-103105485D01*
X112022487Y-103105485D01*
X111855485Y-103272487D01*
X111855485Y-103272488D01*
X111855483Y-103272490D01*
X111795862Y-103354550D01*
X111716657Y-103463566D01*
X111656417Y-103581795D01*
X111608442Y-103632591D01*
X111545932Y-103649500D01*
X107954068Y-103649500D01*
X107887029Y-103629815D01*
X107843583Y-103581795D01*
X107783342Y-103463566D01*
X107644517Y-103272490D01*
X107477510Y-103105483D01*
X107286433Y-102966657D01*
X107284508Y-102965676D01*
X107075996Y-102859433D01*
X106851368Y-102786446D01*
X106618097Y-102749500D01*
X106618092Y-102749500D01*
X106381908Y-102749500D01*
X106381903Y-102749500D01*
X106148631Y-102786446D01*
X105924003Y-102859433D01*
X105713566Y-102966657D01*
X105604550Y-103045862D01*
X105522490Y-103105483D01*
X105522488Y-103105485D01*
X105522487Y-103105485D01*
X105355485Y-103272487D01*
X105355485Y-103272488D01*
X105355483Y-103272490D01*
X105295862Y-103354550D01*
X105216657Y-103463566D01*
X105109433Y-103674003D01*
X105036446Y-103898631D01*
X104999500Y-104131902D01*
X101966811Y-104131902D01*
X95919347Y-88768073D01*
X95913110Y-88698483D01*
X95945486Y-88636567D01*
X96006197Y-88601985D01*
X96075967Y-88605714D01*
X96096718Y-88615263D01*
X96179788Y-88663224D01*
X96403900Y-88756054D01*
X96638211Y-88818838D01*
X96818586Y-88842584D01*
X96878711Y-88850500D01*
X96878712Y-88850500D01*
X97121289Y-88850500D01*
X97169388Y-88844167D01*
X97361789Y-88818838D01*
X97596100Y-88756054D01*
X97820212Y-88663224D01*
X98030289Y-88541936D01*
X98222738Y-88394265D01*
X98394265Y-88222738D01*
X98541936Y-88030289D01*
X98663224Y-87820212D01*
X98756054Y-87596100D01*
X98818838Y-87361789D01*
X98850500Y-87121288D01*
X98850500Y-86878712D01*
X98818838Y-86638211D01*
X98756054Y-86403900D01*
X98663224Y-86179788D01*
X98541936Y-85969711D01*
X98394265Y-85777262D01*
X98394260Y-85777256D01*
X98222743Y-85605739D01*
X98222736Y-85605733D01*
X98030293Y-85458067D01*
X98030292Y-85458066D01*
X98030289Y-85458064D01*
X97852617Y-85355485D01*
X97820214Y-85336777D01*
X97820205Y-85336773D01*
X97596104Y-85243947D01*
X97361785Y-85181161D01*
X97121289Y-85149500D01*
X97121288Y-85149500D01*
X96878712Y-85149500D01*
X96878711Y-85149500D01*
X96638214Y-85181161D01*
X96403895Y-85243947D01*
X96179794Y-85336773D01*
X96179785Y-85336777D01*
X95969706Y-85458067D01*
X95777263Y-85605733D01*
X95777256Y-85605739D01*
X95605739Y-85777256D01*
X95605733Y-85777263D01*
X95458067Y-85969706D01*
X95336777Y-86179785D01*
X95336773Y-86179794D01*
X95243948Y-86403893D01*
X95237962Y-86426234D01*
X95201596Y-86485894D01*
X95138749Y-86516422D01*
X95069373Y-86508127D01*
X95015496Y-86463641D01*
X95002804Y-86439556D01*
X93174541Y-81794781D01*
X90544336Y-75112639D01*
X90542614Y-75102024D01*
X90539049Y-75095766D01*
X90535896Y-75060617D01*
X90542711Y-74932988D01*
X90554743Y-74885951D01*
X102465986Y-50070861D01*
X102512742Y-50018943D01*
X102578601Y-50000524D01*
X129243379Y-50178289D01*
G37*
%TD.AperFunction*%
M02*
