%TF.GenerationSoftware,KiCad,Pcbnew,10.0.3-10.0.3~ubuntu24.04.1*%
%TF.CreationDate,2026-06-19T13:07:10+02:00*%
%TF.ProjectId,ringotchi,72696e67-6f74-4636-9869-2e6b69636164,rev?*%
%TF.SameCoordinates,Original*%
%TF.FileFunction,Soldermask,Top*%
%TF.FilePolarity,Negative*%
%FSLAX46Y46*%
G04 Gerber Fmt 4.6, Leading zero omitted, Abs format (unit mm)*
G04 Created by KiCad (PCBNEW 10.0.3-10.0.3~ubuntu24.04.1) date 2026-06-19 13:07:10*
%MOMM*%
%LPD*%
G01*
G04 APERTURE LIST*
G04 Aperture macros list*
%AMRoundRect*
0 Rectangle with rounded corners*
0 $1 Rounding radius*
0 $2 $3 $4 $5 $6 $7 $8 $9 X,Y pos of 4 corners*
0 Add a 4 corners polygon primitive as box body*
4,1,4,$2,$3,$4,$5,$6,$7,$8,$9,$2,$3,0*
0 Add four circle primitives for the rounded corners*
1,1,$1+$1,$2,$3*
1,1,$1+$1,$4,$5*
1,1,$1+$1,$6,$7*
1,1,$1+$1,$8,$9*
0 Add four rect primitives between the rounded corners*
20,1,$1+$1,$2,$3,$4,$5,0*
20,1,$1+$1,$4,$5,$6,$7,0*
20,1,$1+$1,$6,$7,$8,$9,0*
20,1,$1+$1,$8,$9,$2,$3,0*%
G04 Aperture macros list end*
%ADD10C,1.524000*%
%ADD11RoundRect,0.275000X-0.975000X-0.275000X0.975000X-0.275000X0.975000X0.275000X-0.975000X0.275000X0*%
%ADD12C,2.000000*%
%ADD13R,1.800000X1.800000*%
%ADD14C,1.800000*%
%ADD15R,2.000000X2.000000*%
%ADD16C,3.200000*%
%ADD17RoundRect,0.102000X-0.754000X-0.754000X0.754000X-0.754000X0.754000X0.754000X-0.754000X0.754000X0*%
%ADD18C,1.712000*%
%ADD19C,3.204000*%
%ADD20R,1.700000X1.700000*%
%ADD21O,1.700000X1.700000*%
%ADD22C,1.600000*%
%ADD23O,1.600000X1.600000*%
G04 APERTURE END LIST*
D10*
%TO.C,U1*%
X145675000Y-51016000D03*
X145675000Y-53556000D03*
X145675000Y-56096000D03*
X145675000Y-58636000D03*
X145675000Y-61176000D03*
X145675000Y-63716000D03*
X145675000Y-66256000D03*
X130435000Y-66256000D03*
X130435000Y-63716000D03*
X130435000Y-61176000D03*
X130435000Y-58636000D03*
X130435000Y-56096000D03*
X130435000Y-53556000D03*
X130435000Y-51016000D03*
D11*
X142500000Y-58250000D03*
X142500000Y-56345000D03*
%TD*%
D12*
%TO.C,SW4*%
X106750000Y-63000000D03*
X113250000Y-63000000D03*
X106750000Y-67500000D03*
X113250000Y-67500000D03*
%TD*%
D13*
%TO.C,D1*%
X124500000Y-81500000D03*
D14*
X127040000Y-81500000D03*
%TD*%
D15*
%TO.C,SW1*%
X160500000Y-62000000D03*
D12*
X160500000Y-67000000D03*
X160500000Y-64500000D03*
D16*
X168000000Y-58900000D03*
X168000000Y-70100000D03*
D12*
X175000000Y-67000000D03*
X175000000Y-62000000D03*
%TD*%
D13*
%TO.C,D2*%
X150460000Y-81500000D03*
D14*
X153000000Y-81500000D03*
%TD*%
D16*
%TO.C,H2*%
X179500000Y-87000000D03*
%TD*%
D17*
%TO.C,U2*%
X134690000Y-94500000D03*
D18*
X137230000Y-94500000D03*
X139770000Y-94500000D03*
X142310000Y-94500000D03*
D19*
X127500000Y-95000000D03*
X149500000Y-95000000D03*
X149500000Y-117000000D03*
X127500000Y-117000000D03*
%TD*%
D20*
%TO.C,BT1*%
X166500000Y-92000000D03*
D21*
X169040000Y-92000000D03*
%TD*%
D16*
%TO.C,H1*%
X97000000Y-87000000D03*
%TD*%
D12*
%TO.C,SW3*%
X106500000Y-82000000D03*
X113000000Y-82000000D03*
X106500000Y-86500000D03*
X113000000Y-86500000D03*
%TD*%
%TO.C,SW2*%
X106500000Y-99750000D03*
X113000000Y-99750000D03*
X106500000Y-104250000D03*
X113000000Y-104250000D03*
%TD*%
D22*
%TO.C,R1*%
X165190000Y-83000000D03*
D23*
X172810000Y-83000000D03*
%TD*%
M02*
