M48
; DRILL file KiCad 10.0.3-10.0.3~ubuntu24.04.1 date 2026-06-19T13:07:17
; FORMAT={-:-/ absolute / metric / decimal}
; #@! TF.CreationDate,2026-06-19T13:07:17+02:00
; #@! TF.GenerationSoftware,Kicad,Pcbnew,10.0.3-10.0.3~ubuntu24.04.1
; #@! TF.FileFunction,Plated,1,2,PTH
FMAT,2
METRIC
; #@! TA.AperFunction,Plated,PTH,ViaDrill
T1C0.300
; #@! TA.AperFunction,Plated,PTH,ComponentDrill
T2C0.800
; #@! TA.AperFunction,Plated,PTH,ComponentDrill
T3C0.889
; #@! TA.AperFunction,Plated,PTH,ComponentDrill
T4C0.900
; #@! TA.AperFunction,Plated,PTH,ComponentDrill
T5C1.000
; #@! TA.AperFunction,Plated,PTH,ComponentDrill
T6C1.100
; #@! TA.AperFunction,Plated,PTH,ComponentDrill
T7C2.000
; #@! TA.AperFunction,Plated,PTH,ComponentDrill
T8C2.600
%
G90
G05
T1
X116.076Y-84.0
X136.0Y-66.568
X144.5Y-71.5
X150.0Y-63.5
X150.0Y-76.5
T2
X165.19Y-83.0
X172.81Y-83.0
T3
X130.435Y-51.016
X130.435Y-53.556
X130.435Y-56.096
X130.435Y-58.636
X130.435Y-61.176
X130.435Y-63.716
X130.435Y-66.256
X142.5Y-56.345
X142.5Y-58.25
X145.675Y-51.016
X145.675Y-53.556
X145.675Y-56.096
X145.675Y-58.636
X145.675Y-61.176
X145.675Y-63.716
X145.675Y-66.256
T4
X124.5Y-81.5
X127.04Y-81.5
X150.46Y-81.5
X153.0Y-81.5
T5
X134.69Y-94.5
X137.23Y-94.5
X139.77Y-94.5
X142.31Y-94.5
X160.5Y-62.0
X160.5Y-64.5
X160.5Y-67.0
X166.5Y-92.0
X169.04Y-92.0
X175.0Y-62.0
X175.0Y-67.0
T6
X106.5Y-82.0
X106.5Y-86.5
X106.5Y-99.75
X106.5Y-104.25
X106.75Y-63.0
X106.75Y-67.5
X113.0Y-82.0
X113.0Y-86.5
X113.0Y-99.75
X113.0Y-104.25
X113.25Y-63.0
X113.25Y-67.5
T7
X127.5Y-95.0
X127.5Y-117.0
X149.5Y-95.0
X149.5Y-117.0
T8
X168.0Y-58.9
X168.0Y-70.1
M30
