%TF.GenerationSoftware,KiCad,Pcbnew,10.0.3-10.0.3~ubuntu24.04.1*%
%TF.CreationDate,2026-06-19T13:07:10+02:00*%
%TF.ProjectId,ringotchi,72696e67-6f74-4636-9869-2e6b69636164,rev?*%
%TF.SameCoordinates,Original*%
%TF.FileFunction,Copper,L2,Bot*%
%TF.FilePolarity,Positive*%
%FSLAX46Y46*%
G04 Gerber Fmt 4.6, Leading zero omitted, Abs format (unit mm)*
G04 Created by KiCad (PCBNEW 10.0.3-10.0.3~ubuntu24.04.1) date 2026-06-19 13:07:10*
%MOMM*%
%LPD*%
G01*
G04 APERTURE LIST*
G04 Aperture macros list*
%AMRoundRect*
0 Rectangle with rounded corners*
0 $1 Rounding radius*
0 $2 $3 $4 $5 $6 $7 $8 $9 X,Y pos of 4 corners*
0 Add a 4 corners polygon primitive as box body*
4,1,4,$2,$3,$4,$5,$6,$7,$8,$9,$2,$3,0*
0 Add four circle primitives for the rounded corners*
1,1,$1+$1,$2,$3*
1,1,$1+$1,$4,$5*
1,1,$1+$1,$6,$7*
1,1,$1+$1,$8,$9*
0 Add four rect primitives between the rounded corners*
20,1,$1+$1,$2,$3,$4,$5,0*
20,1,$1+$1,$4,$5,$6,$7,0*
20,1,$1+$1,$6,$7,$8,$9,0*
20,1,$1+$1,$8,$9,$2,$3,0*%
G04 Aperture macros list end*
%TA.AperFunction,ComponentPad*%
%ADD10C,1.524000*%
%TD*%
%TA.AperFunction,SMDPad,CuDef*%
%ADD11RoundRect,0.152400X-1.063600X-0.609600X1.063600X-0.609600X1.063600X0.609600X-1.063600X0.609600X0*%
%TD*%
%TA.AperFunction,SMDPad,CuDef*%
%ADD12RoundRect,0.152400X1.063600X0.609600X-1.063600X0.609600X-1.063600X-0.609600X1.063600X-0.609600X0*%
%TD*%
%TA.AperFunction,ComponentPad*%
%ADD13RoundRect,0.275000X-0.975000X-0.275000X0.975000X-0.275000X0.975000X0.275000X-0.975000X0.275000X0*%
%TD*%
%TA.AperFunction,SMDPad,CuDef*%
%ADD14C,1.700000*%
%TD*%
%TA.AperFunction,ComponentPad*%
%ADD15C,2.000000*%
%TD*%
%TA.AperFunction,ComponentPad*%
%ADD16R,1.800000X1.800000*%
%TD*%
%TA.AperFunction,ComponentPad*%
%ADD17C,1.800000*%
%TD*%
%TA.AperFunction,ComponentPad*%
%ADD18R,2.000000X2.000000*%
%TD*%
%TA.AperFunction,ComponentPad*%
%ADD19C,3.200000*%
%TD*%
%TA.AperFunction,ComponentPad*%
%ADD20R,1.508000X1.508000*%
%TD*%
%TA.AperFunction,ComponentPad*%
%ADD21C,1.508000*%
%TD*%
%TA.AperFunction,ComponentPad*%
%ADD22C,3.000000*%
%TD*%
%TA.AperFunction,ComponentPad*%
%ADD23R,1.700000X1.700000*%
%TD*%
%TA.AperFunction,ComponentPad*%
%ADD24O,1.700000X1.700000*%
%TD*%
%TA.AperFunction,ComponentPad*%
%ADD25C,1.600000*%
%TD*%
%TA.AperFunction,ComponentPad*%
%ADD26O,1.600000X1.600000*%
%TD*%
%TA.AperFunction,ViaPad*%
%ADD27C,0.600000*%
%TD*%
%TA.AperFunction,Conductor*%
%ADD28C,0.200000*%
%TD*%
G04 APERTURE END LIST*
D10*
%TO.P,U1,1,GPIO2_A0_D0_1*%
%TO.N,Net-(U1-GPIO2_A0_D0)*%
X145675000Y-51016000D03*
D11*
X146510000Y-51016000D03*
D10*
%TO.P,U1,2,GPIO3_A1_D1_2*%
%TO.N,Net-(U1-GPIO3_A1_D1)*%
X145675000Y-53556000D03*
D11*
X146510000Y-53556000D03*
D10*
%TO.P,U1,3,GPIO4_A2_D2_3*%
%TO.N,Net-(U1-GPIO4_A2_D2)*%
X145675000Y-56096000D03*
D11*
X146510000Y-56096000D03*
D10*
%TO.P,U1,4,GPIO5_A3_D3_4*%
%TO.N,unconnected-(U1-GPIO5_A3_D3-Pad4)_1*%
X145675000Y-58636000D03*
D11*
%TO.N,unconnected-(U1-GPIO5_A3_D3-Pad4)*%
X146510000Y-58636000D03*
D10*
%TO.P,U1,5,GPIO6_D4_SDA_5*%
%TO.N,Net-(U1-GPIO6_D4_SDA)*%
X145675000Y-61176000D03*
D11*
X146510000Y-61176000D03*
D10*
%TO.P,U1,6,GPIO7_D5_SCL_6*%
%TO.N,Net-(U1-GPIO7_D5_SCL)*%
X145675000Y-63716000D03*
D11*
X146510000Y-63716000D03*
D10*
%TO.P,U1,7,GPIO21_D6_TX_7*%
%TO.N,Net-(U1-GPIO21_D6_TX)*%
X145675000Y-66256000D03*
D11*
X146510000Y-66256000D03*
D12*
%TO.P,U1,8,GPIO20_D7_RX_8*%
%TO.N,Net-(U1-GPIO20_D7_RX)*%
X129600000Y-66256000D03*
D10*
X130435000Y-66256000D03*
D12*
%TO.P,U1,9,GPIO8_D8_SCK_9*%
%TO.N,Net-(U1-GPIO8_D8_SCK)*%
X129600000Y-63716000D03*
D10*
X130435000Y-63716000D03*
D12*
%TO.P,U1,10,GPIO9_D9_MISO_10*%
%TO.N,Net-(D2-A)*%
X129600000Y-61176000D03*
D10*
X130435000Y-61176000D03*
D12*
%TO.P,U1,11,GPIO10_D10_MOSI_11*%
%TO.N,Net-(D1-A)*%
X129600000Y-58636000D03*
D10*
X130435000Y-58636000D03*
D12*
%TO.P,U1,12,3V3_12*%
%TO.N,+3V3*%
X129600000Y-56096000D03*
D10*
X130435000Y-56096000D03*
D12*
%TO.P,U1,13,GND_13*%
%TO.N,GND*%
X129600000Y-53556000D03*
D10*
X130435000Y-53556000D03*
D12*
%TO.P,U1,14,VBUS_14*%
%TO.N,+5V*%
X129600000Y-51016000D03*
D10*
X130435000Y-51016000D03*
D13*
%TO.P,U1,15*%
%TO.N,N/C*%
X142500000Y-58250000D03*
%TO.P,U1,16*%
X142500000Y-56345000D03*
D14*
%TO.P,U1,17*%
X139325000Y-50000000D03*
%TO.P,U1,18*%
X136785000Y-50000000D03*
%TO.P,U1,19*%
X139325000Y-52540000D03*
%TO.P,U1,20*%
X136785000Y-52540000D03*
%TO.P,U1,21*%
X139325000Y-55080000D03*
%TO.P,U1,22*%
X136785000Y-55080000D03*
%TD*%
D15*
%TO.P,SW4,1,1_1*%
%TO.N,GND*%
X106750000Y-63000000D03*
X113250000Y-63000000D03*
%TO.P,SW4,2,2_2*%
%TO.N,Net-(U1-GPIO4_A2_D2)*%
X106750000Y-67500000D03*
X113250000Y-67500000D03*
%TD*%
D16*
%TO.P,D1,1,K_1*%
%TO.N,Net-(D1-K)*%
X124500000Y-81500000D03*
D17*
%TO.P,D1,2,A_2*%
%TO.N,Net-(D1-A)*%
X127040000Y-81500000D03*
%TD*%
D18*
%TO.P,SW1,A,A_A*%
%TO.N,Net-(U1-GPIO8_D8_SCK)*%
X160500000Y-62000000D03*
D15*
%TO.P,SW1,B,B_B*%
%TO.N,Net-(U1-GPIO20_D7_RX)*%
X160500000Y-67000000D03*
%TO.P,SW1,C,GND_C*%
%TO.N,GND*%
X160500000Y-64500000D03*
D19*
%TO.P,SW1,MP,MP_MP*%
%TO.N,unconnected-(SW1-PadMP)*%
X168000000Y-58900000D03*
%TO.N,unconnected-(SW1-PadMP)_1*%
X168000000Y-70100000D03*
D15*
%TO.P,SW1,S1,S1_S1*%
%TO.N,Net-(U1-GPIO21_D6_TX)*%
X175000000Y-67000000D03*
%TO.P,SW1,S2,GND_S2*%
%TO.N,GND*%
X175000000Y-62000000D03*
%TD*%
D16*
%TO.P,D2,1,K_1*%
%TO.N,Net-(D1-K)*%
X150460000Y-81500000D03*
D17*
%TO.P,D2,2,A_2*%
%TO.N,Net-(D2-A)*%
X153000000Y-81500000D03*
%TD*%
D20*
%TO.P,U2,1,GND_1*%
%TO.N,GND*%
X134690000Y-94500000D03*
D21*
%TO.P,U2,2,VCC_IN_2*%
%TO.N,+3V3*%
X137230000Y-94500000D03*
%TO.P,U2,3,SCL_3*%
%TO.N,Net-(U1-GPIO7_D5_SCL)*%
X139770000Y-94500000D03*
%TO.P,U2,4,SDA_4*%
%TO.N,Net-(U1-GPIO6_D4_SDA)*%
X142310000Y-94500000D03*
D22*
%TO.P,U2,S1*%
%TO.N,N/C*%
X127500000Y-95000000D03*
%TO.P,U2,S2*%
X149500000Y-95000000D03*
%TO.P,U2,S3*%
X149500000Y-117000000D03*
%TO.P,U2,S4*%
X127500000Y-117000000D03*
%TD*%
D23*
%TO.P,BT1,1,+_1*%
%TO.N,+BATT*%
X166500000Y-92000000D03*
D24*
%TO.P,BT1,2,-_2*%
%TO.N,GND*%
X169040000Y-92000000D03*
%TD*%
D15*
%TO.P,SW3,1,1_1*%
%TO.N,GND*%
X106500000Y-82000000D03*
X113000000Y-82000000D03*
%TO.P,SW3,2,2_2*%
%TO.N,Net-(U1-GPIO3_A1_D1)*%
X106500000Y-86500000D03*
X113000000Y-86500000D03*
%TD*%
%TO.P,SW2,1,1_1*%
%TO.N,GND*%
X106500000Y-99750000D03*
X113000000Y-99750000D03*
%TO.P,SW2,2,2_2*%
%TO.N,Net-(U1-GPIO2_A0_D0)*%
X106500000Y-104250000D03*
X113000000Y-104250000D03*
%TD*%
D25*
%TO.P,R1,1*%
%TO.N,Net-(D1-K)*%
X165190000Y-83000000D03*
D26*
%TO.P,R1,2*%
%TO.N,GND*%
X172810000Y-83000000D03*
%TD*%
D27*
%TO.N,GND*%
X116075735Y-84000000D03*
%TO.N,Net-(U1-GPIO8_D8_SCK)*%
X136000000Y-66568000D03*
%TO.N,Net-(U1-GPIO7_D5_SCL)*%
X144500000Y-71500000D03*
%TO.N,Net-(U1-GPIO6_D4_SDA)*%
X150000000Y-76500000D03*
X150000000Y-63500000D03*
%TD*%
%TO.N,Net-(U1-GPIO2_A0_D0)*%
D28*
X113000000Y-104250000D02*
X109000000Y-100250000D01*
X109000000Y-100250000D02*
X109000000Y-65411522D01*
X131500000Y-55000000D02*
X133000000Y-53500000D01*
X109000000Y-65411522D02*
X119411522Y-55000000D01*
X119411522Y-55000000D02*
X131500000Y-55000000D01*
X133000000Y-53500000D02*
X136070000Y-53500000D01*
X136500000Y-53930000D02*
X142761000Y-53930000D01*
X136070000Y-53500000D02*
X136500000Y-53930000D01*
X142761000Y-53930000D02*
X145675000Y-51016000D01*
%TO.N,Net-(U1-GPIO3_A1_D1)*%
X145675000Y-53556000D02*
X147260000Y-53556000D01*
X147260000Y-53556000D02*
X148026000Y-54322000D01*
X113000000Y-86500000D02*
X116500000Y-86500000D01*
X144613000Y-57780105D02*
X145235105Y-57158000D01*
X116500000Y-86500000D02*
X128000000Y-75000000D01*
X128000000Y-75000000D02*
X128000000Y-65500000D01*
X128000000Y-65500000D02*
X128500000Y-65000000D01*
X128500000Y-65000000D02*
X138499999Y-65000000D01*
X138499999Y-65000000D02*
X144613000Y-58886999D01*
X147765214Y-57158000D02*
X148026000Y-56897214D01*
X148026000Y-56897214D02*
X148026000Y-54322000D01*
X144613000Y-58886999D02*
X144613000Y-57780105D01*
X145235105Y-57158000D02*
X147765214Y-57158000D01*
%TO.N,Net-(U1-GPIO21_D6_TX)*%
X145675000Y-66256000D02*
X153644000Y-66256000D01*
X153644000Y-66256000D02*
X159200000Y-60700000D01*
X159200000Y-60700000D02*
X167112994Y-60700000D01*
X167112994Y-60700000D02*
X173412994Y-67000000D01*
X173412994Y-67000000D02*
X175000000Y-67000000D01*
%TO.N,Net-(U1-GPIO8_D8_SCK)*%
X136000000Y-66568000D02*
X136932000Y-67500000D01*
X136932000Y-67500000D02*
X155000000Y-67500000D01*
X155000000Y-67500000D02*
X160500000Y-62000000D01*
%TO.N,+3V3*%
X123992478Y-56096000D02*
X122492478Y-56096000D01*
X122492478Y-56096000D02*
X111700000Y-66888478D01*
X117861522Y-93200000D02*
X135930000Y-93200000D01*
X111700000Y-66888478D02*
X111700000Y-87038478D01*
X111700000Y-87038478D02*
X117861522Y-93200000D01*
X135930000Y-93200000D02*
X137230000Y-94500000D01*
X123992478Y-56096000D02*
X130435000Y-56096000D01*
%TO.N,Net-(U1-GPIO4_A2_D2)*%
X145675000Y-56096000D02*
X145032000Y-56096000D01*
X123555000Y-57195000D02*
X113250000Y-67500000D01*
X145032000Y-56096000D02*
X143933000Y-57195000D01*
X143933000Y-57195000D02*
X123555000Y-57195000D01*
%TO.N,Net-(U1-GPIO6_D4_SDA)*%
X148176000Y-61176000D02*
X150000000Y-63000000D01*
X150000000Y-63000000D02*
X150000000Y-63500000D01*
X148176000Y-61176000D02*
X145675000Y-61176000D01*
%TO.N,GND*%
X116075735Y-84000000D02*
X116075735Y-82575735D01*
X116075735Y-82575735D02*
X115500000Y-82000000D01*
X115500000Y-82000000D02*
X113000000Y-82000000D01*
%TO.N,Net-(U1-GPIO20_D7_RX)*%
X157500000Y-70000000D02*
X134094000Y-70000000D01*
X160500000Y-67000000D02*
X157500000Y-70000000D01*
X134094000Y-70000000D02*
X129600000Y-65506000D01*
%TO.N,Net-(U1-GPIO3_A1_D1)*%
X146510000Y-52806000D02*
X145675000Y-52806000D01*
%TO.N,Net-(U1-GPIO7_D5_SCL)*%
X144500000Y-71500000D02*
X144500000Y-72500000D01*
X144500000Y-72500000D02*
X139770000Y-77230000D01*
X139770000Y-77230000D02*
X139770000Y-94500000D01*
%TO.N,Net-(U1-GPIO6_D4_SDA)*%
X150000000Y-76500000D02*
X147000000Y-79500000D01*
X147000000Y-79500000D02*
X147000000Y-89810000D01*
X147000000Y-89810000D02*
X142310000Y-94500000D01*
%TD*%
%TA.AperFunction,NonConductor*%
G36*
X138126444Y-50653999D02*
G01*
X138165486Y-50699056D01*
X138169951Y-50707820D01*
X138294890Y-50879786D01*
X138445213Y-51030109D01*
X138617182Y-51155050D01*
X138625946Y-51159516D01*
X138676742Y-51207491D01*
X138693536Y-51275312D01*
X138670998Y-51341447D01*
X138625946Y-51380484D01*
X138617182Y-51384949D01*
X138445213Y-51509890D01*
X138294890Y-51660213D01*
X138169949Y-51832182D01*
X138165484Y-51840946D01*
X138117509Y-51891742D01*
X138049688Y-51908536D01*
X137983553Y-51885998D01*
X137944516Y-51840946D01*
X137940050Y-51832182D01*
X137815109Y-51660213D01*
X137664786Y-51509890D01*
X137492820Y-51384951D01*
X137490335Y-51383685D01*
X137484054Y-51380485D01*
X137433259Y-51332512D01*
X137416463Y-51264692D01*
X137438999Y-51198556D01*
X137484054Y-51159515D01*
X137492816Y-51155051D01*
X137547445Y-51115361D01*
X137664786Y-51030109D01*
X137664788Y-51030106D01*
X137664792Y-51030104D01*
X137815104Y-50879792D01*
X137815106Y-50879788D01*
X137815109Y-50879786D01*
X137940048Y-50707820D01*
X137940047Y-50707820D01*
X137940051Y-50707816D01*
X137944514Y-50699054D01*
X137992488Y-50648259D01*
X138060308Y-50631463D01*
X138126444Y-50653999D01*
G37*
%TD.AperFunction*%
%TA.AperFunction,NonConductor*%
G36*
X144431788Y-50279545D02*
G01*
X144498690Y-50299675D01*
X144544092Y-50352783D01*
X144553574Y-50422006D01*
X144541442Y-50459836D01*
X144504995Y-50531367D01*
X144504993Y-50531370D01*
X144443587Y-50720362D01*
X144412500Y-50916639D01*
X144412500Y-51115360D01*
X144443586Y-51311636D01*
X144444131Y-51313903D01*
X144444086Y-51314790D01*
X144444349Y-51316448D01*
X144444000Y-51316503D01*
X144440638Y-51383685D01*
X144411237Y-51430526D01*
X142548584Y-53293181D01*
X142487261Y-53326666D01*
X142460903Y-53329500D01*
X140640781Y-53329500D01*
X140573742Y-53309815D01*
X140527987Y-53257011D01*
X140518043Y-53187853D01*
X140530296Y-53149205D01*
X140540230Y-53129706D01*
X140576557Y-53058412D01*
X140642246Y-52856243D01*
X140675500Y-52646287D01*
X140675500Y-52433713D01*
X140642246Y-52223757D01*
X140576557Y-52021588D01*
X140480051Y-51832184D01*
X140480049Y-51832181D01*
X140480048Y-51832179D01*
X140355109Y-51660213D01*
X140204786Y-51509890D01*
X140032820Y-51384951D01*
X140030335Y-51383685D01*
X140024054Y-51380485D01*
X139973259Y-51332512D01*
X139956463Y-51264692D01*
X139978999Y-51198556D01*
X140024054Y-51159515D01*
X140032816Y-51155051D01*
X140087445Y-51115361D01*
X140204786Y-51030109D01*
X140204788Y-51030106D01*
X140204792Y-51030104D01*
X140355104Y-50879792D01*
X140355106Y-50879788D01*
X140355109Y-50879786D01*
X140480048Y-50707820D01*
X140480047Y-50707820D01*
X140480051Y-50707816D01*
X140576557Y-50518412D01*
X140634300Y-50340697D01*
X140673738Y-50283022D01*
X140738096Y-50255824D01*
X140753035Y-50255020D01*
X144431788Y-50279545D01*
G37*
%TD.AperFunction*%
%TA.AperFunction,NonConductor*%
G36*
X135347476Y-50218983D02*
G01*
X135414382Y-50239114D01*
X135459784Y-50292222D01*
X135467219Y-50314017D01*
X135467751Y-50316235D01*
X135480121Y-50354306D01*
X135514410Y-50459836D01*
X135533444Y-50518414D01*
X135629951Y-50707820D01*
X135754890Y-50879786D01*
X135905213Y-51030109D01*
X136077182Y-51155050D01*
X136085946Y-51159516D01*
X136136742Y-51207491D01*
X136153536Y-51275312D01*
X136130998Y-51341447D01*
X136085946Y-51380484D01*
X136077182Y-51384949D01*
X135905213Y-51509890D01*
X135754890Y-51660213D01*
X135629951Y-51832179D01*
X135533444Y-52021585D01*
X135467753Y-52223760D01*
X135434500Y-52433713D01*
X135434500Y-52646286D01*
X135451893Y-52756102D01*
X135442938Y-52825396D01*
X135397942Y-52878848D01*
X135331191Y-52899487D01*
X135329420Y-52899500D01*
X132920940Y-52899500D01*
X132880019Y-52910464D01*
X132880019Y-52910465D01*
X132842751Y-52920451D01*
X132768214Y-52940423D01*
X132768209Y-52940426D01*
X132631290Y-53019475D01*
X132631282Y-53019481D01*
X131909181Y-53741583D01*
X131847858Y-53775068D01*
X131778166Y-53770084D01*
X131722233Y-53728212D01*
X131697816Y-53662748D01*
X131697500Y-53653902D01*
X131697500Y-53456639D01*
X131690830Y-53414526D01*
X131666413Y-53260364D01*
X131628711Y-53144328D01*
X131605006Y-53071370D01*
X131605005Y-53071367D01*
X131517433Y-52899500D01*
X131514787Y-52894306D01*
X131397981Y-52733536D01*
X131257464Y-52593019D01*
X131177938Y-52535240D01*
X131171175Y-52529960D01*
X131167000Y-52526461D01*
X131066947Y-52426408D01*
X131001259Y-52387560D01*
X130993477Y-52381038D01*
X130979510Y-52360073D01*
X130962321Y-52341663D01*
X130960471Y-52331492D01*
X130954740Y-52322890D01*
X130954324Y-52297702D01*
X130949817Y-52272921D01*
X130953758Y-52263366D01*
X130953588Y-52253030D01*
X130966856Y-52231616D01*
X130976462Y-52208332D01*
X130986874Y-52199309D01*
X130990389Y-52193638D01*
X130997127Y-52190425D01*
X131010004Y-52179268D01*
X131066947Y-52145592D01*
X131163148Y-52049389D01*
X131177939Y-52036758D01*
X131257464Y-51978981D01*
X131397981Y-51838464D01*
X131514787Y-51677694D01*
X131605005Y-51500632D01*
X131666413Y-51311636D01*
X131697500Y-51115361D01*
X131697500Y-50916639D01*
X131666413Y-50720364D01*
X131605005Y-50531368D01*
X131605000Y-50531357D01*
X131525094Y-50374534D01*
X131512197Y-50305865D01*
X131538473Y-50241125D01*
X131595579Y-50200867D01*
X131636400Y-50194242D01*
X135347476Y-50218983D01*
G37*
%TD.AperFunction*%
%TA.AperFunction,NonConductor*%
G36*
X144297318Y-53304455D02*
G01*
X144328848Y-53304904D01*
X144331901Y-53306928D01*
X144335557Y-53307190D01*
X144360800Y-53326087D01*
X144387083Y-53343512D01*
X144388557Y-53346866D01*
X144391490Y-53349062D01*
X144402506Y-53378598D01*
X144415200Y-53407474D01*
X144415129Y-53412440D01*
X144415907Y-53414526D01*
X144414697Y-53442765D01*
X144412500Y-53456639D01*
X144412500Y-53655361D01*
X144426156Y-53741583D01*
X144443587Y-53851637D01*
X144504993Y-54040629D01*
X144504994Y-54040632D01*
X144578784Y-54185450D01*
X144595213Y-54217694D01*
X144712019Y-54378464D01*
X144712021Y-54378466D01*
X144852539Y-54518984D01*
X144932060Y-54576758D01*
X144938824Y-54582039D01*
X144942998Y-54585537D01*
X145043053Y-54685592D01*
X145108737Y-54724437D01*
X145116522Y-54730962D01*
X145130488Y-54751926D01*
X145147679Y-54770338D01*
X145149528Y-54780506D01*
X145155260Y-54789110D01*
X145155674Y-54814297D01*
X145160182Y-54839079D01*
X145156239Y-54848634D01*
X145156410Y-54858970D01*
X145143143Y-54880381D01*
X145133536Y-54903669D01*
X145123122Y-54912692D01*
X145119609Y-54918363D01*
X145112871Y-54921575D01*
X145099996Y-54932732D01*
X145043053Y-54966408D01*
X145043046Y-54966413D01*
X144946854Y-55062604D01*
X144932061Y-55075239D01*
X144852536Y-55133018D01*
X144712021Y-55273533D01*
X144595213Y-55434305D01*
X144504994Y-55611367D01*
X144504992Y-55611373D01*
X144442082Y-55804996D01*
X144440884Y-55804606D01*
X144408970Y-55860156D01*
X144346935Y-55892303D01*
X144277368Y-55885809D01*
X144222355Y-55842735D01*
X144206172Y-55811556D01*
X144178122Y-55731394D01*
X144085147Y-55583424D01*
X143961576Y-55459853D01*
X143813606Y-55366878D01*
X143813605Y-55366877D01*
X143813604Y-55366877D01*
X143648658Y-55309159D01*
X143648648Y-55309157D01*
X143518558Y-55294500D01*
X143518552Y-55294500D01*
X141481448Y-55294500D01*
X141481441Y-55294500D01*
X141351351Y-55309157D01*
X141351341Y-55309159D01*
X141186395Y-55366877D01*
X141038423Y-55459853D01*
X140914853Y-55583423D01*
X140821877Y-55731395D01*
X140764159Y-55896341D01*
X140764157Y-55896351D01*
X140749500Y-56026441D01*
X140749500Y-56470500D01*
X140729815Y-56537539D01*
X140677011Y-56583294D01*
X140625500Y-56594500D01*
X139817061Y-56594500D01*
X139750022Y-56574815D01*
X139704267Y-56522011D01*
X139694323Y-56452853D01*
X139723348Y-56389297D01*
X139778742Y-56352569D01*
X139843412Y-56331557D01*
X140032816Y-56235051D01*
X140087445Y-56195361D01*
X140204786Y-56110109D01*
X140204788Y-56110106D01*
X140204792Y-56110104D01*
X140355104Y-55959792D01*
X140355106Y-55959788D01*
X140355109Y-55959786D01*
X140480048Y-55787820D01*
X140480047Y-55787820D01*
X140480051Y-55787816D01*
X140576557Y-55598412D01*
X140642246Y-55396243D01*
X140675500Y-55186287D01*
X140675500Y-54973713D01*
X140642246Y-54763757D01*
X140619195Y-54692816D01*
X140617201Y-54622977D01*
X140653281Y-54563144D01*
X140715982Y-54532316D01*
X140737127Y-54530500D01*
X142674331Y-54530500D01*
X142674347Y-54530501D01*
X142681943Y-54530501D01*
X142840054Y-54530501D01*
X142840057Y-54530501D01*
X142992785Y-54489577D01*
X143042904Y-54460639D01*
X143129716Y-54410520D01*
X143241520Y-54298716D01*
X143241520Y-54298714D01*
X143251728Y-54288507D01*
X143251730Y-54288504D01*
X144204544Y-53335689D01*
X144232218Y-53320578D01*
X144258986Y-53303910D01*
X144262648Y-53303962D01*
X144265865Y-53302206D01*
X144297318Y-53304455D01*
G37*
%TD.AperFunction*%
%TA.AperFunction,NonConductor*%
G36*
X138126444Y-55733999D02*
G01*
X138165486Y-55779056D01*
X138169951Y-55787820D01*
X138294890Y-55959786D01*
X138445213Y-56110109D01*
X138617179Y-56235048D01*
X138617181Y-56235049D01*
X138617184Y-56235051D01*
X138806588Y-56331557D01*
X138871257Y-56352569D01*
X138928933Y-56392007D01*
X138956131Y-56456365D01*
X138944216Y-56525212D01*
X138896972Y-56576687D01*
X138832939Y-56594500D01*
X137277061Y-56594500D01*
X137210022Y-56574815D01*
X137164267Y-56522011D01*
X137154323Y-56452853D01*
X137183348Y-56389297D01*
X137238742Y-56352569D01*
X137303412Y-56331557D01*
X137492816Y-56235051D01*
X137547445Y-56195361D01*
X137664786Y-56110109D01*
X137664788Y-56110106D01*
X137664792Y-56110104D01*
X137815104Y-55959792D01*
X137815106Y-55959788D01*
X137815109Y-55959786D01*
X137940048Y-55787820D01*
X137940047Y-55787820D01*
X137940051Y-55787816D01*
X137944514Y-55779054D01*
X137992488Y-55728259D01*
X138060308Y-55711463D01*
X138126444Y-55733999D01*
G37*
%TD.AperFunction*%
%TA.AperFunction,NonConductor*%
G36*
X135596055Y-54104047D02*
G01*
X135608600Y-54102970D01*
X135628944Y-54113704D01*
X135651014Y-54120185D01*
X135659258Y-54129700D01*
X135670395Y-54135576D01*
X135681706Y-54155606D01*
X135696769Y-54172989D01*
X135698560Y-54185450D01*
X135704752Y-54196414D01*
X135703439Y-54219378D01*
X135706713Y-54242147D01*
X135701387Y-54255268D01*
X135700764Y-54266170D01*
X135684293Y-54297385D01*
X135629951Y-54372180D01*
X135533444Y-54561585D01*
X135467753Y-54763760D01*
X135434500Y-54973713D01*
X135434500Y-55186286D01*
X135463393Y-55368713D01*
X135467754Y-55396243D01*
X135530571Y-55589574D01*
X135533444Y-55598414D01*
X135629951Y-55787820D01*
X135754890Y-55959786D01*
X135905213Y-56110109D01*
X136077179Y-56235048D01*
X136077181Y-56235049D01*
X136077184Y-56235051D01*
X136266588Y-56331557D01*
X136331257Y-56352569D01*
X136388933Y-56392007D01*
X136416131Y-56456365D01*
X136404216Y-56525212D01*
X136356972Y-56576687D01*
X136292939Y-56594500D01*
X131771170Y-56594500D01*
X131704131Y-56574815D01*
X131658376Y-56522011D01*
X131648432Y-56452853D01*
X131653239Y-56432182D01*
X131666292Y-56392007D01*
X131666413Y-56391636D01*
X131697500Y-56195361D01*
X131697500Y-55996639D01*
X131666413Y-55800364D01*
X131640056Y-55719247D01*
X131638062Y-55649407D01*
X131674142Y-55589574D01*
X131702589Y-55569993D01*
X131713793Y-55564397D01*
X131731785Y-55559577D01*
X131781904Y-55530639D01*
X131868716Y-55480520D01*
X131980520Y-55368716D01*
X131980520Y-55368714D01*
X131990728Y-55358507D01*
X131990729Y-55358504D01*
X133212416Y-54136819D01*
X133273739Y-54103334D01*
X133300097Y-54100500D01*
X135583975Y-54100500D01*
X135596055Y-54104047D01*
G37*
%TD.AperFunction*%
%TA.AperFunction,NonConductor*%
G36*
X121906419Y-55620185D02*
G01*
X121952174Y-55672989D01*
X121962118Y-55742147D01*
X121933093Y-55805703D01*
X121927061Y-55812181D01*
X114937191Y-62802050D01*
X114875868Y-62835535D01*
X114806176Y-62830551D01*
X114750243Y-62788679D01*
X114727037Y-62733767D01*
X114720935Y-62695240D01*
X114713553Y-62648632D01*
X114640568Y-62424008D01*
X114640566Y-62424005D01*
X114640566Y-62424003D01*
X114580232Y-62305591D01*
X114533343Y-62213567D01*
X114394517Y-62022490D01*
X114227510Y-61855483D01*
X114036433Y-61716657D01*
X113862351Y-61627957D01*
X113811555Y-61579982D01*
X113794760Y-61512161D01*
X113817298Y-61446026D01*
X113830959Y-61429797D01*
X119623939Y-55636819D01*
X119685262Y-55603334D01*
X119711620Y-55600500D01*
X121839380Y-55600500D01*
X121906419Y-55620185D01*
G37*
%TD.AperFunction*%
%TA.AperFunction,NonConductor*%
G36*
X140693100Y-57815185D02*
G01*
X140738855Y-57867989D01*
X140748417Y-57927900D01*
X140749695Y-57927972D01*
X140749500Y-57931445D01*
X140749500Y-58568558D01*
X140764157Y-58698648D01*
X140764159Y-58698658D01*
X140776614Y-58734251D01*
X140821878Y-58863606D01*
X140914853Y-59011576D01*
X141038424Y-59135147D01*
X141186394Y-59228122D01*
X141351343Y-59285841D01*
X141351349Y-59285841D01*
X141351351Y-59285842D01*
X141392750Y-59290506D01*
X141481442Y-59300499D01*
X141481445Y-59300500D01*
X141481448Y-59300500D01*
X143050902Y-59300500D01*
X143117941Y-59320185D01*
X143163696Y-59372989D01*
X143173640Y-59442147D01*
X143144615Y-59505703D01*
X143138583Y-59512181D01*
X138287583Y-64363181D01*
X138226260Y-64396666D01*
X138199902Y-64399500D01*
X131706027Y-64399500D01*
X131638988Y-64379815D01*
X131593233Y-64327011D01*
X131583289Y-64257853D01*
X131595542Y-64219206D01*
X131605002Y-64200638D01*
X131605006Y-64200629D01*
X131630623Y-64121786D01*
X131666413Y-64011636D01*
X131697500Y-63815361D01*
X131697500Y-63616639D01*
X131666413Y-63420364D01*
X131616421Y-63266503D01*
X131605006Y-63231370D01*
X131605005Y-63231367D01*
X131541882Y-63107483D01*
X131514787Y-63054306D01*
X131397981Y-62893536D01*
X131257464Y-62753019D01*
X131177937Y-62695239D01*
X131171175Y-62689960D01*
X131167000Y-62686461D01*
X131066947Y-62586408D01*
X131001259Y-62547560D01*
X130993477Y-62541038D01*
X130979510Y-62520073D01*
X130962321Y-62501663D01*
X130960471Y-62491492D01*
X130954740Y-62482890D01*
X130954324Y-62457702D01*
X130949817Y-62432921D01*
X130953758Y-62423366D01*
X130953588Y-62413030D01*
X130966856Y-62391616D01*
X130976462Y-62368332D01*
X130986874Y-62359309D01*
X130990389Y-62353638D01*
X130997127Y-62350425D01*
X131010004Y-62339268D01*
X131066947Y-62305592D01*
X131163148Y-62209389D01*
X131177939Y-62196758D01*
X131257464Y-62138981D01*
X131397981Y-61998464D01*
X131514787Y-61837694D01*
X131605005Y-61660632D01*
X131666413Y-61471636D01*
X131697500Y-61275361D01*
X131697500Y-61076639D01*
X131666413Y-60880364D01*
X131613222Y-60716657D01*
X131605006Y-60691370D01*
X131605005Y-60691367D01*
X131552317Y-60587962D01*
X131514787Y-60514306D01*
X131397981Y-60353536D01*
X131257464Y-60213019D01*
X131177937Y-60155239D01*
X131171175Y-60149960D01*
X131167000Y-60146461D01*
X131066947Y-60046408D01*
X131001259Y-60007560D01*
X130993477Y-60001038D01*
X130979510Y-59980073D01*
X130962321Y-59961663D01*
X130960471Y-59951492D01*
X130954740Y-59942890D01*
X130954324Y-59917702D01*
X130949817Y-59892921D01*
X130953758Y-59883366D01*
X130953588Y-59873030D01*
X130966856Y-59851616D01*
X130976462Y-59828332D01*
X130986874Y-59819309D01*
X130990389Y-59813638D01*
X130997127Y-59810425D01*
X131010004Y-59799268D01*
X131066947Y-59765592D01*
X131163148Y-59669389D01*
X131177939Y-59656758D01*
X131257464Y-59598981D01*
X131397981Y-59458464D01*
X131514787Y-59297694D01*
X131605005Y-59120632D01*
X131666413Y-58931636D01*
X131697500Y-58735361D01*
X131697500Y-58536639D01*
X131666413Y-58340364D01*
X131605005Y-58151368D01*
X131605005Y-58151367D01*
X131515546Y-57975795D01*
X131502650Y-57907126D01*
X131528926Y-57842385D01*
X131586033Y-57802128D01*
X131626031Y-57795500D01*
X140626061Y-57795500D01*
X140693100Y-57815185D01*
G37*
%TD.AperFunction*%
%TA.AperFunction,NonConductor*%
G36*
X122971941Y-56716185D02*
G01*
X123017696Y-56768989D01*
X123027640Y-56838147D01*
X122998615Y-56901703D01*
X122992583Y-56908181D01*
X113853563Y-66047200D01*
X113792240Y-66080685D01*
X113727564Y-66077450D01*
X113642783Y-66049903D01*
X113585107Y-66010466D01*
X113557909Y-65946107D01*
X113569824Y-65877261D01*
X113593417Y-65844294D01*
X122704895Y-56732819D01*
X122731822Y-56718115D01*
X122757641Y-56701523D01*
X122763841Y-56700631D01*
X122766218Y-56699334D01*
X122792576Y-56696500D01*
X122904902Y-56696500D01*
X122971941Y-56716185D01*
G37*
%TD.AperFunction*%
%TA.AperFunction,NonConductor*%
G36*
X158918834Y-61932914D02*
G01*
X158974767Y-61974786D01*
X158999184Y-62040250D01*
X158999500Y-62049096D01*
X158999500Y-62599901D01*
X158979815Y-62666940D01*
X158963181Y-62687582D01*
X157917275Y-63733489D01*
X155814341Y-65836424D01*
X154787584Y-66863181D01*
X154726261Y-66896666D01*
X154699903Y-66899500D01*
X154149098Y-66899500D01*
X154127854Y-66893262D01*
X154105767Y-66891683D01*
X154094981Y-66883609D01*
X154082059Y-66879815D01*
X154067560Y-66863083D01*
X154049832Y-66849812D01*
X154045123Y-66837189D01*
X154036304Y-66827011D01*
X154033153Y-66805096D01*
X154025414Y-66784349D01*
X154028277Y-66771186D01*
X154026360Y-66757853D01*
X154035558Y-66737710D01*
X154040265Y-66716075D01*
X154053534Y-66698348D01*
X154055385Y-66694297D01*
X154061415Y-66687821D01*
X154068127Y-66681109D01*
X154124520Y-66624716D01*
X154124521Y-66624713D01*
X158787821Y-61961413D01*
X158849142Y-61927930D01*
X158918834Y-61932914D01*
G37*
%TD.AperFunction*%
%TA.AperFunction,NonConductor*%
G36*
X144849421Y-59602325D02*
G01*
X144878971Y-59618188D01*
X144932060Y-59656758D01*
X144946851Y-59669390D01*
X145043053Y-59765592D01*
X145099996Y-59799268D01*
X145147679Y-59850338D01*
X145160182Y-59919079D01*
X145133536Y-59983669D01*
X145099996Y-60012731D01*
X145043056Y-60046406D01*
X145043053Y-60046408D01*
X145043046Y-60046413D01*
X144946854Y-60142604D01*
X144932061Y-60155239D01*
X144852536Y-60213018D01*
X144712021Y-60353533D01*
X144595213Y-60514305D01*
X144504994Y-60691367D01*
X144504993Y-60691370D01*
X144443587Y-60880362D01*
X144421077Y-61022487D01*
X144412500Y-61076639D01*
X144412500Y-61275361D01*
X144422234Y-61336819D01*
X144443587Y-61471637D01*
X144504993Y-61660629D01*
X144504994Y-61660632D01*
X144533541Y-61716657D01*
X144595213Y-61837694D01*
X144712019Y-61998464D01*
X144712021Y-61998466D01*
X144852539Y-62138984D01*
X144932060Y-62196758D01*
X144938824Y-62202039D01*
X144942998Y-62205537D01*
X145043053Y-62305592D01*
X145108737Y-62344437D01*
X145116522Y-62350962D01*
X145130488Y-62371926D01*
X145147679Y-62390338D01*
X145149528Y-62400506D01*
X145155260Y-62409110D01*
X145155674Y-62434297D01*
X145160182Y-62459079D01*
X145156239Y-62468634D01*
X145156410Y-62478970D01*
X145143143Y-62500381D01*
X145133536Y-62523669D01*
X145123122Y-62532692D01*
X145119609Y-62538363D01*
X145112871Y-62541575D01*
X145099996Y-62552732D01*
X145043053Y-62586408D01*
X145043046Y-62586413D01*
X144946854Y-62682604D01*
X144932061Y-62695239D01*
X144852536Y-62753018D01*
X144712021Y-62893533D01*
X144595213Y-63054305D01*
X144504994Y-63231367D01*
X144504993Y-63231370D01*
X144443587Y-63420362D01*
X144412500Y-63616639D01*
X144412500Y-63815360D01*
X144443587Y-64011637D01*
X144504993Y-64200629D01*
X144504994Y-64200632D01*
X144577882Y-64343681D01*
X144595213Y-64377694D01*
X144712019Y-64538464D01*
X144712021Y-64538466D01*
X144852539Y-64678984D01*
X144932060Y-64736758D01*
X144938824Y-64742039D01*
X144942998Y-64745537D01*
X145043053Y-64845592D01*
X145108737Y-64884437D01*
X145116522Y-64890962D01*
X145130488Y-64911926D01*
X145147679Y-64930338D01*
X145149528Y-64940506D01*
X145155260Y-64949110D01*
X145155674Y-64974297D01*
X145160182Y-64999079D01*
X145156239Y-65008634D01*
X145156410Y-65018970D01*
X145143143Y-65040381D01*
X145133536Y-65063669D01*
X145123122Y-65072692D01*
X145119609Y-65078363D01*
X145112871Y-65081575D01*
X145099996Y-65092732D01*
X145043053Y-65126408D01*
X145043046Y-65126413D01*
X144946854Y-65222604D01*
X144932061Y-65235239D01*
X144852536Y-65293018D01*
X144712021Y-65433533D01*
X144595213Y-65594305D01*
X144504994Y-65771367D01*
X144504993Y-65771370D01*
X144443587Y-65960362D01*
X144429833Y-66047200D01*
X144412500Y-66156639D01*
X144412500Y-66355361D01*
X144415314Y-66373127D01*
X144443587Y-66551637D01*
X144503873Y-66737183D01*
X144505868Y-66807024D01*
X144469787Y-66866856D01*
X144407086Y-66897684D01*
X144385942Y-66899500D01*
X137232097Y-66899500D01*
X137165058Y-66879815D01*
X137144416Y-66863181D01*
X136834574Y-66553339D01*
X136801089Y-66492016D01*
X136800638Y-66489849D01*
X136776593Y-66368970D01*
X136769737Y-66334503D01*
X136741406Y-66266105D01*
X136709397Y-66188827D01*
X136709390Y-66188814D01*
X136621789Y-66057711D01*
X136621786Y-66057707D01*
X136510292Y-65946213D01*
X136510288Y-65946210D01*
X136379185Y-65858609D01*
X136379172Y-65858602D01*
X136331994Y-65839061D01*
X136277590Y-65795220D01*
X136255525Y-65728926D01*
X136272804Y-65661227D01*
X136323941Y-65613616D01*
X136379446Y-65600500D01*
X138413330Y-65600500D01*
X138413346Y-65600501D01*
X138420942Y-65600501D01*
X138579053Y-65600501D01*
X138579056Y-65600501D01*
X138731784Y-65559577D01*
X138796919Y-65521971D01*
X138868715Y-65480520D01*
X138980519Y-65368716D01*
X138980519Y-65368714D01*
X138990723Y-65358511D01*
X138990727Y-65358506D01*
X144718408Y-59630824D01*
X144779729Y-59597341D01*
X144849421Y-59602325D01*
G37*
%TD.AperFunction*%
%TA.AperFunction,NonConductor*%
G36*
X158898791Y-64528369D02*
G01*
X158921738Y-64530010D01*
X158931818Y-64537556D01*
X158943947Y-64540930D01*
X158959256Y-64558097D01*
X158977671Y-64571882D01*
X158983183Y-64584925D01*
X158990451Y-64593075D01*
X159000877Y-64626794D01*
X159036446Y-64851368D01*
X159109433Y-65075996D01*
X159187650Y-65229504D01*
X159216657Y-65286433D01*
X159355483Y-65477510D01*
X159355485Y-65477512D01*
X159522490Y-65644517D01*
X159529603Y-65649685D01*
X159572266Y-65705017D01*
X159578242Y-65774630D01*
X159545634Y-65836424D01*
X159529603Y-65850315D01*
X159522490Y-65855482D01*
X159355485Y-66022487D01*
X159355485Y-66022488D01*
X159355483Y-66022490D01*
X159315552Y-66077450D01*
X159216657Y-66213566D01*
X159109433Y-66424003D01*
X159036446Y-66648631D01*
X158999500Y-66881902D01*
X158999500Y-67118097D01*
X159036447Y-67351369D01*
X159036447Y-67351372D01*
X159077450Y-67477564D01*
X159079445Y-67547405D01*
X159047200Y-67603563D01*
X157287584Y-69363181D01*
X157226261Y-69396666D01*
X157199903Y-69399500D01*
X134394098Y-69399500D01*
X134327059Y-69379815D01*
X134306417Y-69363181D01*
X131678075Y-66734840D01*
X131644590Y-66673517D01*
X131647824Y-66608843D01*
X131666413Y-66551636D01*
X131697500Y-66355361D01*
X131697500Y-66156639D01*
X131666413Y-65960364D01*
X131605005Y-65771368D01*
X131603500Y-65766735D01*
X131604643Y-65766363D01*
X131597781Y-65702471D01*
X131629063Y-65639995D01*
X131689155Y-65604349D01*
X131719809Y-65600500D01*
X135620554Y-65600500D01*
X135687593Y-65620185D01*
X135733348Y-65672989D01*
X135743292Y-65742147D01*
X135714267Y-65805703D01*
X135668006Y-65839061D01*
X135620827Y-65858602D01*
X135620814Y-65858609D01*
X135489711Y-65946210D01*
X135489707Y-65946213D01*
X135378213Y-66057707D01*
X135378210Y-66057711D01*
X135290609Y-66188814D01*
X135290602Y-66188827D01*
X135230264Y-66334498D01*
X135230261Y-66334510D01*
X135199500Y-66489153D01*
X135199500Y-66646846D01*
X135230261Y-66801489D01*
X135230264Y-66801501D01*
X135290602Y-66947172D01*
X135290609Y-66947185D01*
X135378210Y-67078288D01*
X135378213Y-67078292D01*
X135489707Y-67189786D01*
X135489711Y-67189789D01*
X135620814Y-67277390D01*
X135620827Y-67277397D01*
X135761795Y-67335787D01*
X135766503Y-67337737D01*
X135831147Y-67350595D01*
X135921849Y-67368638D01*
X135983760Y-67401023D01*
X135985339Y-67402574D01*
X136447139Y-67864374D01*
X136447149Y-67864385D01*
X136451479Y-67868715D01*
X136451480Y-67868716D01*
X136563284Y-67980520D01*
X136638019Y-68023667D01*
X136650095Y-68030639D01*
X136650097Y-68030641D01*
X136688151Y-68052611D01*
X136700215Y-68059577D01*
X136852943Y-68100501D01*
X136852946Y-68100501D01*
X137018653Y-68100501D01*
X137018669Y-68100500D01*
X154913331Y-68100500D01*
X154913347Y-68100501D01*
X154920943Y-68100501D01*
X155079054Y-68100501D01*
X155079057Y-68100501D01*
X155231785Y-68059577D01*
X155281904Y-68030639D01*
X155368716Y-67980520D01*
X155480520Y-67868716D01*
X155480520Y-67868714D01*
X155490728Y-67858507D01*
X155490729Y-67858504D01*
X158790725Y-64558509D01*
X158801772Y-64552477D01*
X158809881Y-64542845D01*
X158831857Y-64536049D01*
X158852046Y-64525026D01*
X158864604Y-64525924D01*
X158876633Y-64522205D01*
X158898791Y-64528369D01*
G37*
%TD.AperFunction*%
%TA.AperFunction,NonConductor*%
G36*
X127829379Y-57815185D02*
G01*
X127875134Y-57867989D01*
X127885958Y-57929227D01*
X127883500Y-57960455D01*
X127883500Y-59311541D01*
X127886412Y-59348546D01*
X127886413Y-59348552D01*
X127932434Y-59506954D01*
X127932435Y-59506957D01*
X128016405Y-59648943D01*
X128016412Y-59648952D01*
X128133047Y-59765587D01*
X128133050Y-59765589D01*
X128133053Y-59765592D01*
X128189996Y-59799268D01*
X128237679Y-59850338D01*
X128250182Y-59919079D01*
X128223536Y-59983669D01*
X128189996Y-60012731D01*
X128133056Y-60046406D01*
X128133053Y-60046408D01*
X128133047Y-60046412D01*
X128016412Y-60163047D01*
X128016405Y-60163056D01*
X127932435Y-60305042D01*
X127932434Y-60305045D01*
X127886413Y-60463447D01*
X127886412Y-60463453D01*
X127883500Y-60500458D01*
X127883500Y-61851541D01*
X127886412Y-61888546D01*
X127886413Y-61888552D01*
X127932434Y-62046954D01*
X127932435Y-62046957D01*
X128016405Y-62188943D01*
X128016412Y-62188952D01*
X128133047Y-62305587D01*
X128133050Y-62305589D01*
X128133053Y-62305592D01*
X128189996Y-62339268D01*
X128237679Y-62390338D01*
X128250182Y-62459079D01*
X128223536Y-62523669D01*
X128189996Y-62552732D01*
X128133053Y-62586408D01*
X128133047Y-62586412D01*
X128016412Y-62703047D01*
X128016405Y-62703056D01*
X127932435Y-62845042D01*
X127932434Y-62845045D01*
X127886413Y-63003447D01*
X127886412Y-63003453D01*
X127883500Y-63040458D01*
X127883500Y-64391541D01*
X127886412Y-64428546D01*
X127886413Y-64428552D01*
X127932434Y-64586954D01*
X127935533Y-64594115D01*
X127934306Y-64594645D01*
X127949475Y-64654452D01*
X127927310Y-64720713D01*
X127913242Y-64737520D01*
X127624217Y-65026546D01*
X127624214Y-65026548D01*
X127624215Y-65026549D01*
X127519478Y-65131286D01*
X127469361Y-65218094D01*
X127469359Y-65218096D01*
X127440425Y-65268209D01*
X127440424Y-65268210D01*
X127424544Y-65327472D01*
X127399499Y-65420943D01*
X127399499Y-65420945D01*
X127399499Y-65589046D01*
X127399500Y-65589059D01*
X127399500Y-74699903D01*
X127379815Y-74766942D01*
X127363181Y-74787584D01*
X116287584Y-85863181D01*
X116226261Y-85896666D01*
X116199903Y-85899500D01*
X114454068Y-85899500D01*
X114387029Y-85879815D01*
X114343583Y-85831795D01*
X114283343Y-85713567D01*
X114144517Y-85522490D01*
X113977510Y-85355483D01*
X113786433Y-85216657D01*
X113575996Y-85109433D01*
X113351368Y-85036446D01*
X113118097Y-84999500D01*
X113118092Y-84999500D01*
X112881908Y-84999500D01*
X112881903Y-84999500D01*
X112648630Y-85036447D01*
X112648627Y-85036447D01*
X112462818Y-85096821D01*
X112392977Y-85098816D01*
X112333144Y-85062736D01*
X112302316Y-85000035D01*
X112300500Y-84978890D01*
X112300500Y-83521109D01*
X112320185Y-83454070D01*
X112372989Y-83408315D01*
X112442147Y-83398371D01*
X112462813Y-83403176D01*
X112575396Y-83439757D01*
X112648631Y-83463553D01*
X112881903Y-83500500D01*
X112881908Y-83500500D01*
X113118097Y-83500500D01*
X113351368Y-83463553D01*
X113575992Y-83390568D01*
X113786433Y-83283343D01*
X113977510Y-83144517D01*
X114144517Y-82977510D01*
X114283343Y-82786433D01*
X114343583Y-82668204D01*
X114391558Y-82617409D01*
X114454068Y-82600500D01*
X115199903Y-82600500D01*
X115229343Y-82609144D01*
X115259330Y-82615668D01*
X115264345Y-82619422D01*
X115266942Y-82620185D01*
X115287584Y-82636819D01*
X115438916Y-82788151D01*
X115472401Y-82849474D01*
X115475235Y-82875832D01*
X115475235Y-83420234D01*
X115455550Y-83487273D01*
X115454337Y-83489125D01*
X115366344Y-83620814D01*
X115366337Y-83620827D01*
X115305999Y-83766498D01*
X115305996Y-83766510D01*
X115275235Y-83921153D01*
X115275235Y-84078846D01*
X115305996Y-84233489D01*
X115305999Y-84233501D01*
X115366337Y-84379172D01*
X115366344Y-84379185D01*
X115453945Y-84510288D01*
X115453948Y-84510292D01*
X115565442Y-84621786D01*
X115565446Y-84621789D01*
X115696549Y-84709390D01*
X115696562Y-84709397D01*
X115842233Y-84769735D01*
X115842238Y-84769737D01*
X115996888Y-84800499D01*
X115996891Y-84800500D01*
X115996893Y-84800500D01*
X116154579Y-84800500D01*
X116154580Y-84800499D01*
X116309232Y-84769737D01*
X116454914Y-84709394D01*
X116586024Y-84621789D01*
X116697524Y-84510289D01*
X116785129Y-84379179D01*
X116845472Y-84233497D01*
X116876235Y-84078842D01*
X116876235Y-83921158D01*
X116876235Y-83921155D01*
X116876234Y-83921153D01*
X116845472Y-83766503D01*
X116810310Y-83681613D01*
X116785132Y-83620827D01*
X116785125Y-83620814D01*
X116697133Y-83489125D01*
X116676255Y-83422447D01*
X116676235Y-83420234D01*
X116676235Y-82496680D01*
X116676233Y-82496671D01*
X116671906Y-82480520D01*
X116635312Y-82343950D01*
X116598354Y-82279938D01*
X116556255Y-82207019D01*
X116444451Y-82095215D01*
X116444450Y-82095214D01*
X116440120Y-82090884D01*
X116440109Y-82090874D01*
X115987590Y-81638355D01*
X115987588Y-81638352D01*
X115868717Y-81519481D01*
X115868716Y-81519480D01*
X115781904Y-81469360D01*
X115781904Y-81469359D01*
X115781900Y-81469358D01*
X115731785Y-81440423D01*
X115579057Y-81399499D01*
X115420943Y-81399499D01*
X115413347Y-81399499D01*
X115413331Y-81399500D01*
X114454068Y-81399500D01*
X114387029Y-81379815D01*
X114343583Y-81331795D01*
X114283343Y-81213567D01*
X114144517Y-81022490D01*
X113977510Y-80855483D01*
X113786433Y-80716657D01*
X113725706Y-80685715D01*
X113575996Y-80609433D01*
X113351368Y-80536446D01*
X113118097Y-80499500D01*
X113118092Y-80499500D01*
X112881908Y-80499500D01*
X112881903Y-80499500D01*
X112648630Y-80536447D01*
X112648627Y-80536447D01*
X112462818Y-80596821D01*
X112392977Y-80598816D01*
X112333144Y-80562736D01*
X112302316Y-80500035D01*
X112300500Y-80478890D01*
X112300500Y-68902605D01*
X112320185Y-68835566D01*
X112372989Y-68789811D01*
X112442147Y-68779867D01*
X112480789Y-68792118D01*
X112609815Y-68857860D01*
X112674003Y-68890566D01*
X112674005Y-68890566D01*
X112674008Y-68890568D01*
X112794412Y-68929689D01*
X112898631Y-68963553D01*
X113131903Y-69000500D01*
X113131908Y-69000500D01*
X113368097Y-69000500D01*
X113601368Y-68963553D01*
X113825992Y-68890568D01*
X114036433Y-68783343D01*
X114227510Y-68644517D01*
X114394517Y-68477510D01*
X114533343Y-68286433D01*
X114640568Y-68075992D01*
X114713553Y-67851368D01*
X114723838Y-67786433D01*
X114750500Y-67618097D01*
X114750500Y-67381902D01*
X114725868Y-67226390D01*
X114713553Y-67148632D01*
X114672547Y-67022433D01*
X114670553Y-66952593D01*
X114702796Y-66896437D01*
X123767417Y-57831819D01*
X123828740Y-57798334D01*
X123855098Y-57795500D01*
X127762340Y-57795500D01*
X127829379Y-57815185D01*
G37*
%TD.AperFunction*%
%TA.AperFunction,NonConductor*%
G36*
X130778941Y-67538185D02*
G01*
X130799583Y-67554819D01*
X133725284Y-70480520D01*
X133725286Y-70480521D01*
X133725290Y-70480524D01*
X133862209Y-70559573D01*
X133862216Y-70559577D01*
X134014943Y-70600501D01*
X134014945Y-70600501D01*
X134180654Y-70600501D01*
X134180670Y-70600500D01*
X143996561Y-70600500D01*
X144063600Y-70620185D01*
X144109355Y-70672989D01*
X144119299Y-70742147D01*
X144090274Y-70805703D01*
X144065452Y-70827602D01*
X143989711Y-70878210D01*
X143989707Y-70878213D01*
X143878213Y-70989707D01*
X143878210Y-70989711D01*
X143790609Y-71120814D01*
X143790602Y-71120827D01*
X143730264Y-71266498D01*
X143730261Y-71266510D01*
X143699500Y-71421153D01*
X143699500Y-71578846D01*
X143730261Y-71733489D01*
X143730264Y-71733501D01*
X143790602Y-71879172D01*
X143790609Y-71879185D01*
X143878602Y-72010874D01*
X143884252Y-72028920D01*
X143894477Y-72044830D01*
X143898928Y-72075789D01*
X143899480Y-72077551D01*
X143899500Y-72079765D01*
X143899500Y-72199902D01*
X143879815Y-72266941D01*
X143863181Y-72287583D01*
X139289481Y-76861282D01*
X139289480Y-76861284D01*
X139248299Y-76932612D01*
X139210423Y-76998215D01*
X139169499Y-77150943D01*
X139169499Y-77150945D01*
X139169499Y-77319046D01*
X139169500Y-77319059D01*
X139169500Y-93322682D01*
X139149815Y-93389721D01*
X139115675Y-93423139D01*
X139116440Y-93424192D01*
X138952753Y-93543115D01*
X138813115Y-93682753D01*
X138697058Y-93842495D01*
X138697056Y-93842499D01*
X138616922Y-93999770D01*
X138610485Y-94012403D01*
X138562510Y-94063199D01*
X138494689Y-94079994D01*
X138428554Y-94057456D01*
X138389515Y-94012403D01*
X138302944Y-93842499D01*
X138272430Y-93800500D01*
X138186884Y-93682753D01*
X138047246Y-93543115D01*
X137887504Y-93427058D01*
X137887503Y-93427057D01*
X137887501Y-93427056D01*
X137711561Y-93337409D01*
X137711558Y-93337408D01*
X137523763Y-93276389D01*
X137328736Y-93245500D01*
X137328731Y-93245500D01*
X137131269Y-93245500D01*
X137131264Y-93245500D01*
X136931426Y-93277152D01*
X136931150Y-93275413D01*
X136868937Y-93272281D01*
X136822128Y-93242892D01*
X136417590Y-92838355D01*
X136417588Y-92838352D01*
X136298717Y-92719481D01*
X136298716Y-92719480D01*
X136211904Y-92669360D01*
X136211904Y-92669359D01*
X136211900Y-92669358D01*
X136161785Y-92640423D01*
X136009057Y-92599499D01*
X135850943Y-92599499D01*
X135843347Y-92599499D01*
X135843331Y-92599500D01*
X118161619Y-92599500D01*
X118094580Y-92579815D01*
X118073938Y-92563181D01*
X113580965Y-88070208D01*
X113547480Y-88008885D01*
X113552464Y-87939193D01*
X113594336Y-87883260D01*
X113612351Y-87872042D01*
X113786433Y-87783343D01*
X113977510Y-87644517D01*
X114144517Y-87477510D01*
X114283343Y-87286433D01*
X114343583Y-87168204D01*
X114391558Y-87117409D01*
X114454068Y-87100500D01*
X116413331Y-87100500D01*
X116413347Y-87100501D01*
X116420943Y-87100501D01*
X116579054Y-87100501D01*
X116579057Y-87100501D01*
X116731785Y-87059577D01*
X116731787Y-87059575D01*
X116731789Y-87059575D01*
X116731790Y-87059574D01*
X116785872Y-87028350D01*
X116785873Y-87028349D01*
X116868716Y-86980520D01*
X116980520Y-86868716D01*
X116980520Y-86868714D01*
X116990724Y-86858511D01*
X116990728Y-86858506D01*
X122887821Y-80961412D01*
X122949142Y-80927929D01*
X123018834Y-80932913D01*
X123074767Y-80974785D01*
X123099184Y-81040249D01*
X123099500Y-81049095D01*
X123099500Y-82447870D01*
X123099501Y-82447876D01*
X123105908Y-82507483D01*
X123156202Y-82642328D01*
X123156206Y-82642335D01*
X123242452Y-82757544D01*
X123242455Y-82757547D01*
X123357664Y-82843793D01*
X123357671Y-82843797D01*
X123492517Y-82894091D01*
X123492516Y-82894091D01*
X123499444Y-82894835D01*
X123552127Y-82900500D01*
X125447872Y-82900499D01*
X125507483Y-82894091D01*
X125642331Y-82843796D01*
X125757546Y-82757546D01*
X125843796Y-82642331D01*
X125852056Y-82620185D01*
X125873601Y-82562420D01*
X125915471Y-82506486D01*
X125980936Y-82482068D01*
X126049209Y-82496919D01*
X126077464Y-82518071D01*
X126127636Y-82568243D01*
X126127641Y-82568247D01*
X126229603Y-82642326D01*
X126305978Y-82697815D01*
X126434375Y-82763237D01*
X126502393Y-82797895D01*
X126502396Y-82797896D01*
X126607221Y-82831955D01*
X126712049Y-82866015D01*
X126929778Y-82900500D01*
X126929779Y-82900500D01*
X127150221Y-82900500D01*
X127150222Y-82900500D01*
X127367951Y-82866015D01*
X127577606Y-82797895D01*
X127774022Y-82697815D01*
X127952365Y-82568242D01*
X128108242Y-82412365D01*
X128237815Y-82234022D01*
X128337895Y-82037606D01*
X128406015Y-81827951D01*
X128440500Y-81610222D01*
X128440500Y-81389778D01*
X128406015Y-81172049D01*
X128357421Y-81022490D01*
X128337896Y-80962396D01*
X128337895Y-80962393D01*
X128303237Y-80894375D01*
X128237815Y-80765978D01*
X128221260Y-80743192D01*
X128108247Y-80587641D01*
X128108243Y-80587636D01*
X127952363Y-80431756D01*
X127952358Y-80431752D01*
X127774025Y-80302187D01*
X127774024Y-80302186D01*
X127774022Y-80302185D01*
X127656791Y-80242452D01*
X127577606Y-80202104D01*
X127577603Y-80202103D01*
X127367952Y-80133985D01*
X127259086Y-80116742D01*
X127150222Y-80099500D01*
X126929778Y-80099500D01*
X126857201Y-80110995D01*
X126712047Y-80133985D01*
X126502396Y-80202103D01*
X126502393Y-80202104D01*
X126305974Y-80302187D01*
X126127641Y-80431752D01*
X126127636Y-80431756D01*
X126077463Y-80481929D01*
X126016140Y-80515413D01*
X125946448Y-80510428D01*
X125890515Y-80468557D01*
X125873601Y-80437580D01*
X125843797Y-80357671D01*
X125843793Y-80357664D01*
X125757547Y-80242455D01*
X125757544Y-80242452D01*
X125642335Y-80156206D01*
X125642328Y-80156202D01*
X125507482Y-80105908D01*
X125507483Y-80105908D01*
X125447883Y-80099501D01*
X125447881Y-80099500D01*
X125447873Y-80099500D01*
X125447865Y-80099500D01*
X124049096Y-80099500D01*
X123982057Y-80079815D01*
X123936302Y-80027011D01*
X123926358Y-79957853D01*
X123955383Y-79894297D01*
X123961415Y-79887819D01*
X125823229Y-78026005D01*
X128368713Y-75480521D01*
X128368716Y-75480520D01*
X128480520Y-75368716D01*
X128530639Y-75281904D01*
X128559577Y-75231785D01*
X128600501Y-75079057D01*
X128600501Y-74920943D01*
X128600501Y-74913348D01*
X128600500Y-74913330D01*
X128600500Y-67642500D01*
X128620185Y-67575461D01*
X128672989Y-67529706D01*
X128724500Y-67518500D01*
X130711902Y-67518500D01*
X130778941Y-67538185D01*
G37*
%TD.AperFunction*%
%TA.AperFunction,NonConductor*%
G36*
X127763726Y-50168424D02*
G01*
X127830630Y-50188555D01*
X127876032Y-50241663D01*
X127886515Y-50302148D01*
X127883500Y-50340455D01*
X127883500Y-51691541D01*
X127886412Y-51728546D01*
X127886413Y-51728552D01*
X127932434Y-51886954D01*
X127932435Y-51886957D01*
X128016405Y-52028943D01*
X128016412Y-52028952D01*
X128133047Y-52145587D01*
X128133050Y-52145589D01*
X128133053Y-52145592D01*
X128189996Y-52179268D01*
X128237679Y-52230338D01*
X128250182Y-52299079D01*
X128223536Y-52363669D01*
X128189996Y-52392732D01*
X128133053Y-52426408D01*
X128133047Y-52426412D01*
X128016412Y-52543047D01*
X128016405Y-52543056D01*
X127932435Y-52685042D01*
X127932434Y-52685045D01*
X127886413Y-52843447D01*
X127886412Y-52843453D01*
X127883501Y-52880453D01*
X127883500Y-52880473D01*
X127883500Y-54231544D01*
X127886194Y-54265773D01*
X127871829Y-54334150D01*
X127822777Y-54383906D01*
X127762576Y-54399500D01*
X119498192Y-54399500D01*
X119498176Y-54399499D01*
X119490580Y-54399499D01*
X119332465Y-54399499D01*
X119256101Y-54419961D01*
X119179736Y-54440423D01*
X119179731Y-54440426D01*
X119042812Y-54519475D01*
X119042804Y-54519481D01*
X108519481Y-65042804D01*
X108519477Y-65042809D01*
X108471213Y-65126407D01*
X108471213Y-65126408D01*
X108440423Y-65179736D01*
X108440423Y-65179737D01*
X108399499Y-65332465D01*
X108399499Y-65332467D01*
X108399499Y-65500568D01*
X108399500Y-65500581D01*
X108399500Y-66938013D01*
X108379815Y-67005052D01*
X108327011Y-67050807D01*
X108257853Y-67060751D01*
X108194297Y-67031726D01*
X108157569Y-66976332D01*
X108149856Y-66952593D01*
X108140568Y-66924008D01*
X108140566Y-66924005D01*
X108140566Y-66924003D01*
X108078148Y-66801501D01*
X108033343Y-66713567D01*
X107894517Y-66522490D01*
X107727510Y-66355483D01*
X107536433Y-66216657D01*
X107481802Y-66188821D01*
X107325996Y-66109433D01*
X107101368Y-66036446D01*
X106868097Y-65999500D01*
X106868092Y-65999500D01*
X106631908Y-65999500D01*
X106631903Y-65999500D01*
X106398631Y-66036446D01*
X106174003Y-66109433D01*
X105963566Y-66216657D01*
X105895508Y-66266105D01*
X105772490Y-66355483D01*
X105772488Y-66355485D01*
X105772487Y-66355485D01*
X105605485Y-66522487D01*
X105605485Y-66522488D01*
X105605483Y-66522490D01*
X105583070Y-66553339D01*
X105466657Y-66713566D01*
X105359433Y-66924003D01*
X105286446Y-67148631D01*
X105249500Y-67381902D01*
X105249500Y-67618097D01*
X105286446Y-67851368D01*
X105359433Y-68075996D01*
X105428772Y-68212080D01*
X105466657Y-68286433D01*
X105605483Y-68477510D01*
X105772490Y-68644517D01*
X105963567Y-68783343D01*
X106062991Y-68834002D01*
X106174003Y-68890566D01*
X106174005Y-68890566D01*
X106174008Y-68890568D01*
X106294412Y-68929689D01*
X106398631Y-68963553D01*
X106631903Y-69000500D01*
X106631908Y-69000500D01*
X106868097Y-69000500D01*
X107101368Y-68963553D01*
X107325992Y-68890568D01*
X107536433Y-68783343D01*
X107727510Y-68644517D01*
X107894517Y-68477510D01*
X108033343Y-68286433D01*
X108140568Y-68075992D01*
X108157569Y-68023665D01*
X108197007Y-67965992D01*
X108261366Y-67938794D01*
X108330212Y-67950709D01*
X108381688Y-67997953D01*
X108399500Y-68061986D01*
X108399500Y-100163330D01*
X108399499Y-100163348D01*
X108399499Y-100329054D01*
X108399498Y-100329054D01*
X108440423Y-100481785D01*
X108469358Y-100531900D01*
X108469359Y-100531904D01*
X108469360Y-100531904D01*
X108519479Y-100618714D01*
X108519481Y-100618717D01*
X108638349Y-100737585D01*
X108638355Y-100737590D01*
X111547200Y-103646435D01*
X111580685Y-103707758D01*
X111577450Y-103772433D01*
X111536447Y-103898628D01*
X111499500Y-104131902D01*
X111499500Y-104368097D01*
X111536446Y-104601368D01*
X111609433Y-104825996D01*
X111695203Y-104994328D01*
X111716657Y-105036433D01*
X111855483Y-105227510D01*
X112022490Y-105394517D01*
X112213567Y-105533343D01*
X112312991Y-105584002D01*
X112424003Y-105640566D01*
X112424005Y-105640566D01*
X112424008Y-105640568D01*
X112544412Y-105679689D01*
X112648631Y-105713553D01*
X112881903Y-105750500D01*
X112881908Y-105750500D01*
X113118097Y-105750500D01*
X113351368Y-105713553D01*
X113575992Y-105640568D01*
X113786433Y-105533343D01*
X113977510Y-105394517D01*
X114144517Y-105227510D01*
X114283343Y-105036433D01*
X114390568Y-104825992D01*
X114463553Y-104601368D01*
X114500500Y-104368097D01*
X114500500Y-104131902D01*
X114463553Y-103898631D01*
X114401534Y-103707758D01*
X114390568Y-103674008D01*
X114390566Y-103674005D01*
X114390566Y-103674003D01*
X114283342Y-103463566D01*
X114144517Y-103272490D01*
X113977510Y-103105483D01*
X113786433Y-102966657D01*
X113784508Y-102965676D01*
X113575996Y-102859433D01*
X113351368Y-102786446D01*
X113118097Y-102749500D01*
X113118092Y-102749500D01*
X112881908Y-102749500D01*
X112881903Y-102749500D01*
X112648628Y-102786447D01*
X112522433Y-102827450D01*
X112452592Y-102829445D01*
X112396435Y-102797200D01*
X109636819Y-100037584D01*
X109603334Y-99976261D01*
X109600500Y-99949903D01*
X109600500Y-99631902D01*
X111499500Y-99631902D01*
X111499500Y-99868097D01*
X111536446Y-100101368D01*
X111609433Y-100325996D01*
X111688812Y-100481785D01*
X111716657Y-100536433D01*
X111855483Y-100727510D01*
X112022490Y-100894517D01*
X112213567Y-101033343D01*
X112312991Y-101084002D01*
X112424003Y-101140566D01*
X112424005Y-101140566D01*
X112424008Y-101140568D01*
X112544412Y-101179689D01*
X112648631Y-101213553D01*
X112881903Y-101250500D01*
X112881908Y-101250500D01*
X113118097Y-101250500D01*
X113351368Y-101213553D01*
X113575992Y-101140568D01*
X113786433Y-101033343D01*
X113977510Y-100894517D01*
X114144517Y-100727510D01*
X114283343Y-100536433D01*
X114390568Y-100325992D01*
X114463553Y-100101368D01*
X114500500Y-99868097D01*
X114500500Y-99631902D01*
X114463553Y-99398631D01*
X114416606Y-99254144D01*
X114390568Y-99174008D01*
X114390566Y-99174005D01*
X114390566Y-99174003D01*
X114283342Y-98963566D01*
X114144517Y-98772490D01*
X113977510Y-98605483D01*
X113786433Y-98466657D01*
X113575996Y-98359433D01*
X113351368Y-98286446D01*
X113118097Y-98249500D01*
X113118092Y-98249500D01*
X112881908Y-98249500D01*
X112881903Y-98249500D01*
X112648631Y-98286446D01*
X112424003Y-98359433D01*
X112213566Y-98466657D01*
X112104550Y-98545862D01*
X112022490Y-98605483D01*
X112022488Y-98605485D01*
X112022487Y-98605485D01*
X111855485Y-98772487D01*
X111855485Y-98772488D01*
X111855483Y-98772490D01*
X111795862Y-98854550D01*
X111716657Y-98963566D01*
X111609433Y-99174003D01*
X111536446Y-99398631D01*
X111499500Y-99631902D01*
X109600500Y-99631902D01*
X109600500Y-65711619D01*
X109620185Y-65644580D01*
X109636819Y-65623938D01*
X110642665Y-64618092D01*
X111679793Y-63580963D01*
X111741114Y-63547480D01*
X111810806Y-63552464D01*
X111866739Y-63594336D01*
X111877957Y-63612351D01*
X111939685Y-63733497D01*
X111966657Y-63786433D01*
X112105483Y-63977510D01*
X112272490Y-64144517D01*
X112463567Y-64283343D01*
X112497238Y-64300499D01*
X112674003Y-64390566D01*
X112674005Y-64390566D01*
X112674008Y-64390568D01*
X112790892Y-64428546D01*
X112898631Y-64463553D01*
X112983767Y-64477037D01*
X113046902Y-64506966D01*
X113083834Y-64566277D01*
X113082836Y-64636140D01*
X113052051Y-64687191D01*
X111219481Y-66519760D01*
X111219477Y-66519765D01*
X111201081Y-66551630D01*
X111201078Y-66551636D01*
X111200095Y-66553339D01*
X111146111Y-66646842D01*
X111140423Y-66656693D01*
X111099499Y-66809421D01*
X111099499Y-66809423D01*
X111099499Y-66977524D01*
X111099500Y-66977537D01*
X111099500Y-86951808D01*
X111099499Y-86951826D01*
X111099499Y-87117532D01*
X111099498Y-87117532D01*
X111102245Y-87127784D01*
X111140423Y-87270263D01*
X111149757Y-87286430D01*
X111149758Y-87286433D01*
X111149759Y-87286433D01*
X111219477Y-87407190D01*
X111219481Y-87407195D01*
X111338349Y-87526063D01*
X111338355Y-87526068D01*
X117376661Y-93564374D01*
X117376671Y-93564385D01*
X117381001Y-93568715D01*
X117381002Y-93568716D01*
X117492806Y-93680520D01*
X117579617Y-93730639D01*
X117579619Y-93730641D01*
X117617673Y-93752611D01*
X117629737Y-93759577D01*
X117782465Y-93800501D01*
X117782468Y-93800501D01*
X117948175Y-93800501D01*
X117948191Y-93800500D01*
X125667779Y-93800500D01*
X125734818Y-93820185D01*
X125780573Y-93872989D01*
X125790517Y-93942147D01*
X125775166Y-93986500D01*
X125701958Y-94113299D01*
X125701953Y-94113309D01*
X125601605Y-94355571D01*
X125601602Y-94355581D01*
X125536451Y-94598731D01*
X125533730Y-94608885D01*
X125499500Y-94868872D01*
X125499500Y-95131127D01*
X125521981Y-95301876D01*
X125533730Y-95391116D01*
X125592794Y-95611546D01*
X125601602Y-95644418D01*
X125601605Y-95644428D01*
X125701953Y-95886690D01*
X125701958Y-95886700D01*
X125833075Y-96113803D01*
X125992718Y-96321851D01*
X125992726Y-96321860D01*
X126178140Y-96507274D01*
X126178148Y-96507281D01*
X126386196Y-96666924D01*
X126613299Y-96798041D01*
X126613309Y-96798046D01*
X126855571Y-96898394D01*
X126855581Y-96898398D01*
X127108884Y-96966270D01*
X127368880Y-97000500D01*
X127368887Y-97000500D01*
X127631113Y-97000500D01*
X127631120Y-97000500D01*
X127891116Y-96966270D01*
X128144419Y-96898398D01*
X128386697Y-96798043D01*
X128613803Y-96666924D01*
X128821851Y-96507282D01*
X128821855Y-96507277D01*
X128821860Y-96507274D01*
X129007274Y-96321860D01*
X129007277Y-96321855D01*
X129007282Y-96321851D01*
X129166924Y-96113803D01*
X129298043Y-95886697D01*
X129398398Y-95644419D01*
X129466270Y-95391116D01*
X129500500Y-95131120D01*
X129500500Y-94868880D01*
X129466270Y-94608884D01*
X129398398Y-94355581D01*
X129336538Y-94206237D01*
X129298046Y-94113309D01*
X129298041Y-94113299D01*
X129224834Y-93986500D01*
X129208361Y-93918599D01*
X129231214Y-93852573D01*
X129286135Y-93809382D01*
X129332221Y-93800500D01*
X133311500Y-93800500D01*
X133378539Y-93820185D01*
X133424294Y-93872989D01*
X133435500Y-93924500D01*
X133435500Y-95301870D01*
X133435501Y-95301876D01*
X133441908Y-95361483D01*
X133492202Y-95496328D01*
X133492206Y-95496335D01*
X133578452Y-95611544D01*
X133578455Y-95611547D01*
X133693664Y-95697793D01*
X133693671Y-95697797D01*
X133828517Y-95748091D01*
X133828516Y-95748091D01*
X133835444Y-95748835D01*
X133888127Y-95754500D01*
X135491872Y-95754499D01*
X135551483Y-95748091D01*
X135686331Y-95697796D01*
X135801546Y-95611546D01*
X135887796Y-95496331D01*
X135938091Y-95361483D01*
X135944500Y-95301873D01*
X135944499Y-95246574D01*
X135964182Y-95179538D01*
X136016986Y-95133783D01*
X136086144Y-95123838D01*
X136149700Y-95152862D01*
X136168817Y-95173691D01*
X136273115Y-95317245D01*
X136273119Y-95317250D01*
X136412753Y-95456884D01*
X136562234Y-95565486D01*
X136572499Y-95572944D01*
X136748439Y-95662591D01*
X136873637Y-95703270D01*
X136936236Y-95723610D01*
X137131264Y-95754500D01*
X137131269Y-95754500D01*
X137328736Y-95754500D01*
X137523763Y-95723610D01*
X137711561Y-95662591D01*
X137887501Y-95572944D01*
X137992955Y-95496328D01*
X138047246Y-95456884D01*
X138047248Y-95456881D01*
X138047252Y-95456879D01*
X138186879Y-95317252D01*
X138186881Y-95317248D01*
X138186884Y-95317246D01*
X138302941Y-95157505D01*
X138302942Y-95157504D01*
X138302944Y-95157501D01*
X138389517Y-94987593D01*
X138437490Y-94936800D01*
X138505311Y-94920005D01*
X138571446Y-94942542D01*
X138610482Y-94987593D01*
X138683614Y-95131120D01*
X138697058Y-95157505D01*
X138813115Y-95317246D01*
X138952753Y-95456884D01*
X139102234Y-95565486D01*
X139112499Y-95572944D01*
X139288439Y-95662591D01*
X139413637Y-95703270D01*
X139476236Y-95723610D01*
X139671264Y-95754500D01*
X139671269Y-95754500D01*
X139868736Y-95754500D01*
X140063763Y-95723610D01*
X140251561Y-95662591D01*
X140427501Y-95572944D01*
X140532955Y-95496328D01*
X140587246Y-95456884D01*
X140587248Y-95456881D01*
X140587252Y-95456879D01*
X140726879Y-95317252D01*
X140726881Y-95317248D01*
X140726884Y-95317246D01*
X140842941Y-95157505D01*
X140842942Y-95157504D01*
X140842944Y-95157501D01*
X140929517Y-94987593D01*
X140977490Y-94936800D01*
X141045311Y-94920005D01*
X141111446Y-94942542D01*
X141150482Y-94987593D01*
X141223614Y-95131120D01*
X141237058Y-95157505D01*
X141353115Y-95317246D01*
X141492753Y-95456884D01*
X141642234Y-95565486D01*
X141652499Y-95572944D01*
X141828439Y-95662591D01*
X141953637Y-95703270D01*
X142016236Y-95723610D01*
X142211264Y-95754500D01*
X142211269Y-95754500D01*
X142408736Y-95754500D01*
X142603763Y-95723610D01*
X142791561Y-95662591D01*
X142967501Y-95572944D01*
X143072955Y-95496328D01*
X143127246Y-95456884D01*
X143127248Y-95456881D01*
X143127252Y-95456879D01*
X143266879Y-95317252D01*
X143266881Y-95317248D01*
X143266884Y-95317246D01*
X143371181Y-95173691D01*
X143382944Y-95157501D01*
X143472591Y-94981561D01*
X143509206Y-94868872D01*
X147499500Y-94868872D01*
X147499500Y-95131127D01*
X147521981Y-95301876D01*
X147533730Y-95391116D01*
X147592794Y-95611546D01*
X147601602Y-95644418D01*
X147601605Y-95644428D01*
X147701953Y-95886690D01*
X147701958Y-95886700D01*
X147833075Y-96113803D01*
X147992718Y-96321851D01*
X147992726Y-96321860D01*
X148178140Y-96507274D01*
X148178148Y-96507281D01*
X148386196Y-96666924D01*
X148613299Y-96798041D01*
X148613309Y-96798046D01*
X148855571Y-96898394D01*
X148855581Y-96898398D01*
X149108884Y-96966270D01*
X149368880Y-97000500D01*
X149368887Y-97000500D01*
X149631113Y-97000500D01*
X149631120Y-97000500D01*
X149891116Y-96966270D01*
X150144419Y-96898398D01*
X150386697Y-96798043D01*
X150613803Y-96666924D01*
X150821851Y-96507282D01*
X150821855Y-96507277D01*
X150821860Y-96507274D01*
X151007274Y-96321860D01*
X151007277Y-96321855D01*
X151007282Y-96321851D01*
X151166924Y-96113803D01*
X151298043Y-95886697D01*
X151398398Y-95644419D01*
X151466270Y-95391116D01*
X151500500Y-95131120D01*
X151500500Y-94868880D01*
X151466270Y-94608884D01*
X151398398Y-94355581D01*
X151336538Y-94206237D01*
X151298046Y-94113309D01*
X151298041Y-94113299D01*
X151166924Y-93886196D01*
X151007281Y-93678148D01*
X151007274Y-93678140D01*
X150821860Y-93492726D01*
X150821851Y-93492718D01*
X150613803Y-93333075D01*
X150386700Y-93201958D01*
X150386690Y-93201953D01*
X150144428Y-93101605D01*
X150144421Y-93101603D01*
X150144419Y-93101602D01*
X149891116Y-93033730D01*
X149833339Y-93026123D01*
X149631127Y-92999500D01*
X149631120Y-92999500D01*
X149368880Y-92999500D01*
X149368872Y-92999500D01*
X149137772Y-93029926D01*
X149108884Y-93033730D01*
X148890192Y-93092328D01*
X148855581Y-93101602D01*
X148855571Y-93101605D01*
X148613309Y-93201953D01*
X148613299Y-93201958D01*
X148386196Y-93333075D01*
X148178148Y-93492718D01*
X147992718Y-93678148D01*
X147833075Y-93886196D01*
X147701958Y-94113299D01*
X147701953Y-94113309D01*
X147601605Y-94355571D01*
X147601602Y-94355581D01*
X147536451Y-94598731D01*
X147533730Y-94608885D01*
X147499500Y-94868872D01*
X143509206Y-94868872D01*
X143533610Y-94793763D01*
X143542435Y-94738039D01*
X143564500Y-94598736D01*
X143564500Y-94401263D01*
X143532848Y-94201425D01*
X143534597Y-94201147D01*
X143537700Y-94138986D01*
X143567105Y-94092129D01*
X146557101Y-91102135D01*
X165149500Y-91102135D01*
X165149500Y-92897870D01*
X165149501Y-92897876D01*
X165155908Y-92957483D01*
X165206202Y-93092328D01*
X165206206Y-93092335D01*
X165292452Y-93207544D01*
X165292455Y-93207547D01*
X165407664Y-93293793D01*
X165407671Y-93293797D01*
X165542517Y-93344091D01*
X165542516Y-93344091D01*
X165549444Y-93344835D01*
X165602127Y-93350500D01*
X167397872Y-93350499D01*
X167457483Y-93344091D01*
X167592331Y-93293796D01*
X167707546Y-93207546D01*
X167793796Y-93092331D01*
X167842810Y-92960916D01*
X167884681Y-92904984D01*
X167950145Y-92880566D01*
X168018418Y-92895417D01*
X168046673Y-92916569D01*
X168160213Y-93030109D01*
X168332179Y-93155048D01*
X168332181Y-93155049D01*
X168332184Y-93155051D01*
X168521588Y-93251557D01*
X168723757Y-93317246D01*
X168933713Y-93350500D01*
X168933714Y-93350500D01*
X169146286Y-93350500D01*
X169146287Y-93350500D01*
X169356243Y-93317246D01*
X169558412Y-93251557D01*
X169747816Y-93155051D01*
X169834138Y-93092335D01*
X169919786Y-93030109D01*
X169919788Y-93030106D01*
X169919792Y-93030104D01*
X170070104Y-92879792D01*
X170070106Y-92879788D01*
X170070109Y-92879786D01*
X170195048Y-92707820D01*
X170195047Y-92707820D01*
X170195051Y-92707816D01*
X170291557Y-92518412D01*
X170357246Y-92316243D01*
X170390500Y-92106287D01*
X170390500Y-91893713D01*
X170357246Y-91683757D01*
X170291557Y-91481588D01*
X170195051Y-91292184D01*
X170195049Y-91292181D01*
X170195048Y-91292179D01*
X170070109Y-91120213D01*
X169919786Y-90969890D01*
X169747820Y-90844951D01*
X169558414Y-90748444D01*
X169558413Y-90748443D01*
X169558412Y-90748443D01*
X169356243Y-90682754D01*
X169356241Y-90682753D01*
X169356240Y-90682753D01*
X169194957Y-90657208D01*
X169146287Y-90649500D01*
X168933713Y-90649500D01*
X168885042Y-90657208D01*
X168723760Y-90682753D01*
X168521585Y-90748444D01*
X168332179Y-90844951D01*
X168160215Y-90969889D01*
X168046673Y-91083431D01*
X167985350Y-91116915D01*
X167915658Y-91111931D01*
X167859725Y-91070059D01*
X167842810Y-91039082D01*
X167793797Y-90907671D01*
X167793793Y-90907664D01*
X167707547Y-90792455D01*
X167707544Y-90792452D01*
X167592335Y-90706206D01*
X167592328Y-90706202D01*
X167457482Y-90655908D01*
X167457483Y-90655908D01*
X167397883Y-90649501D01*
X167397881Y-90649500D01*
X167397873Y-90649500D01*
X167397864Y-90649500D01*
X165602129Y-90649500D01*
X165602123Y-90649501D01*
X165542516Y-90655908D01*
X165407671Y-90706202D01*
X165407664Y-90706206D01*
X165292455Y-90792452D01*
X165292452Y-90792455D01*
X165206206Y-90907664D01*
X165206202Y-90907671D01*
X165155908Y-91042517D01*
X165149501Y-91102116D01*
X165149500Y-91102135D01*
X146557101Y-91102135D01*
X147480520Y-90178716D01*
X147559577Y-90041784D01*
X147600501Y-89889057D01*
X147600501Y-89730942D01*
X147600501Y-89723347D01*
X147600500Y-89723329D01*
X147600500Y-86878711D01*
X177649500Y-86878711D01*
X177649500Y-87121288D01*
X177681161Y-87361785D01*
X177743947Y-87596104D01*
X177821504Y-87783342D01*
X177836776Y-87820212D01*
X177958064Y-88030289D01*
X177958066Y-88030292D01*
X177958067Y-88030293D01*
X178105733Y-88222736D01*
X178105739Y-88222743D01*
X178277256Y-88394260D01*
X178277262Y-88394265D01*
X178469711Y-88541936D01*
X178679788Y-88663224D01*
X178903900Y-88756054D01*
X179138211Y-88818838D01*
X179318586Y-88842584D01*
X179378711Y-88850500D01*
X179378712Y-88850500D01*
X179621289Y-88850500D01*
X179669388Y-88844167D01*
X179861789Y-88818838D01*
X180096100Y-88756054D01*
X180320212Y-88663224D01*
X180530289Y-88541936D01*
X180722738Y-88394265D01*
X180894265Y-88222738D01*
X181041936Y-88030289D01*
X181163224Y-87820212D01*
X181256054Y-87596100D01*
X181318838Y-87361789D01*
X181350500Y-87121288D01*
X181350500Y-86878712D01*
X181318838Y-86638211D01*
X181256054Y-86403900D01*
X181163224Y-86179788D01*
X181041936Y-85969711D01*
X180894265Y-85777262D01*
X180894260Y-85777256D01*
X180722743Y-85605739D01*
X180722736Y-85605733D01*
X180530293Y-85458067D01*
X180530292Y-85458066D01*
X180530289Y-85458064D01*
X180352617Y-85355485D01*
X180320214Y-85336777D01*
X180320205Y-85336773D01*
X180096104Y-85243947D01*
X179861785Y-85181161D01*
X179621289Y-85149500D01*
X179621288Y-85149500D01*
X179378712Y-85149500D01*
X179378711Y-85149500D01*
X179138214Y-85181161D01*
X178903895Y-85243947D01*
X178679794Y-85336773D01*
X178679785Y-85336777D01*
X178469706Y-85458067D01*
X178277263Y-85605733D01*
X178277256Y-85605739D01*
X178105739Y-85777256D01*
X178105733Y-85777263D01*
X177958067Y-85969706D01*
X177836777Y-86179785D01*
X177836773Y-86179794D01*
X177743947Y-86403895D01*
X177681161Y-86638214D01*
X177649500Y-86878711D01*
X147600500Y-86878711D01*
X147600500Y-80552135D01*
X149059500Y-80552135D01*
X149059500Y-82447870D01*
X149059501Y-82447876D01*
X149065908Y-82507483D01*
X149116202Y-82642328D01*
X149116206Y-82642335D01*
X149202452Y-82757544D01*
X149202455Y-82757547D01*
X149317664Y-82843793D01*
X149317671Y-82843797D01*
X149452517Y-82894091D01*
X149452516Y-82894091D01*
X149459444Y-82894835D01*
X149512127Y-82900500D01*
X151407872Y-82900499D01*
X151467483Y-82894091D01*
X151602331Y-82843796D01*
X151717546Y-82757546D01*
X151803796Y-82642331D01*
X151812056Y-82620185D01*
X151833601Y-82562420D01*
X151875471Y-82506486D01*
X151940936Y-82482068D01*
X152009209Y-82496919D01*
X152037464Y-82518071D01*
X152087636Y-82568243D01*
X152087641Y-82568247D01*
X152189603Y-82642326D01*
X152265978Y-82697815D01*
X152394375Y-82763237D01*
X152462393Y-82797895D01*
X152462396Y-82797896D01*
X152567221Y-82831955D01*
X152672049Y-82866015D01*
X152889778Y-82900500D01*
X152889779Y-82900500D01*
X153110221Y-82900500D01*
X153110222Y-82900500D01*
X153128229Y-82897648D01*
X163889500Y-82897648D01*
X163889500Y-83102351D01*
X163921522Y-83304534D01*
X163984781Y-83499223D01*
X164077715Y-83681613D01*
X164198028Y-83847213D01*
X164342786Y-83991971D01*
X164462359Y-84078844D01*
X164508390Y-84112287D01*
X164624607Y-84171503D01*
X164690776Y-84205218D01*
X164690778Y-84205218D01*
X164690781Y-84205220D01*
X164777784Y-84233489D01*
X164885465Y-84268477D01*
X164986557Y-84284488D01*
X165087648Y-84300500D01*
X165087649Y-84300500D01*
X165292351Y-84300500D01*
X165292352Y-84300500D01*
X165494534Y-84268477D01*
X165689219Y-84205220D01*
X165871610Y-84112287D01*
X165964590Y-84044732D01*
X166037213Y-83991971D01*
X166037215Y-83991968D01*
X166037219Y-83991966D01*
X166181966Y-83847219D01*
X166181968Y-83847215D01*
X166181971Y-83847213D01*
X166240613Y-83766498D01*
X166302287Y-83681610D01*
X166395220Y-83499219D01*
X166458477Y-83304534D01*
X166490500Y-83102352D01*
X166490500Y-82897648D01*
X171509500Y-82897648D01*
X171509500Y-83102351D01*
X171541522Y-83304534D01*
X171604781Y-83499223D01*
X171697715Y-83681613D01*
X171818028Y-83847213D01*
X171962786Y-83991971D01*
X172082359Y-84078844D01*
X172128390Y-84112287D01*
X172244607Y-84171503D01*
X172310776Y-84205218D01*
X172310778Y-84205218D01*
X172310781Y-84205220D01*
X172397784Y-84233489D01*
X172505465Y-84268477D01*
X172606557Y-84284488D01*
X172707648Y-84300500D01*
X172707649Y-84300500D01*
X172912351Y-84300500D01*
X172912352Y-84300500D01*
X173114534Y-84268477D01*
X173309219Y-84205220D01*
X173491610Y-84112287D01*
X173584590Y-84044732D01*
X173657213Y-83991971D01*
X173657215Y-83991968D01*
X173657219Y-83991966D01*
X173801966Y-83847219D01*
X173801968Y-83847215D01*
X173801971Y-83847213D01*
X173860613Y-83766498D01*
X173922287Y-83681610D01*
X174015220Y-83499219D01*
X174078477Y-83304534D01*
X174110500Y-83102352D01*
X174110500Y-82897648D01*
X174078477Y-82695466D01*
X174069619Y-82668205D01*
X174039659Y-82575996D01*
X174015220Y-82500781D01*
X174015218Y-82500778D01*
X174015218Y-82500776D01*
X173970166Y-82412358D01*
X173922287Y-82318390D01*
X173860991Y-82234022D01*
X173801971Y-82152786D01*
X173657213Y-82008028D01*
X173491613Y-81887715D01*
X173491612Y-81887714D01*
X173491610Y-81887713D01*
X173404928Y-81843546D01*
X173309223Y-81794781D01*
X173114534Y-81731522D01*
X172939995Y-81703878D01*
X172912352Y-81699500D01*
X172707648Y-81699500D01*
X172683329Y-81703351D01*
X172505465Y-81731522D01*
X172310776Y-81794781D01*
X172128386Y-81887715D01*
X171962786Y-82008028D01*
X171818028Y-82152786D01*
X171697715Y-82318386D01*
X171604781Y-82500776D01*
X171541522Y-82695465D01*
X171509500Y-82897648D01*
X166490500Y-82897648D01*
X166458477Y-82695466D01*
X166449619Y-82668205D01*
X166419659Y-82575996D01*
X166395220Y-82500781D01*
X166395218Y-82500778D01*
X166395218Y-82500776D01*
X166350166Y-82412358D01*
X166302287Y-82318390D01*
X166240991Y-82234022D01*
X166181971Y-82152786D01*
X166037213Y-82008028D01*
X165871613Y-81887715D01*
X165871612Y-81887714D01*
X165871610Y-81887713D01*
X165784928Y-81843546D01*
X165689223Y-81794781D01*
X165494534Y-81731522D01*
X165319995Y-81703878D01*
X165292352Y-81699500D01*
X165087648Y-81699500D01*
X165063329Y-81703351D01*
X164885465Y-81731522D01*
X164690776Y-81794781D01*
X164508386Y-81887715D01*
X164342786Y-82008028D01*
X164198028Y-82152786D01*
X164077715Y-82318386D01*
X163984781Y-82500776D01*
X163921522Y-82695465D01*
X163889500Y-82897648D01*
X153128229Y-82897648D01*
X153327951Y-82866015D01*
X153537606Y-82797895D01*
X153537610Y-82797893D01*
X153568229Y-82782292D01*
X153568230Y-82782291D01*
X153734022Y-82697815D01*
X153912365Y-82568242D01*
X154068242Y-82412365D01*
X154197815Y-82234022D01*
X154297895Y-82037606D01*
X154366015Y-81827951D01*
X154400500Y-81610222D01*
X154400500Y-81389778D01*
X154366015Y-81172049D01*
X154317421Y-81022490D01*
X154297896Y-80962396D01*
X154297895Y-80962393D01*
X154263237Y-80894375D01*
X154197815Y-80765978D01*
X154181260Y-80743192D01*
X154068247Y-80587641D01*
X154068243Y-80587636D01*
X153912363Y-80431756D01*
X153912358Y-80431752D01*
X153734025Y-80302187D01*
X153734024Y-80302186D01*
X153734022Y-80302185D01*
X153616791Y-80242452D01*
X153537606Y-80202104D01*
X153537603Y-80202103D01*
X153327952Y-80133985D01*
X153219086Y-80116742D01*
X153110222Y-80099500D01*
X152889778Y-80099500D01*
X152817201Y-80110995D01*
X152672047Y-80133985D01*
X152462396Y-80202103D01*
X152462393Y-80202104D01*
X152265974Y-80302187D01*
X152087641Y-80431752D01*
X152087636Y-80431756D01*
X152037463Y-80481929D01*
X151976140Y-80515413D01*
X151906448Y-80510428D01*
X151850515Y-80468557D01*
X151833601Y-80437580D01*
X151803797Y-80357671D01*
X151803793Y-80357664D01*
X151717547Y-80242455D01*
X151717544Y-80242452D01*
X151602335Y-80156206D01*
X151602328Y-80156202D01*
X151467482Y-80105908D01*
X151467483Y-80105908D01*
X151407883Y-80099501D01*
X151407881Y-80099500D01*
X151407873Y-80099500D01*
X151407864Y-80099500D01*
X149512129Y-80099500D01*
X149512123Y-80099501D01*
X149452516Y-80105908D01*
X149317671Y-80156202D01*
X149317664Y-80156206D01*
X149202455Y-80242452D01*
X149202452Y-80242455D01*
X149116206Y-80357664D01*
X149116202Y-80357671D01*
X149065908Y-80492517D01*
X149059501Y-80552116D01*
X149059500Y-80552135D01*
X147600500Y-80552135D01*
X147600500Y-79800097D01*
X147620185Y-79733058D01*
X147636819Y-79712416D01*
X148810504Y-78538731D01*
X150014664Y-77334571D01*
X150075985Y-77301088D01*
X150078152Y-77300637D01*
X150078841Y-77300500D01*
X150078842Y-77300500D01*
X150233497Y-77269737D01*
X150379179Y-77209394D01*
X150510289Y-77121789D01*
X150621789Y-77010289D01*
X150709394Y-76879179D01*
X150769737Y-76733497D01*
X150800500Y-76578842D01*
X150800500Y-76421158D01*
X150800500Y-76421155D01*
X150800499Y-76421153D01*
X150769738Y-76266510D01*
X150769738Y-76266508D01*
X150769737Y-76266503D01*
X150769735Y-76266498D01*
X150709397Y-76120827D01*
X150709390Y-76120814D01*
X150621789Y-75989711D01*
X150621786Y-75989707D01*
X150510292Y-75878213D01*
X150510288Y-75878210D01*
X150379185Y-75790609D01*
X150379172Y-75790602D01*
X150233501Y-75730264D01*
X150233489Y-75730261D01*
X150078845Y-75699500D01*
X150078842Y-75699500D01*
X149921158Y-75699500D01*
X149921155Y-75699500D01*
X149766510Y-75730261D01*
X149766498Y-75730264D01*
X149620827Y-75790602D01*
X149620814Y-75790609D01*
X149489711Y-75878210D01*
X149489707Y-75878213D01*
X149378213Y-75989707D01*
X149378210Y-75989711D01*
X149290609Y-76120814D01*
X149290602Y-76120827D01*
X149230264Y-76266498D01*
X149230261Y-76266508D01*
X149199362Y-76421848D01*
X149166977Y-76483759D01*
X149165426Y-76485337D01*
X146631286Y-79019478D01*
X146519481Y-79131282D01*
X146519480Y-79131284D01*
X146479348Y-79200795D01*
X146440423Y-79268215D01*
X146399499Y-79420943D01*
X146399499Y-79420945D01*
X146399499Y-79589046D01*
X146399500Y-79589059D01*
X146399500Y-89509901D01*
X146379815Y-89576940D01*
X146363181Y-89597582D01*
X142717870Y-93242892D01*
X142656547Y-93276377D01*
X142608778Y-93275865D01*
X142608575Y-93277152D01*
X142408736Y-93245500D01*
X142408731Y-93245500D01*
X142211269Y-93245500D01*
X142211264Y-93245500D01*
X142016236Y-93276389D01*
X141828441Y-93337408D01*
X141652495Y-93427058D01*
X141492753Y-93543115D01*
X141353115Y-93682753D01*
X141237058Y-93842495D01*
X141237056Y-93842499D01*
X141156922Y-93999770D01*
X141150485Y-94012403D01*
X141102510Y-94063199D01*
X141034689Y-94079994D01*
X140968554Y-94057456D01*
X140929515Y-94012403D01*
X140842944Y-93842499D01*
X140812430Y-93800500D01*
X140726884Y-93682753D01*
X140587246Y-93543115D01*
X140423560Y-93424192D01*
X140424599Y-93422761D01*
X140382833Y-93376593D01*
X140370500Y-93322682D01*
X140370500Y-77530096D01*
X140390185Y-77463057D01*
X140406814Y-77442420D01*
X144868713Y-72980521D01*
X144868716Y-72980520D01*
X144980520Y-72868716D01*
X145030639Y-72781904D01*
X145059577Y-72731785D01*
X145100500Y-72579057D01*
X145100500Y-72420943D01*
X145100500Y-72079765D01*
X145120185Y-72012726D01*
X145121398Y-72010874D01*
X145136734Y-71987923D01*
X145209394Y-71879179D01*
X145269737Y-71733497D01*
X145300500Y-71578842D01*
X145300500Y-71421158D01*
X145300500Y-71421155D01*
X145300499Y-71421153D01*
X145269737Y-71266503D01*
X145229078Y-71168342D01*
X145209397Y-71120827D01*
X145209390Y-71120814D01*
X145121789Y-70989711D01*
X145121786Y-70989707D01*
X145010292Y-70878213D01*
X145010288Y-70878210D01*
X144934548Y-70827602D01*
X144889743Y-70773990D01*
X144881036Y-70704665D01*
X144911190Y-70641637D01*
X144970634Y-70604918D01*
X145003439Y-70600500D01*
X157413331Y-70600500D01*
X157413347Y-70600501D01*
X157420943Y-70600501D01*
X157579054Y-70600501D01*
X157579057Y-70600501D01*
X157731785Y-70559577D01*
X157781904Y-70530639D01*
X157868716Y-70480520D01*
X157980520Y-70368716D01*
X157980520Y-70368714D01*
X157990728Y-70358507D01*
X157990730Y-70358504D01*
X158386902Y-69962332D01*
X165899500Y-69962332D01*
X165899500Y-70237667D01*
X165899501Y-70237684D01*
X165935438Y-70510655D01*
X165935439Y-70510660D01*
X165935440Y-70510666D01*
X165948546Y-70559577D01*
X166006704Y-70776630D01*
X166112075Y-71031017D01*
X166112080Y-71031028D01*
X166191359Y-71168342D01*
X166249751Y-71269479D01*
X166249753Y-71269482D01*
X166249754Y-71269483D01*
X166417370Y-71487926D01*
X166417376Y-71487933D01*
X166612066Y-71682623D01*
X166612072Y-71682628D01*
X166830521Y-71850249D01*
X166983778Y-71938732D01*
X167068971Y-71987919D01*
X167068976Y-71987921D01*
X167068979Y-71987923D01*
X167323368Y-72093295D01*
X167589334Y-72164560D01*
X167862326Y-72200500D01*
X167862333Y-72200500D01*
X168137667Y-72200500D01*
X168137674Y-72200500D01*
X168410666Y-72164560D01*
X168676632Y-72093295D01*
X168931021Y-71987923D01*
X169169479Y-71850249D01*
X169387928Y-71682628D01*
X169582628Y-71487928D01*
X169750249Y-71269479D01*
X169887923Y-71031021D01*
X169993295Y-70776632D01*
X170064560Y-70510666D01*
X170100500Y-70237674D01*
X170100500Y-69962326D01*
X170064560Y-69689334D01*
X169993295Y-69423368D01*
X169887923Y-69168979D01*
X169887921Y-69168976D01*
X169887919Y-69168971D01*
X169790651Y-69000500D01*
X169750249Y-68930521D01*
X169582628Y-68712072D01*
X169582623Y-68712066D01*
X169387933Y-68517376D01*
X169387926Y-68517370D01*
X169169483Y-68349754D01*
X169169482Y-68349753D01*
X169169479Y-68349751D01*
X169054457Y-68283343D01*
X168931028Y-68212080D01*
X168931017Y-68212075D01*
X168676630Y-68106704D01*
X168543649Y-68071072D01*
X168410666Y-68035440D01*
X168410660Y-68035439D01*
X168410655Y-68035438D01*
X168137684Y-67999501D01*
X168137679Y-67999500D01*
X168137674Y-67999500D01*
X167862326Y-67999500D01*
X167862320Y-67999500D01*
X167862315Y-67999501D01*
X167589344Y-68035438D01*
X167589337Y-68035439D01*
X167589334Y-68035440D01*
X167533125Y-68050500D01*
X167323369Y-68106704D01*
X167068982Y-68212075D01*
X167068971Y-68212080D01*
X166830516Y-68349754D01*
X166612073Y-68517370D01*
X166612066Y-68517376D01*
X166417376Y-68712066D01*
X166417370Y-68712073D01*
X166249754Y-68930516D01*
X166112080Y-69168971D01*
X166112075Y-69168982D01*
X166006704Y-69423369D01*
X165935441Y-69689331D01*
X165935438Y-69689344D01*
X165899501Y-69962315D01*
X165899500Y-69962332D01*
X158386902Y-69962332D01*
X159896437Y-68452796D01*
X159957758Y-68419313D01*
X160022433Y-68422547D01*
X160148632Y-68463553D01*
X160236110Y-68477408D01*
X160381903Y-68500500D01*
X160381908Y-68500500D01*
X160618097Y-68500500D01*
X160851368Y-68463553D01*
X160884468Y-68452798D01*
X161075992Y-68390568D01*
X161286433Y-68283343D01*
X161477510Y-68144517D01*
X161644517Y-67977510D01*
X161783343Y-67786433D01*
X161890568Y-67575992D01*
X161963553Y-67351368D01*
X161975270Y-67277390D01*
X162000500Y-67118097D01*
X162000500Y-66881902D01*
X161963553Y-66648631D01*
X161911961Y-66489849D01*
X161890568Y-66424008D01*
X161890566Y-66424005D01*
X161890566Y-66424003D01*
X161784917Y-66216657D01*
X161783343Y-66213567D01*
X161644517Y-66022490D01*
X161477510Y-65855483D01*
X161470401Y-65850318D01*
X161427735Y-65794988D01*
X161421756Y-65725375D01*
X161454362Y-65663580D01*
X161470401Y-65649682D01*
X161470500Y-65649609D01*
X161477510Y-65644517D01*
X161644517Y-65477510D01*
X161783343Y-65286433D01*
X161890568Y-65075992D01*
X161963553Y-64851368D01*
X161981585Y-64737520D01*
X162000500Y-64618097D01*
X162000500Y-64381902D01*
X161963553Y-64148631D01*
X161918602Y-64010288D01*
X161890568Y-63924008D01*
X161890566Y-63924005D01*
X161890566Y-63924003D01*
X161820470Y-63786433D01*
X161783343Y-63713567D01*
X161713793Y-63617840D01*
X161690314Y-63552036D01*
X161706139Y-63483982D01*
X161739801Y-63445689D01*
X161742328Y-63443796D01*
X161742331Y-63443796D01*
X161857546Y-63357546D01*
X161943796Y-63242331D01*
X161994091Y-63107483D01*
X162000500Y-63047873D01*
X162000499Y-61424499D01*
X162020184Y-61357461D01*
X162072987Y-61311706D01*
X162124499Y-61300500D01*
X166812897Y-61300500D01*
X166879936Y-61320185D01*
X166900578Y-61336819D01*
X172928133Y-67364374D01*
X172928143Y-67364385D01*
X172932473Y-67368715D01*
X172932474Y-67368716D01*
X173044278Y-67480520D01*
X173044280Y-67480521D01*
X173044284Y-67480524D01*
X173160127Y-67547405D01*
X173181210Y-67559577D01*
X173293013Y-67589534D01*
X173333936Y-67600500D01*
X173333937Y-67600500D01*
X173545932Y-67600500D01*
X173612971Y-67620185D01*
X173656416Y-67668203D01*
X173716657Y-67786433D01*
X173855483Y-67977510D01*
X174022490Y-68144517D01*
X174213567Y-68283343D01*
X174312991Y-68334002D01*
X174424003Y-68390566D01*
X174424005Y-68390566D01*
X174424008Y-68390568D01*
X174512476Y-68419313D01*
X174648631Y-68463553D01*
X174881903Y-68500500D01*
X174881908Y-68500500D01*
X175118097Y-68500500D01*
X175351368Y-68463553D01*
X175384468Y-68452798D01*
X175575992Y-68390568D01*
X175786433Y-68283343D01*
X175977510Y-68144517D01*
X176144517Y-67977510D01*
X176283343Y-67786433D01*
X176390568Y-67575992D01*
X176463553Y-67351368D01*
X176475270Y-67277390D01*
X176500500Y-67118097D01*
X176500500Y-66881902D01*
X176463553Y-66648631D01*
X176411961Y-66489849D01*
X176390568Y-66424008D01*
X176390566Y-66424005D01*
X176390566Y-66424003D01*
X176284917Y-66216657D01*
X176283343Y-66213567D01*
X176144517Y-66022490D01*
X175977510Y-65855483D01*
X175786433Y-65716657D01*
X175763588Y-65705017D01*
X175575996Y-65609433D01*
X175351368Y-65536446D01*
X175118097Y-65499500D01*
X175118092Y-65499500D01*
X174881908Y-65499500D01*
X174881903Y-65499500D01*
X174648631Y-65536446D01*
X174424003Y-65609433D01*
X174213566Y-65716657D01*
X174138265Y-65771367D01*
X174022490Y-65855483D01*
X174022488Y-65855485D01*
X174022487Y-65855485D01*
X173855485Y-66022487D01*
X173855485Y-66022488D01*
X173855483Y-66022490D01*
X173815552Y-66077450D01*
X173716654Y-66213570D01*
X173712834Y-66221067D01*
X173664855Y-66271859D01*
X173597033Y-66288649D01*
X173530900Y-66266105D01*
X173514673Y-66252444D01*
X169144131Y-61881902D01*
X173499500Y-61881902D01*
X173499500Y-62118097D01*
X173536446Y-62351368D01*
X173609433Y-62575996D01*
X173674174Y-62703056D01*
X173716657Y-62786433D01*
X173855483Y-62977510D01*
X174022490Y-63144517D01*
X174213567Y-63283343D01*
X174312991Y-63334002D01*
X174424003Y-63390566D01*
X174424005Y-63390566D01*
X174424008Y-63390568D01*
X174518139Y-63421153D01*
X174648631Y-63463553D01*
X174881903Y-63500500D01*
X174881908Y-63500500D01*
X175118097Y-63500500D01*
X175351368Y-63463553D01*
X175575992Y-63390568D01*
X175786433Y-63283343D01*
X175977510Y-63144517D01*
X176144517Y-62977510D01*
X176283343Y-62786433D01*
X176390568Y-62575992D01*
X176463553Y-62351368D01*
X176474074Y-62284939D01*
X176500500Y-62118097D01*
X176500500Y-61881902D01*
X176463553Y-61648631D01*
X176415097Y-61499500D01*
X176390568Y-61424008D01*
X176390566Y-61424005D01*
X176390566Y-61424003D01*
X176333347Y-61311706D01*
X176283343Y-61213567D01*
X176144517Y-61022490D01*
X175977510Y-60855483D01*
X175786433Y-60716657D01*
X175744869Y-60695479D01*
X175575996Y-60609433D01*
X175351368Y-60536446D01*
X175118097Y-60499500D01*
X175118092Y-60499500D01*
X174881908Y-60499500D01*
X174881903Y-60499500D01*
X174648631Y-60536446D01*
X174424003Y-60609433D01*
X174213566Y-60716657D01*
X174115478Y-60787923D01*
X174022490Y-60855483D01*
X174022488Y-60855485D01*
X174022487Y-60855485D01*
X173855485Y-61022487D01*
X173855485Y-61022488D01*
X173855483Y-61022490D01*
X173803555Y-61093962D01*
X173716657Y-61213566D01*
X173609433Y-61424003D01*
X173536446Y-61648631D01*
X173499500Y-61881902D01*
X169144131Y-61881902D01*
X168417514Y-61155285D01*
X168384029Y-61093962D01*
X168389013Y-61024270D01*
X168430885Y-60968337D01*
X168473095Y-60947832D01*
X168676632Y-60893295D01*
X168931021Y-60787923D01*
X169169479Y-60650249D01*
X169387928Y-60482628D01*
X169582628Y-60287928D01*
X169750249Y-60069479D01*
X169887923Y-59831021D01*
X169993295Y-59576632D01*
X170064560Y-59310666D01*
X170100500Y-59037674D01*
X170100500Y-58762326D01*
X170064560Y-58489334D01*
X169993295Y-58223368D01*
X169887923Y-57968979D01*
X169887921Y-57968976D01*
X169887919Y-57968971D01*
X169814834Y-57842385D01*
X169750249Y-57730521D01*
X169593865Y-57526716D01*
X169582629Y-57512073D01*
X169582623Y-57512066D01*
X169387933Y-57317376D01*
X169387926Y-57317370D01*
X169169483Y-57149754D01*
X169169482Y-57149753D01*
X169169479Y-57149751D01*
X169074407Y-57094861D01*
X168931028Y-57012080D01*
X168931017Y-57012075D01*
X168676630Y-56906704D01*
X168543649Y-56871072D01*
X168410666Y-56835440D01*
X168410660Y-56835439D01*
X168410655Y-56835438D01*
X168137684Y-56799501D01*
X168137679Y-56799500D01*
X168137674Y-56799500D01*
X167862326Y-56799500D01*
X167862320Y-56799500D01*
X167862315Y-56799501D01*
X167589344Y-56835438D01*
X167589337Y-56835439D01*
X167589334Y-56835440D01*
X167533125Y-56850500D01*
X167323369Y-56906704D01*
X167068982Y-57012075D01*
X167068971Y-57012080D01*
X166830516Y-57149754D01*
X166612073Y-57317370D01*
X166612066Y-57317376D01*
X166417376Y-57512066D01*
X166417370Y-57512073D01*
X166249754Y-57730516D01*
X166112080Y-57968971D01*
X166112075Y-57968982D01*
X166006704Y-58223369D01*
X165935441Y-58489331D01*
X165935438Y-58489344D01*
X165899501Y-58762315D01*
X165899500Y-58762332D01*
X165899500Y-59037667D01*
X165899501Y-59037684D01*
X165935438Y-59310655D01*
X165935439Y-59310660D01*
X165935440Y-59310666D01*
X165970670Y-59442147D01*
X166006704Y-59576630D01*
X166112075Y-59831017D01*
X166112080Y-59831028D01*
X166159696Y-59913500D01*
X166176169Y-59981400D01*
X166153317Y-60047427D01*
X166098395Y-60090617D01*
X166052309Y-60099500D01*
X159286670Y-60099500D01*
X159286654Y-60099499D01*
X159279058Y-60099499D01*
X159120943Y-60099499D01*
X159050808Y-60118292D01*
X158968214Y-60140423D01*
X158968209Y-60140426D01*
X158831290Y-60219475D01*
X158831282Y-60219481D01*
X153431584Y-65619181D01*
X153370261Y-65652666D01*
X153343903Y-65655500D01*
X148347030Y-65655500D01*
X148279991Y-65635815D01*
X148234236Y-65583011D01*
X148225564Y-65549534D01*
X148224726Y-65549688D01*
X148223586Y-65543447D01*
X148177565Y-65385045D01*
X148177564Y-65385042D01*
X148177564Y-65385041D01*
X148093592Y-65243053D01*
X148093590Y-65243051D01*
X148093587Y-65243047D01*
X147976952Y-65126412D01*
X147976944Y-65126406D01*
X147920004Y-65092732D01*
X147872321Y-65041663D01*
X147859817Y-64972921D01*
X147886462Y-64908332D01*
X147920004Y-64879268D01*
X147976947Y-64845592D01*
X148093592Y-64728947D01*
X148177564Y-64586959D01*
X148223587Y-64428548D01*
X148226500Y-64391534D01*
X148226500Y-63040466D01*
X148223587Y-63003452D01*
X148219313Y-62988742D01*
X148177565Y-62845045D01*
X148177564Y-62845042D01*
X148177564Y-62845041D01*
X148093592Y-62703053D01*
X148093590Y-62703051D01*
X148093587Y-62703047D01*
X147976952Y-62586412D01*
X147976944Y-62586406D01*
X147920004Y-62552732D01*
X147872321Y-62501663D01*
X147859817Y-62432921D01*
X147886462Y-62368332D01*
X147920004Y-62339268D01*
X147976947Y-62305592D01*
X148093592Y-62188947D01*
X148103680Y-62171889D01*
X148154746Y-62124206D01*
X148223487Y-62111700D01*
X148288077Y-62138344D01*
X148298091Y-62147327D01*
X148782046Y-62631282D01*
X149226447Y-63075683D01*
X149259932Y-63137006D01*
X149254948Y-63206698D01*
X149253328Y-63210814D01*
X149230264Y-63266497D01*
X149230261Y-63266505D01*
X149199500Y-63421153D01*
X149199500Y-63578846D01*
X149230261Y-63733489D01*
X149230264Y-63733501D01*
X149290602Y-63879172D01*
X149290609Y-63879185D01*
X149378210Y-64010288D01*
X149378213Y-64010292D01*
X149489707Y-64121786D01*
X149489711Y-64121789D01*
X149620814Y-64209390D01*
X149620827Y-64209397D01*
X149737812Y-64257853D01*
X149766503Y-64269737D01*
X149921153Y-64300499D01*
X149921156Y-64300500D01*
X149921158Y-64300500D01*
X150078844Y-64300500D01*
X150078845Y-64300499D01*
X150233497Y-64269737D01*
X150379179Y-64209394D01*
X150510289Y-64121789D01*
X150621789Y-64010289D01*
X150709394Y-63879179D01*
X150769737Y-63733497D01*
X150800500Y-63578842D01*
X150800500Y-63421158D01*
X150800500Y-63421155D01*
X150800499Y-63421153D01*
X150786618Y-63351368D01*
X150769737Y-63266503D01*
X150769735Y-63266497D01*
X150709397Y-63120827D01*
X150709390Y-63120814D01*
X150621399Y-62989126D01*
X150602533Y-62928874D01*
X150601562Y-62929002D01*
X150600828Y-62923429D01*
X150600521Y-62922448D01*
X150600507Y-62920996D01*
X150600501Y-62920945D01*
X150600501Y-62920943D01*
X150559577Y-62768216D01*
X150521957Y-62703056D01*
X150480524Y-62631290D01*
X150480518Y-62631282D01*
X148663590Y-60814355D01*
X148663588Y-60814352D01*
X148544717Y-60695481D01*
X148544716Y-60695480D01*
X148457904Y-60645360D01*
X148407785Y-60616423D01*
X148310279Y-60590295D01*
X148304202Y-60587962D01*
X148281401Y-60570546D01*
X148256904Y-60555614D01*
X148253984Y-60549604D01*
X148248677Y-60545550D01*
X148238912Y-60518575D01*
X148226376Y-60492767D01*
X148225041Y-60481931D01*
X148223587Y-60463453D01*
X148223586Y-60463447D01*
X148177565Y-60305045D01*
X148177564Y-60305042D01*
X148177564Y-60305041D01*
X148093592Y-60163053D01*
X148093590Y-60163051D01*
X148093587Y-60163047D01*
X147976952Y-60046412D01*
X147976944Y-60046406D01*
X147920004Y-60012732D01*
X147872321Y-59961663D01*
X147859817Y-59892921D01*
X147886462Y-59828332D01*
X147920004Y-59799268D01*
X147976947Y-59765592D01*
X148093592Y-59648947D01*
X148177564Y-59506959D01*
X148223587Y-59348548D01*
X148226500Y-59311534D01*
X148226500Y-57960466D01*
X148223587Y-57923452D01*
X148207473Y-57867989D01*
X148177565Y-57765044D01*
X148177563Y-57765039D01*
X148163292Y-57740908D01*
X148156289Y-57713309D01*
X148146340Y-57686635D01*
X148147808Y-57679883D01*
X148146109Y-57673185D01*
X148155139Y-57646181D01*
X148161191Y-57618362D01*
X148167069Y-57610509D01*
X148168269Y-57606922D01*
X148182336Y-57590113D01*
X148245734Y-57526716D01*
X148245735Y-57526713D01*
X148384506Y-57387942D01*
X148384511Y-57387938D01*
X148394714Y-57377734D01*
X148394716Y-57377734D01*
X148506520Y-57265930D01*
X148510262Y-57259447D01*
X148562361Y-57169211D01*
X148562362Y-57169209D01*
X148585574Y-57129004D01*
X148585573Y-57129004D01*
X148585577Y-57128999D01*
X148626500Y-56976271D01*
X148626500Y-56818157D01*
X148626500Y-54411060D01*
X148626501Y-54411047D01*
X148626501Y-54242944D01*
X148626501Y-54242943D01*
X148585577Y-54090216D01*
X148556948Y-54040629D01*
X148506524Y-53953290D01*
X148506518Y-53953282D01*
X148262819Y-53709583D01*
X148229334Y-53648260D01*
X148226500Y-53621902D01*
X148226500Y-52880473D01*
X148226499Y-52880453D01*
X148223587Y-52843453D01*
X148223586Y-52843447D01*
X148177565Y-52685045D01*
X148177564Y-52685042D01*
X148177564Y-52685041D01*
X148116795Y-52582287D01*
X148093594Y-52543056D01*
X148093587Y-52543047D01*
X147976952Y-52426412D01*
X147976944Y-52426406D01*
X147920004Y-52392732D01*
X147872321Y-52341663D01*
X147859817Y-52272921D01*
X147886462Y-52208332D01*
X147920004Y-52179268D01*
X147976947Y-52145592D01*
X148093592Y-52028947D01*
X148177564Y-51886959D01*
X148223587Y-51728548D01*
X148226500Y-51691534D01*
X148226500Y-50429671D01*
X148246185Y-50362632D01*
X148298989Y-50316877D01*
X148351320Y-50305675D01*
X176969374Y-50496462D01*
X177036279Y-50516593D01*
X177040785Y-50519674D01*
X177196749Y-50631463D01*
X177521720Y-50864391D01*
X177525102Y-50866904D01*
X177680386Y-50986479D01*
X177719537Y-51037867D01*
X187251105Y-74390209D01*
X187260184Y-74431703D01*
X187305204Y-75471191D01*
X187296866Y-75521558D01*
X169228016Y-121914550D01*
X169199890Y-121957490D01*
X168693722Y-122460655D01*
X168632299Y-122493957D01*
X168605269Y-122496709D01*
X109789428Y-122006577D01*
X109722555Y-121986334D01*
X109700973Y-121968417D01*
X109584373Y-121846857D01*
X108789796Y-121018477D01*
X108788246Y-121016832D01*
X108707654Y-120929652D01*
X108498862Y-120703793D01*
X108474537Y-120665043D01*
X106980300Y-116868872D01*
X125499500Y-116868872D01*
X125499500Y-117131127D01*
X125526123Y-117333339D01*
X125533730Y-117391116D01*
X125601602Y-117644418D01*
X125601605Y-117644428D01*
X125701953Y-117886690D01*
X125701958Y-117886700D01*
X125833075Y-118113803D01*
X125992718Y-118321851D01*
X125992726Y-118321860D01*
X126178140Y-118507274D01*
X126178148Y-118507281D01*
X126386196Y-118666924D01*
X126613299Y-118798041D01*
X126613309Y-118798046D01*
X126855571Y-118898394D01*
X126855581Y-118898398D01*
X127108884Y-118966270D01*
X127368880Y-119000500D01*
X127368887Y-119000500D01*
X127631113Y-119000500D01*
X127631120Y-119000500D01*
X127891116Y-118966270D01*
X128144419Y-118898398D01*
X128386697Y-118798043D01*
X128613803Y-118666924D01*
X128821851Y-118507282D01*
X128821855Y-118507277D01*
X128821860Y-118507274D01*
X129007274Y-118321860D01*
X129007277Y-118321855D01*
X129007282Y-118321851D01*
X129166924Y-118113803D01*
X129298043Y-117886697D01*
X129398398Y-117644419D01*
X129466270Y-117391116D01*
X129500500Y-117131120D01*
X129500500Y-116868880D01*
X129500499Y-116868872D01*
X147499500Y-116868872D01*
X147499500Y-117131127D01*
X147526123Y-117333339D01*
X147533730Y-117391116D01*
X147601602Y-117644418D01*
X147601605Y-117644428D01*
X147701953Y-117886690D01*
X147701958Y-117886700D01*
X147833075Y-118113803D01*
X147992718Y-118321851D01*
X147992726Y-118321860D01*
X148178140Y-118507274D01*
X148178148Y-118507281D01*
X148386196Y-118666924D01*
X148613299Y-118798041D01*
X148613309Y-118798046D01*
X148855571Y-118898394D01*
X148855581Y-118898398D01*
X149108884Y-118966270D01*
X149368880Y-119000500D01*
X149368887Y-119000500D01*
X149631113Y-119000500D01*
X149631120Y-119000500D01*
X149891116Y-118966270D01*
X150144419Y-118898398D01*
X150386697Y-118798043D01*
X150613803Y-118666924D01*
X150821851Y-118507282D01*
X150821855Y-118507277D01*
X150821860Y-118507274D01*
X151007274Y-118321860D01*
X151007277Y-118321855D01*
X151007282Y-118321851D01*
X151166924Y-118113803D01*
X151298043Y-117886697D01*
X151398398Y-117644419D01*
X151466270Y-117391116D01*
X151500500Y-117131120D01*
X151500500Y-116868880D01*
X151466270Y-116608884D01*
X151398398Y-116355581D01*
X151376971Y-116303852D01*
X151298046Y-116113309D01*
X151298041Y-116113299D01*
X151166924Y-115886196D01*
X151007281Y-115678148D01*
X151007274Y-115678140D01*
X150821860Y-115492726D01*
X150821851Y-115492718D01*
X150613803Y-115333075D01*
X150386700Y-115201958D01*
X150386690Y-115201953D01*
X150144428Y-115101605D01*
X150144421Y-115101603D01*
X150144419Y-115101602D01*
X149891116Y-115033730D01*
X149833339Y-115026123D01*
X149631127Y-114999500D01*
X149631120Y-114999500D01*
X149368880Y-114999500D01*
X149368872Y-114999500D01*
X149137772Y-115029926D01*
X149108884Y-115033730D01*
X148963341Y-115072728D01*
X148855581Y-115101602D01*
X148855571Y-115101605D01*
X148613309Y-115201953D01*
X148613299Y-115201958D01*
X148386196Y-115333075D01*
X148178148Y-115492718D01*
X147992718Y-115678148D01*
X147833075Y-115886196D01*
X147701958Y-116113299D01*
X147701953Y-116113309D01*
X147601605Y-116355571D01*
X147601602Y-116355581D01*
X147533730Y-116608885D01*
X147499500Y-116868872D01*
X129500499Y-116868872D01*
X129466270Y-116608884D01*
X129398398Y-116355581D01*
X129376971Y-116303852D01*
X129298046Y-116113309D01*
X129298041Y-116113299D01*
X129166924Y-115886196D01*
X129007281Y-115678148D01*
X129007274Y-115678140D01*
X128821860Y-115492726D01*
X128821851Y-115492718D01*
X128613803Y-115333075D01*
X128386700Y-115201958D01*
X128386690Y-115201953D01*
X128144428Y-115101605D01*
X128144421Y-115101603D01*
X128144419Y-115101602D01*
X127891116Y-115033730D01*
X127833339Y-115026123D01*
X127631127Y-114999500D01*
X127631120Y-114999500D01*
X127368880Y-114999500D01*
X127368872Y-114999500D01*
X127137772Y-115029926D01*
X127108884Y-115033730D01*
X126963341Y-115072728D01*
X126855581Y-115101602D01*
X126855571Y-115101605D01*
X126613309Y-115201953D01*
X126613299Y-115201958D01*
X126386196Y-115333075D01*
X126178148Y-115492718D01*
X125992718Y-115678148D01*
X125833075Y-115886196D01*
X125701958Y-116113299D01*
X125701953Y-116113309D01*
X125601605Y-116355571D01*
X125601602Y-116355581D01*
X125533730Y-116608885D01*
X125499500Y-116868872D01*
X106980300Y-116868872D01*
X101966812Y-104131902D01*
X104999500Y-104131902D01*
X104999500Y-104368097D01*
X105036446Y-104601368D01*
X105109433Y-104825996D01*
X105195203Y-104994328D01*
X105216657Y-105036433D01*
X105355483Y-105227510D01*
X105522490Y-105394517D01*
X105713567Y-105533343D01*
X105812991Y-105584002D01*
X105924003Y-105640566D01*
X105924005Y-105640566D01*
X105924008Y-105640568D01*
X106044412Y-105679689D01*
X106148631Y-105713553D01*
X106381903Y-105750500D01*
X106381908Y-105750500D01*
X106618097Y-105750500D01*
X106851368Y-105713553D01*
X107075992Y-105640568D01*
X107286433Y-105533343D01*
X107477510Y-105394517D01*
X107644517Y-105227510D01*
X107783343Y-105036433D01*
X107890568Y-104825992D01*
X107963553Y-104601368D01*
X108000500Y-104368097D01*
X108000500Y-104131902D01*
X107963553Y-103898631D01*
X107901534Y-103707758D01*
X107890568Y-103674008D01*
X107890566Y-103674005D01*
X107890566Y-103674003D01*
X107783342Y-103463566D01*
X107644517Y-103272490D01*
X107477510Y-103105483D01*
X107286433Y-102966657D01*
X107284508Y-102965676D01*
X107075996Y-102859433D01*
X106851368Y-102786446D01*
X106618097Y-102749500D01*
X106618092Y-102749500D01*
X106381908Y-102749500D01*
X106381903Y-102749500D01*
X106148631Y-102786446D01*
X105924003Y-102859433D01*
X105713566Y-102966657D01*
X105604550Y-103045862D01*
X105522490Y-103105483D01*
X105522488Y-103105485D01*
X105522487Y-103105485D01*
X105355485Y-103272487D01*
X105355485Y-103272488D01*
X105355483Y-103272490D01*
X105295862Y-103354550D01*
X105216657Y-103463566D01*
X105109433Y-103674003D01*
X105036446Y-103898631D01*
X104999500Y-104131902D01*
X101966812Y-104131902D01*
X100195535Y-99631902D01*
X104999500Y-99631902D01*
X104999500Y-99868097D01*
X105036446Y-100101368D01*
X105109433Y-100325996D01*
X105188812Y-100481785D01*
X105216657Y-100536433D01*
X105355483Y-100727510D01*
X105522490Y-100894517D01*
X105713567Y-101033343D01*
X105812991Y-101084002D01*
X105924003Y-101140566D01*
X105924005Y-101140566D01*
X105924008Y-101140568D01*
X106044412Y-101179689D01*
X106148631Y-101213553D01*
X106381903Y-101250500D01*
X106381908Y-101250500D01*
X106618097Y-101250500D01*
X106851368Y-101213553D01*
X107075992Y-101140568D01*
X107286433Y-101033343D01*
X107477510Y-100894517D01*
X107644517Y-100727510D01*
X107783343Y-100536433D01*
X107890568Y-100325992D01*
X107963553Y-100101368D01*
X108000500Y-99868097D01*
X108000500Y-99631902D01*
X107963553Y-99398631D01*
X107916606Y-99254144D01*
X107890568Y-99174008D01*
X107890566Y-99174005D01*
X107890566Y-99174003D01*
X107783342Y-98963566D01*
X107644517Y-98772490D01*
X107477510Y-98605483D01*
X107286433Y-98466657D01*
X107075996Y-98359433D01*
X106851368Y-98286446D01*
X106618097Y-98249500D01*
X106618092Y-98249500D01*
X106381908Y-98249500D01*
X106381903Y-98249500D01*
X106148631Y-98286446D01*
X105924003Y-98359433D01*
X105713566Y-98466657D01*
X105604550Y-98545862D01*
X105522490Y-98605483D01*
X105522488Y-98605485D01*
X105522487Y-98605485D01*
X105355485Y-98772487D01*
X105355485Y-98772488D01*
X105355483Y-98772490D01*
X105295862Y-98854550D01*
X105216657Y-98963566D01*
X105109433Y-99174003D01*
X105036446Y-99398631D01*
X104999500Y-99631902D01*
X100195535Y-99631902D01*
X95919347Y-88768073D01*
X95913110Y-88698483D01*
X95945486Y-88636567D01*
X96006197Y-88601985D01*
X96075967Y-88605714D01*
X96096718Y-88615263D01*
X96179788Y-88663224D01*
X96403900Y-88756054D01*
X96638211Y-88818838D01*
X96818586Y-88842584D01*
X96878711Y-88850500D01*
X96878712Y-88850500D01*
X97121289Y-88850500D01*
X97169388Y-88844167D01*
X97361789Y-88818838D01*
X97596100Y-88756054D01*
X97820212Y-88663224D01*
X98030289Y-88541936D01*
X98222738Y-88394265D01*
X98394265Y-88222738D01*
X98541936Y-88030289D01*
X98663224Y-87820212D01*
X98756054Y-87596100D01*
X98818838Y-87361789D01*
X98850500Y-87121288D01*
X98850500Y-86878712D01*
X98818838Y-86638211D01*
X98756054Y-86403900D01*
X98746942Y-86381902D01*
X104999500Y-86381902D01*
X104999500Y-86618097D01*
X105036446Y-86851368D01*
X105109433Y-87075996D01*
X105208417Y-87270262D01*
X105216657Y-87286433D01*
X105355483Y-87477510D01*
X105522490Y-87644517D01*
X105713567Y-87783343D01*
X105812991Y-87834002D01*
X105924003Y-87890566D01*
X105924005Y-87890566D01*
X105924008Y-87890568D01*
X106044412Y-87929689D01*
X106148631Y-87963553D01*
X106381903Y-88000500D01*
X106381908Y-88000500D01*
X106618097Y-88000500D01*
X106851368Y-87963553D01*
X107075992Y-87890568D01*
X107286433Y-87783343D01*
X107477510Y-87644517D01*
X107644517Y-87477510D01*
X107783343Y-87286433D01*
X107890568Y-87075992D01*
X107963553Y-86851368D01*
X108000500Y-86618097D01*
X108000500Y-86381902D01*
X107963553Y-86148631D01*
X107890566Y-85924003D01*
X107783342Y-85713566D01*
X107644517Y-85522490D01*
X107477510Y-85355483D01*
X107286433Y-85216657D01*
X107075996Y-85109433D01*
X106851368Y-85036446D01*
X106618097Y-84999500D01*
X106618092Y-84999500D01*
X106381908Y-84999500D01*
X106381903Y-84999500D01*
X106148631Y-85036446D01*
X105924003Y-85109433D01*
X105713566Y-85216657D01*
X105604550Y-85295862D01*
X105522490Y-85355483D01*
X105522488Y-85355485D01*
X105522487Y-85355485D01*
X105355485Y-85522487D01*
X105355485Y-85522488D01*
X105355483Y-85522490D01*
X105295862Y-85604550D01*
X105216657Y-85713566D01*
X105109433Y-85924003D01*
X105036446Y-86148631D01*
X104999500Y-86381902D01*
X98746942Y-86381902D01*
X98663224Y-86179788D01*
X98541936Y-85969711D01*
X98394265Y-85777262D01*
X98394260Y-85777256D01*
X98222743Y-85605739D01*
X98222736Y-85605733D01*
X98030293Y-85458067D01*
X98030292Y-85458066D01*
X98030289Y-85458064D01*
X97852617Y-85355485D01*
X97820214Y-85336777D01*
X97820205Y-85336773D01*
X97596104Y-85243947D01*
X97361785Y-85181161D01*
X97121289Y-85149500D01*
X97121288Y-85149500D01*
X96878712Y-85149500D01*
X96878711Y-85149500D01*
X96638214Y-85181161D01*
X96403895Y-85243947D01*
X96179794Y-85336773D01*
X96179785Y-85336777D01*
X95969706Y-85458067D01*
X95777263Y-85605733D01*
X95777256Y-85605739D01*
X95605739Y-85777256D01*
X95605733Y-85777263D01*
X95458067Y-85969706D01*
X95336777Y-86179785D01*
X95336773Y-86179794D01*
X95243948Y-86403893D01*
X95237962Y-86426234D01*
X95201596Y-86485894D01*
X95138749Y-86516422D01*
X95069373Y-86508127D01*
X95015496Y-86463641D01*
X95002804Y-86439556D01*
X94011518Y-83921153D01*
X93208834Y-81881902D01*
X104999500Y-81881902D01*
X104999500Y-82118097D01*
X105036446Y-82351368D01*
X105109433Y-82575996D01*
X105201937Y-82757544D01*
X105216657Y-82786433D01*
X105355483Y-82977510D01*
X105522490Y-83144517D01*
X105713567Y-83283343D01*
X105755157Y-83304534D01*
X105924003Y-83390566D01*
X105924005Y-83390566D01*
X105924008Y-83390568D01*
X106022121Y-83422447D01*
X106148631Y-83463553D01*
X106381903Y-83500500D01*
X106381908Y-83500500D01*
X106618097Y-83500500D01*
X106851368Y-83463553D01*
X107075992Y-83390568D01*
X107286433Y-83283343D01*
X107477510Y-83144517D01*
X107644517Y-82977510D01*
X107783343Y-82786433D01*
X107890568Y-82575992D01*
X107963553Y-82351368D01*
X107969426Y-82314286D01*
X108000500Y-82118097D01*
X108000500Y-81881902D01*
X107963553Y-81648631D01*
X107921589Y-81519480D01*
X107890568Y-81424008D01*
X107890566Y-81424005D01*
X107890566Y-81424003D01*
X107834002Y-81312991D01*
X107783343Y-81213567D01*
X107644517Y-81022490D01*
X107477510Y-80855483D01*
X107286433Y-80716657D01*
X107225706Y-80685715D01*
X107075996Y-80609433D01*
X106851368Y-80536446D01*
X106618097Y-80499500D01*
X106618092Y-80499500D01*
X106381908Y-80499500D01*
X106381903Y-80499500D01*
X106148631Y-80536446D01*
X105924003Y-80609433D01*
X105713566Y-80716657D01*
X105604550Y-80795862D01*
X105522490Y-80855483D01*
X105522488Y-80855485D01*
X105522487Y-80855485D01*
X105355485Y-81022487D01*
X105355485Y-81022488D01*
X105355483Y-81022490D01*
X105295862Y-81104550D01*
X105216657Y-81213566D01*
X105109433Y-81424003D01*
X105036446Y-81648631D01*
X104999500Y-81881902D01*
X93208834Y-81881902D01*
X90544336Y-75112639D01*
X90542614Y-75102024D01*
X90539049Y-75095766D01*
X90535896Y-75060617D01*
X90542711Y-74932988D01*
X90554743Y-74885951D01*
X96316686Y-62881902D01*
X105249500Y-62881902D01*
X105249500Y-63118097D01*
X105286446Y-63351368D01*
X105359433Y-63575996D01*
X105439685Y-63733497D01*
X105466657Y-63786433D01*
X105605483Y-63977510D01*
X105772490Y-64144517D01*
X105963567Y-64283343D01*
X105997238Y-64300499D01*
X106174003Y-64390566D01*
X106174005Y-64390566D01*
X106174008Y-64390568D01*
X106290892Y-64428546D01*
X106398631Y-64463553D01*
X106631903Y-64500500D01*
X106631908Y-64500500D01*
X106868097Y-64500500D01*
X107101368Y-64463553D01*
X107325992Y-64390568D01*
X107536433Y-64283343D01*
X107727510Y-64144517D01*
X107894517Y-63977510D01*
X108033343Y-63786433D01*
X108140568Y-63575992D01*
X108213553Y-63351368D01*
X108230823Y-63242328D01*
X108250500Y-63118097D01*
X108250500Y-62881902D01*
X108213553Y-62648631D01*
X108172950Y-62523669D01*
X108140568Y-62424008D01*
X108140566Y-62424005D01*
X108140566Y-62424003D01*
X108080232Y-62305591D01*
X108033343Y-62213567D01*
X107894517Y-62022490D01*
X107727510Y-61855483D01*
X107536433Y-61716657D01*
X107325996Y-61609433D01*
X107101368Y-61536446D01*
X106868097Y-61499500D01*
X106868092Y-61499500D01*
X106631908Y-61499500D01*
X106631903Y-61499500D01*
X106398631Y-61536446D01*
X106174003Y-61609433D01*
X105963566Y-61716657D01*
X105918039Y-61749735D01*
X105772490Y-61855483D01*
X105772488Y-61855485D01*
X105772487Y-61855485D01*
X105605485Y-62022487D01*
X105605485Y-62022488D01*
X105605483Y-62022490D01*
X105586153Y-62049096D01*
X105466657Y-62213566D01*
X105359433Y-62424003D01*
X105286446Y-62648631D01*
X105249500Y-62881902D01*
X96316686Y-62881902D01*
X102465986Y-50070861D01*
X102512742Y-50018943D01*
X102578601Y-50000524D01*
X127763726Y-50168424D01*
G37*
%TD.AperFunction*%
M02*
